SplineFontDB: 3.2
FontName: GWENT-ExtraBold
FullName: GWENT ExtraBold
FamilyName: GWENT
Weight: Heavy
Copyright: Copyright (c) 2017 by CD PROJEKT red; Nicolai Gogoll. All rights reserved.
Version: 1.016; ttfautohint (v1.5.65-e2d9)
ItalicAngle: 0
UnderlinePosition: -170
UnderlineWidth: 50
Ascent: 800
Descent: 200
InvalidEm: 0
sfntRevision: 0x00010418
LayerCount: 2
Layer: 0 1 "Back" 1
Layer: 1 1 "Fore" 0
XUID: [1021 963 -2122951158 13661]
StyleMap: 0x0040
FSType: 0
OS2Version: 4
OS2_WeightWidthSlopeOnly: 0
OS2_UseTypoMetrics: 1
CreationTime: 1488356040
ModificationTime: 1655992690
PfmFamily: 17
TTFWeight: 800
TTFWidth: 5
LineGap: 26
VLineGap: 0
Panose: 2 0 5 3 0 0 0 0 0 0
OS2TypoAscent: 776
OS2TypoAOffset: 0
OS2TypoDescent: -112
OS2TypoDOffset: 0
OS2TypoLinegap: 52
OS2WinAscent: 1106
OS2WinAOffset: 0
OS2WinDescent: 434
OS2WinDOffset: 0
HheadAscent: 800
HheadAOffset: 0
HheadDescent: -200
HheadDOffset: 0
OS2SubXSize: 650
OS2SubYSize: 600
OS2SubXOff: 0
OS2SubYOff: 75
OS2SupXSize: 650
OS2SupYSize: 600
OS2SupXOff: 0
OS2SupYOff: 350
OS2StrikeYSize: 50
OS2StrikeYPos: 391
OS2CapHeight: 776
OS2XHeight: 653
OS2Vendor: '    '
OS2CodePages: 20000097.00000000
OS2UnicodeRanges: 8000026f.4000004a.00000000.00000000
Lookup: 1 0 0 "'aalt' Access All Alternates in Latin lookup 0" { "'aalt' Access All Alternates in Latin lookup 0 subtable"  } ['aalt' ('latn' <'AFK ' 'AZE ' 'CRT ' 'MOL ' 'NLD ' 'PLK ' 'ROM ' 'TRK ' 'dflt' > ) ]
Lookup: 3 0 0 "'aalt' Access All Alternates in Latin lookup 1" { "'aalt' Access All Alternates in Latin lookup 1 subtable"  } ['aalt' ('latn' <'AFK ' 'AZE ' 'CRT ' 'MOL ' 'NLD ' 'PLK ' 'ROM ' 'TRK ' 'dflt' > ) ]
Lookup: 1 0 0 "'locl' Localized Forms in Latin lookup 2" { "'locl' Localized Forms in Latin lookup 2 subtable"  } ['locl' ('latn' <'AZE ' > ) ]
Lookup: 1 0 0 "'locl' Localized Forms in Latin lookup 3" { "'locl' Localized Forms in Latin lookup 3 subtable"  } ['locl' ('latn' <'PLK ' > ) ]

StartChar: exclam
Encoding: 33 33 4
Width: 306
GlyphClass: 2
Flags: W
LayerCount: 2
Fore
SplineSet
207 195 m 1,0,-1
 180 195 l 1,1,-1
 99 277 l 1,2,-1
 79 776 l 1,3,-1
 227 776 l 1,4,-1
 207 195 l 1,0,-1
213 0 m 1,5,-1
 90 0 l 1,6,-1
 90 129 l 1,7,-1
 213 129 l 1,8,-1
 213 0 l 1,5,-1
EndSplineSet
Validated: 1
EndChar

StartChar: quotedbl
Encoding: 34 34 5
Width: 439
GlyphClass: 2
Flags: W
LayerCount: 2
Fore
SplineSet
369 662 m 1,0,-1
 284 576 l 1,1,-1
 257 576 l 1,2,-1
 257 742 l 1,3,-1
 337 821 l 1,4,-1
 369 821 l 1,5,-1
 369 662 l 1,0,-1
182 662 m 1,6,-1
 97 576 l 1,7,-1
 70 576 l 1,8,-1
 70 752 l 1,9,-1
 140 821 l 1,10,-1
 182 821 l 1,11,-1
 182 662 l 1,6,-1
EndSplineSet
Validated: 1
EndChar

StartChar: numbersign
Encoding: 35 35 6
Width: 666
GlyphClass: 2
Flags: W
LayerCount: 2
Fore
SplineSet
507 477 m 1,0,-1
 616 477 l 1,1,-1
 606 405 l 1,2,-1
 496 405 l 1,3,-1
 475 261 l 1,4,-1
 600 261 l 1,5,-1
 589 190 l 1,6,-1
 464 190 l 1,7,-1
 436 0 l 1,8,-1
 350 0 l 1,9,-1
 378 190 l 1,10,-1
 248 190 l 1,11,-1
 220 0 l 1,12,-1
 132 0 l 1,13,-1
 160 190 l 1,14,-1
 50 190 l 1,15,-1
 61 261 l 1,16,-1
 171 261 l 1,17,-1
 192 405 l 1,18,-1
 69 405 l 1,19,-1
 79 477 l 1,20,-1
 203 477 l 1,21,-1
 228 653 l 1,22,-1
 315 653 l 1,23,-1
 290 477 l 1,24,-1
 420 477 l 1,25,-1
 446 653 l 1,26,-1
 533 653 l 1,27,-1
 507 477 l 1,0,-1
279 405 m 1,28,-1
 258 261 l 1,29,-1
 389 261 l 1,30,-1
 410 405 l 1,31,-1
 279 405 l 1,28,-1
EndSplineSet
Validated: 1
EndChar

StartChar: dollar
Encoding: 36 36 7
Width: 541
GlyphClass: 2
Flags: W
LayerCount: 2
Fore
SplineSet
476 643 m 1,0,-1
 379 546 l 1,1,-1
 312 546 l 1,2,-1
 302 388 l 2,3,4
 305 387 305 387 308 386 c 0,5,6
 314 385 314 385 317 384 c 2,7,-1
 472 342 l 1,8,-1
 472 248 l 2,9,10
 472 172 472 172 453 124 c 128,-1,11
 434 76 434 76 405 48.5 c 128,-1,12
 376 21 376 21 341.5 11 c 128,-1,13
 307 1 307 1 276 0 c 1,14,-1
 271 -79 l 1,15,-1
 212 -79 l 1,16,-1
 217 0 l 1,17,-1
 61 0 l 1,18,-1
 61 9 l 1,19,-1
 160 108 l 1,20,-1
 224 108 l 1,21,-1
 237 299 l 1,22,23
 210 310 210 310 190 319.5 c 128,-1,24
 170 329 170 329 155 339.5 c 128,-1,25
 140 350 140 350 128.5 362.5 c 128,-1,26
 117 375 117 375 106 390 c 0,27,28
 84 421 84 421 73 462.5 c 128,-1,29
 62 504 62 504 62 551 c 2,30,-1
 62 594 l 1,31,-1
 121 653 l 1,32,-1
 261 653 l 1,33,-1
 266 731 l 1,34,-1
 325 731 l 1,35,-1
 320 653 l 1,36,-1
 476 653 l 1,37,-1
 476 643 l 1,0,-1
359 262 m 1,38,39
 347 265 347 265 327 270.5 c 128,-1,40
 307 276 307 276 295 280 c 1,41,-1
 283 108 l 1,42,43
 294 109 294 109 307 114 c 128,-1,44
 320 119 320 119 331.5 133 c 128,-1,45
 343 147 343 147 351 172 c 128,-1,46
 359 197 359 197 359 238 c 2,47,-1
 359 262 l 1,38,39
173 546 m 1,48,49
 173 521 173 521 175.5 499.5 c 128,-1,50
 178 478 178 478 186 464 c 0,51,52
 195 447 195 447 210 434.5 c 128,-1,53
 225 422 225 422 245 411 c 1,54,-1
 254 546 l 1,55,-1
 173 546 l 1,48,49
EndSplineSet
Validated: 1
EndChar

StartChar: percent
Encoding: 37 37 8
Width: 928
GlyphClass: 3
Flags: W
LayerCount: 2
Fore
SplineSet
381 -19 m 1,0,-1
 294 -19 l 1,1,-1
 543 671 l 1,2,-1
 630 671 l 1,3,-1
 381 -19 l 1,0,-1
367 416 m 2,4,5
 367 394 367 394 364.5 378 c 128,-1,6
 362 362 362 362 349.5 348.5 c 128,-1,7
 337 335 337 335 312 321 c 128,-1,8
 287 307 287 307 242 288 c 2,9,-1
 221 279 l 1,10,-1
 200 288 l 2,11,12
 155 307 155 307 130 321 c 128,-1,13
 105 335 105 335 92.5 348.5 c 128,-1,14
 80 362 80 362 77.5 378 c 128,-1,15
 75 394 75 394 75 416 c 2,16,-1
 75 539 l 2,17,18
 75 562 75 562 77.5 577.5 c 128,-1,19
 80 593 80 593 92.5 606.5 c 128,-1,20
 105 620 105 620 130 634 c 128,-1,21
 155 648 155 648 200 667 c 2,22,-1
 221 676 l 1,23,-1
 242 667 l 2,24,25
 287 648 287 648 312 634 c 128,-1,26
 337 620 337 620 349.5 606.5 c 128,-1,27
 362 593 362 593 364.5 577.5 c 128,-1,28
 367 562 367 562 367 539 c 2,29,-1
 367 416 l 2,4,5
220 581 m 1,30,31
 202 572 202 572 192.5 565 c 128,-1,32
 183 558 183 558 178.5 551.5 c 128,-1,33
 174 545 174 545 173 538 c 128,-1,34
 172 531 172 531 172 522 c 2,35,-1
 172 433 l 2,36,37
 172 424 172 424 173 417 c 128,-1,38
 174 410 174 410 178.5 403.5 c 128,-1,39
 183 397 183 397 192.5 390 c 128,-1,40
 202 383 202 383 220 374 c 1,41,-1
 222 374 l 1,42,43
 240 383 240 383 249.5 390 c 128,-1,44
 259 397 259 397 263.5 403.5 c 128,-1,45
 268 410 268 410 269 417 c 128,-1,46
 270 424 270 424 270 433 c 2,47,-1
 270 522 l 2,48,49
 270 531 270 531 269 538 c 128,-1,50
 268 545 268 545 263.5 551.5 c 128,-1,51
 259 558 259 558 249.5 565 c 128,-1,52
 240 572 240 572 222 581 c 1,53,-1
 220 581 l 1,30,31
853 121 m 2,54,55
 853 99 853 99 850.5 83 c 128,-1,56
 848 67 848 67 835.5 53.5 c 128,-1,57
 823 40 823 40 798 26 c 128,-1,58
 773 12 773 12 728 -7 c 2,59,-1
 707 -16 l 1,60,-1
 686 -7 l 2,61,62
 641 12 641 12 616 26 c 128,-1,63
 591 40 591 40 578.5 53.5 c 128,-1,64
 566 67 566 67 563.5 83 c 128,-1,65
 561 99 561 99 561 121 c 2,66,-1
 561 244 l 2,67,68
 561 267 561 267 563.5 282.5 c 128,-1,69
 566 298 566 298 578.5 311.5 c 128,-1,70
 591 325 591 325 616 339 c 128,-1,71
 641 353 641 353 686 372 c 2,72,-1
 707 381 l 1,73,-1
 728 372 l 2,74,75
 773 353 773 353 798 339 c 128,-1,76
 823 325 823 325 835.5 311.5 c 128,-1,77
 848 298 848 298 850.5 282.5 c 128,-1,78
 853 267 853 267 853 244 c 2,79,-1
 853 121 l 2,54,55
706 286 m 1,80,81
 688 277 688 277 678.5 270 c 128,-1,82
 669 263 669 263 664.5 256.5 c 128,-1,83
 660 250 660 250 659 243 c 128,-1,84
 658 236 658 236 658 227 c 2,85,-1
 658 138 l 2,86,87
 658 129 658 129 659 122 c 128,-1,88
 660 115 660 115 664.5 108.5 c 128,-1,89
 669 102 669 102 678.5 95 c 128,-1,90
 688 88 688 88 706 79 c 1,91,-1
 708 79 l 1,92,93
 726 88 726 88 735.5 95 c 128,-1,94
 745 102 745 102 749.5 108.5 c 128,-1,95
 754 115 754 115 755 122 c 128,-1,96
 756 129 756 129 756 138 c 2,97,-1
 756 227 l 2,98,99
 756 236 756 236 755 243 c 128,-1,100
 754 250 754 250 749.5 256.5 c 128,-1,101
 745 263 745 263 735.5 270 c 128,-1,102
 726 277 726 277 708 286 c 1,103,-1
 706 286 l 1,80,81
EndSplineSet
Validated: 1
Ligature2: "Ligature Substitution lookup 27 subtable" zero fraction zero
EndChar

StartChar: ampersand
Encoding: 38 38 9
Width: 803
GlyphClass: 2
Flags: W
LayerCount: 2
Fore
SplineSet
554 673 m 2,0,1
 554 627 554 627 546.5 587 c 128,-1,2
 539 547 539 547 520.5 513.5 c 128,-1,3
 502 480 502 480 470.5 452 c 128,-1,4
 439 424 439 424 391 401 c 2,5,-1
 347 380 l 1,6,7
 355 368 355 368 372.5 349.5 c 128,-1,8
 390 331 390 331 412.5 311.5 c 128,-1,9
 435 292 435 292 460.5 272 c 128,-1,10
 486 252 486 252 510 237 c 1,11,-1
 528 263 l 2,12,13
 555 302 555 302 573 330.5 c 128,-1,14
 591 359 591 359 602 378 c 0,15,16
 615 400 615 400 623 416 c 1,17,-1
 733 416 l 1,18,-1
 733 391 l 1,19,20
 720 368 720 368 703 339 c 0,21,22
 687 312 687 312 665.5 279 c 128,-1,23
 644 246 644 246 616 205 c 2,24,-1
 598 179 l 1,25,-1
 726 97 l 1,26,-1
 726 -16 l 1,27,-1
 703 -16 l 1,28,-1
 531 97 l 1,29,-1
 459 0 l 1,30,-1
 372 0 l 2,31,32
 275 0 275 0 219 24.5 c 128,-1,33
 163 49 163 49 134.5 89 c 128,-1,34
 106 129 106 129 98 180.5 c 128,-1,35
 90 232 90 232 90 286 c 2,36,-1
 90 374 l 1,37,-1
 196 420 l 1,38,39
 182 449 182 449 174 481 c 128,-1,40
 166 513 166 513 166 563 c 2,41,-1
 166 713 l 1,42,-1
 224 769 l 1,43,-1
 554 769 l 1,44,-1
 554 673 l 2,0,1
206 318 m 1,45,-1
 206 275 l 2,46,47
 206 244 206 244 208.5 222.5 c 128,-1,48
 211 201 211 201 217 186 c 128,-1,49
 223 171 223 171 231.5 161 c 128,-1,50
 240 151 240 151 252 142 c 0,51,52
 278 123 278 123 305.5 114 c 128,-1,53
 333 105 333 105 354 105 c 2,54,-1
 403 105 l 1,55,-1
 443 153 l 1,56,57
 413 173 413 173 383 195.5 c 128,-1,58
 353 218 353 218 326.5 242 c 128,-1,59
 300 266 300 266 278.5 289.5 c 128,-1,60
 257 313 257 313 242 335 c 1,61,-1
 206 318 l 1,45,-1
282 657 m 1,62,-1
 282 537 l 2,63,64
 282 517 282 517 286 498.5 c 128,-1,65
 290 480 290 480 298 465 c 1,66,-1
 335 482 l 2,67,68
 368 497 368 497 388 515.5 c 128,-1,69
 408 534 408 534 419 555.5 c 128,-1,70
 430 577 430 577 434 602.5 c 128,-1,71
 438 628 438 628 438 657 c 1,72,-1
 282 657 l 1,62,-1
EndSplineSet
Validated: 1
EndChar

StartChar: quotesingle
Encoding: 39 39 10
Width: 252
GlyphClass: 2
Flags: W
LayerCount: 2
Fore
SplineSet
182 662 m 1,0,-1
 97 576 l 1,1,-1
 70 576 l 1,2,-1
 70 752 l 1,3,-1
 140 821 l 1,4,-1
 182 821 l 1,5,-1
 182 662 l 1,0,-1
EndSplineSet
Validated: 1
EndChar

StartChar: parenleft
Encoding: 40 40 11
Width: 298
GlyphClass: 2
Flags: W
LayerCount: 2
Fore
SplineSet
284 745 m 1,0,1
 254 725 254 725 225.5 700 c 128,-1,2
 197 675 197 675 182 652 c 0,3,4
 168 632 168 632 162 602 c 128,-1,5
 156 572 156 572 156 518 c 2,6,-1
 156 184 l 2,7,8
 156 130 156 130 162 100 c 128,-1,9
 168 70 168 70 182 50 c 0,10,11
 197 27 197 27 225.5 2 c 128,-1,12
 254 -23 254 -23 284 -43 c 1,13,-1
 236 -110 l 1,14,15
 180 -78 180 -78 142 -42.5 c 128,-1,16
 104 -7 104 -7 84 28 c 0,17,18
 75 45 75 45 68.5 60 c 128,-1,19
 62 75 62 75 58 93 c 128,-1,20
 54 111 54 111 52 135 c 128,-1,21
 50 159 50 159 50 194 c 2,22,-1
 50 508 l 2,23,24
 50 543 50 543 52 567 c 128,-1,25
 54 591 54 591 58 609 c 128,-1,26
 62 627 62 627 68.5 642 c 128,-1,27
 75 657 75 657 84 674 c 0,28,29
 104 709 104 709 142 744.5 c 128,-1,30
 180 780 180 780 236 812 c 1,31,-1
 284 745 l 1,0,1
EndSplineSet
Validated: 1
EndChar

StartChar: parenright
Encoding: 41 41 12
Width: 298
GlyphClass: 2
Flags: W
LayerCount: 2
Fore
SplineSet
62 812 m 1,0,1
 118 780 118 780 156 744.5 c 128,-1,2
 194 709 194 709 214 674 c 0,3,4
 223 657 223 657 229.5 642 c 128,-1,5
 236 627 236 627 240 609 c 128,-1,6
 244 591 244 591 246 567 c 128,-1,7
 248 543 248 543 248 508 c 2,8,-1
 248 194 l 2,9,10
 248 159 248 159 246 135 c 128,-1,11
 244 111 244 111 240 93 c 128,-1,12
 236 75 236 75 229.5 60 c 128,-1,13
 223 45 223 45 214 28 c 0,14,15
 194 -7 194 -7 156 -42.5 c 128,-1,16
 118 -78 118 -78 62 -110 c 1,17,-1
 14 -43 l 1,18,19
 44 -23 44 -23 72.5 2 c 128,-1,20
 101 27 101 27 116 50 c 0,21,22
 130 70 130 70 136 100 c 128,-1,23
 142 130 142 130 142 184 c 2,24,-1
 142 518 l 2,25,26
 142 572 142 572 136 602 c 128,-1,27
 130 632 130 632 116 652 c 0,28,29
 101 675 101 675 72.5 700 c 128,-1,30
 44 725 44 725 14 745 c 1,31,-1
 62 812 l 1,0,1
EndSplineSet
Validated: 1
EndChar

StartChar: asterisk
Encoding: 42 42 13
Width: 520
GlyphClass: 2
Flags: W
LayerCount: 2
Fore
SplineSet
460 625 m 1,0,-1
 307 577 l 1,1,-1
 350 552 l 1,2,-1
 412 471 l 1,3,-1
 343 420 l 1,4,-1
 249 551 l 1,5,-1
 239 502 l 1,6,-1
 181 418 l 1,7,-1
 112 468 l 1,8,-1
 207 597 l 1,9,-1
 157 592 l 1,10,-1
 60 621 l 1,11,-1
 86 702 l 1,12,-1
 238 652 l 1,13,-1
 217 697 l 1,14,-1
 215 800 l 1,15,-1
 301 800 l 1,16,-1
 298 639 l 1,17,-1
 336 673 l 1,18,-1
 433 707 l 1,19,-1
 460 625 l 1,0,-1
EndSplineSet
Validated: 1
EndChar

StartChar: plus
Encoding: 43 43 14
Width: 541
GlyphClass: 2
Flags: W
LayerCount: 2
Fore
SplineSet
481 340 m 1,0,-1
 424 284 l 1,1,-1
 313 284 l 1,2,-1
 313 143 l 1,3,-1
 291 120 l 1,4,-1
 227 120 l 1,5,-1
 227 284 l 1,6,-1
 60 284 l 1,7,-1
 60 312 l 1,8,-1
 117 368 l 1,9,-1
 227 368 l 1,10,-1
 227 504 l 1,11,-1
 249 527 l 1,12,-1
 313 527 l 1,13,-1
 313 368 l 1,14,-1
 481 368 l 1,15,-1
 481 340 l 1,0,-1
EndSplineSet
Validated: 1
EndChar

StartChar: comma
Encoding: 44 44 15
Width: 252
GlyphClass: 2
Flags: W
LayerCount: 2
Fore
SplineSet
192 8 m 1,0,-1
 97 -88 l 1,1,-1
 70 -88 l 1,2,-1
 70 68 l 1,3,-1
 140 137 l 1,4,-1
 192 137 l 1,5,-1
 192 8 l 1,0,-1
EndSplineSet
Validated: 1
EndChar

StartChar: hyphen
Encoding: 45 45 16
Width: 388
GlyphClass: 2
Flags: W
LayerCount: 2
Fore
SplineSet
348 347 m 1,0,-1
 284 284 l 1,1,-1
 40 284 l 1,2,-1
 40 312 l 1,3,-1
 104 375 l 1,4,-1
 348 375 l 1,5,-1
 348 347 l 1,0,-1
EndSplineSet
Validated: 1
Substitution2: "'frac' Diagonal Fractions in Latin lookup 10 subtable" minus
Substitution2: "'aalt' Access All Alternates in Latin lookup 0 subtable" minus
EndChar

StartChar: period
Encoding: 46 46 17
Width: 248
GlyphClass: 2
Flags: W
LayerCount: 2
Fore
SplineSet
198 0 m 1,0,-1
 97 0 l 1,1,-1
 70 0 l 1,2,-1
 70 134 l 1,3,-1
 128 134 l 1,4,-1
 198 134 l 1,5,-1
 198 0 l 1,0,-1
EndSplineSet
Validated: 1
EndChar

StartChar: slash
Encoding: 47 47 18
Width: 447
GlyphClass: 2
Flags: W
LayerCount: 2
Fore
SplineSet
125 -19 m 1,0,-1
 25 -19 l 1,1,-1
 312 775 l 1,2,-1
 412 775 l 1,3,-1
 125 -19 l 1,0,-1
EndSplineSet
Validated: 1
Substitution2: "'frac' Diagonal Fractions in Latin lookup 13 subtable" fraction
Substitution2: "'aalt' Access All Alternates in Latin lookup 0 subtable" fraction
EndChar

StartChar: zero
Encoding: 48 48 19
Width: 488
GlyphClass: 2
Flags: W
LayerCount: 2
Fore
SplineSet
243 552 m 1,0,1
 218 541 218 541 203.5 533 c 128,-1,2
 189 525 189 525 182.5 517.5 c 128,-1,3
 176 510 176 510 174.5 501.5 c 128,-1,4
 173 493 173 493 173 481 c 2,5,-1
 173 170 l 2,6,7
 173 158 173 158 174.5 149.5 c 128,-1,8
 176 141 176 141 182.5 133.5 c 128,-1,9
 189 126 189 126 203.5 118 c 128,-1,10
 218 110 218 110 243 99 c 1,11,-1
 245 99 l 1,12,13
 271 110 271 110 285 118 c 128,-1,14
 299 126 299 126 305.5 133.5 c 128,-1,15
 312 141 312 141 313.5 149.5 c 128,-1,16
 315 158 315 158 315 170 c 2,17,-1
 315 481 l 2,18,19
 315 493 315 493 313.5 501.5 c 128,-1,20
 312 510 312 510 305.5 517.5 c 128,-1,21
 299 525 299 525 285 533 c 128,-1,22
 271 541 271 541 245 552 c 1,23,-1
 243 552 l 1,0,1
271 662 m 2,24,25
 329 636 329 636 361.5 618 c 128,-1,26
 394 600 394 600 410 580.5 c 128,-1,27
 426 561 426 561 429.5 535.5 c 128,-1,28
 433 510 433 510 433 471 c 2,29,-1
 433 180 l 2,30,31
 433 141 433 141 429.5 116 c 128,-1,32
 426 91 426 91 410 71.5 c 128,-1,33
 394 52 394 52 361.5 33.5 c 128,-1,34
 329 15 329 15 271 -11 c 2,35,-1
 244 -23 l 1,36,-1
 217 -11 l 2,37,38
 159 15 159 15 126 33.5 c 128,-1,39
 93 52 93 52 77.5 71.5 c 128,-1,40
 62 91 62 91 58.5 116 c 128,-1,41
 55 141 55 141 55 180 c 2,42,-1
 55 471 l 2,43,44
 55 510 55 510 58.5 535.5 c 128,-1,45
 62 561 62 561 77.5 580.5 c 128,-1,46
 93 600 93 600 126 618 c 128,-1,47
 159 636 159 636 217 662 c 2,48,-1
 244 674 l 1,49,-1
 271 662 l 2,24,25
EndSplineSet
Validated: 1
Substitution2: "'onum' Oldstyle Figures in Latin lookup 24 subtable" zero.osf
Substitution2: "'frac' Diagonal Fractions in Latin lookup 11 subtable" zero.numerator
AlternateSubs2: "'aalt' Access All Alternates in Latin lookup 1 subtable" zero.numerator zero.osf
EndChar

StartChar: one
Encoding: 49 49 20
Width: 298
GlyphClass: 2
Flags: W
LayerCount: 2
Fore
SplineSet
238 -25 m 1,0,-1
 213 -25 l 1,1,-1
 122 67 l 1,2,-1
 122 540 l 1,3,-1
 10 540 l 1,4,-1
 10 549 l 1,5,-1
 114 653 l 1,6,-1
 238 653 l 1,7,-1
 238 -25 l 1,0,-1
EndSplineSet
Validated: 1
Substitution2: "'onum' Oldstyle Figures in Latin lookup 24 subtable" one.osf
Substitution2: "'frac' Diagonal Fractions in Latin lookup 11 subtable" one.numerator
AlternateSubs2: "'aalt' Access All Alternates in Latin lookup 1 subtable" one.numerator one.osf
EndChar

StartChar: two
Encoding: 50 50 21
Width: 474
GlyphClass: 2
Flags: W
LayerCount: 2
Fore
SplineSet
429 517 m 2,0,1
 429 472 429 472 425 435.5 c 128,-1,2
 421 399 421 399 407.5 367.5 c 128,-1,3
 394 336 394 336 368.5 307 c 128,-1,4
 343 278 343 278 301 248 c 2,5,-1
 190 168 l 2,6,7
 179 160 179 160 176.5 154 c 128,-1,8
 174 148 174 148 174 140 c 2,9,-1
 174 106 l 1,10,-1
 314 106 l 1,11,-1
 314 163 l 1,12,-1
 340 163 l 1,13,-1
 427 76 l 1,14,-1
 427 0 l 1,15,-1
 56 0 l 1,16,-1
 56 171 l 2,17,18
 56 194 56 194 58.5 205.5 c 128,-1,19
 61 217 61 217 81 231 c 2,20,-1
 207 322 l 2,21,22
 243 349 243 349 263.5 365.5 c 128,-1,23
 284 382 284 382 294 400 c 128,-1,24
 304 418 304 418 306.5 442.5 c 128,-1,25
 309 467 309 467 309 508 c 2,26,-1
 309 543 l 1,27,-1
 165 543 l 1,28,-1
 165 493 l 1,29,-1
 5 653 l 1,30,-1
 429 653 l 1,31,-1
 429 517 l 2,0,1
EndSplineSet
Validated: 1
Substitution2: "'onum' Oldstyle Figures in Latin lookup 24 subtable" two.osf
Substitution2: "'frac' Diagonal Fractions in Latin lookup 11 subtable" two.numerator
AlternateSubs2: "'aalt' Access All Alternates in Latin lookup 1 subtable" two.numerator two.osf
EndChar

StartChar: three
Encoding: 51 51 22
Width: 494
GlyphClass: 2
Flags: W
LayerCount: 2
Fore
SplineSet
416 546 m 2,0,1
 416 492 416 492 399.5 452.5 c 128,-1,2
 383 413 383 413 350 381 c 1,3,-1
 449 348 l 1,4,-1
 449 300 l 2,5,6
 449 228 449 228 433.5 172 c 128,-1,7
 418 116 418 116 380.5 77.5 c 128,-1,8
 343 39 343 39 280.5 19.5 c 128,-1,9
 218 0 218 0 125 0 c 2,10,-1
 75 0 l 1,11,-1
 75 86 l 1,12,-1
 162 173 l 1,13,-1
 188 173 l 1,14,-1
 188 105 l 1,15,16
 271 116 271 116 302 160.5 c 128,-1,17
 333 205 333 205 333 275 c 2,18,-1
 333 280 l 1,19,-1
 198 328 l 1,20,-1
 198 355 l 1,21,-1
 220 375 l 2,22,23
 247 399 247 399 262.5 419 c 128,-1,24
 278 439 278 439 286.5 458.5 c 128,-1,25
 295 478 295 478 297.5 498.5 c 128,-1,26
 300 519 300 519 300 543 c 1,27,-1
 165 543 l 1,28,-1
 165 493 l 1,29,-1
 5 653 l 1,30,-1
 416 653 l 1,31,-1
 416 546 l 2,0,1
EndSplineSet
Validated: 1
Substitution2: "'onum' Oldstyle Figures in Latin lookup 24 subtable" three.osf
Substitution2: "'frac' Diagonal Fractions in Latin lookup 11 subtable" three.numerator
AlternateSubs2: "'aalt' Access All Alternates in Latin lookup 1 subtable" three.numerator three.osf
EndChar

StartChar: four
Encoding: 52 52 23
Width: 436
GlyphClass: 2
Flags: W
LayerCount: 2
Fore
SplineSet
158 268 m 1,0,-1
 273 268 l 1,1,-1
 273 351 l 1,2,-1
 330 410 l 1,3,-1
 386 410 l 1,4,-1
 386 -25 l 1,5,-1
 363 -25 l 1,6,-1
 272 67 l 1,7,-1
 272 164 l 1,8,-1
 10 164 l 1,9,-1
 158 661 l 1,10,-1
 276 661 l 1,11,-1
 158 268 l 1,0,-1
EndSplineSet
Validated: 1
Substitution2: "'onum' Oldstyle Figures in Latin lookup 24 subtable" four.osf
Substitution2: "'frac' Diagonal Fractions in Latin lookup 11 subtable" four.numerator
AlternateSubs2: "'aalt' Access All Alternates in Latin lookup 1 subtable" four.numerator four.osf
EndChar

StartChar: five
Encoding: 53 53 24
Width: 459
GlyphClass: 2
Flags: W
LayerCount: 2
Fore
SplineSet
429 644 m 1,0,-1
 325 540 l 1,1,-1
 174 540 l 1,2,-1
 174 423 l 1,3,-1
 414 370 l 1,4,-1
 414 300 l 2,5,6
 414 228 414 228 398.5 172 c 128,-1,7
 383 116 383 116 345.5 77.5 c 128,-1,8
 308 39 308 39 245.5 19.5 c 128,-1,9
 183 0 183 0 90 0 c 2,10,-1
 40 0 l 1,11,-1
 40 86 l 1,12,-1
 127 173 l 1,13,-1
 153 173 l 1,14,-1
 153 105 l 1,15,16
 236 116 236 116 267 160.5 c 128,-1,17
 298 205 298 205 298 275 c 2,18,-1
 298 287 l 1,19,-1
 57 340 l 1,20,-1
 57 594 l 1,21,-1
 114 653 l 1,22,-1
 429 653 l 1,23,-1
 429 644 l 1,0,-1
EndSplineSet
Validated: 1
Substitution2: "'onum' Oldstyle Figures in Latin lookup 24 subtable" five.osf
Substitution2: "'frac' Diagonal Fractions in Latin lookup 11 subtable" five.numerator
AlternateSubs2: "'aalt' Access All Alternates in Latin lookup 1 subtable" five.numerator five.osf
EndChar

StartChar: six
Encoding: 54 54 25
Width: 473
GlyphClass: 2
Flags: W
LayerCount: 2
Fore
SplineSet
233 308 m 1,0,-1
 166 287 l 1,1,-1
 166 166 l 2,2,3
 166 154 166 154 167.5 145.5 c 128,-1,4
 169 137 169 137 176 129.5 c 128,-1,5
 183 122 183 122 197.5 114 c 128,-1,6
 212 106 212 106 238 95 c 1,7,-1
 240 95 l 1,8,9
 266 106 266 106 280.5 114 c 128,-1,10
 295 122 295 122 302 129.5 c 128,-1,11
 309 137 309 137 310.5 145.5 c 128,-1,12
 312 154 312 154 312 166 c 2,13,-1
 312 235 l 2,14,15
 312 247 312 247 310 255.5 c 128,-1,16
 308 264 308 264 300 272 c 128,-1,17
 292 280 292 280 276.5 288.5 c 128,-1,18
 261 297 261 297 235 308 c 1,19,-1
 233 308 l 1,0,-1
189 389 m 1,20,-1
 190 387 l 1,21,-1
 265 416 l 1,22,-1
 294 403 l 2,23,24
 342 381 342 381 369 365 c 128,-1,25
 396 349 396 349 409 330.5 c 128,-1,26
 422 312 422 312 425 287 c 128,-1,27
 428 262 428 262 428 223 c 2,28,-1
 428 180 l 2,29,30
 428 141 428 141 424.5 116 c 128,-1,31
 421 91 421 91 405 71.5 c 128,-1,32
 389 52 389 52 356.5 33.5 c 128,-1,33
 324 15 324 15 266 -11 c 2,34,-1
 239 -23 l 1,35,-1
 212 -11 l 2,36,37
 154 15 154 15 121 33.5 c 128,-1,38
 88 52 88 52 72.5 71.5 c 128,-1,39
 57 91 57 91 53.5 116 c 128,-1,40
 50 141 50 141 50 180 c 2,41,-1
 50 255 l 2,42,43
 50 298 50 298 55 329.5 c 128,-1,44
 60 361 60 361 76 401 c 2,45,-1
 179 661 l 1,46,-1
 299 661 l 1,47,-1
 189 389 l 1,20,-1
EndSplineSet
Validated: 1
Substitution2: "'onum' Oldstyle Figures in Latin lookup 24 subtable" six.osf
Substitution2: "'frac' Diagonal Fractions in Latin lookup 11 subtable" six.numerator
AlternateSubs2: "'aalt' Access All Alternates in Latin lookup 1 subtable" six.numerator six.osf
EndChar

StartChar: seven
Encoding: 55 55 26
Width: 451
GlyphClass: 2
Flags: W
LayerCount: 2
Fore
SplineSet
209 0 m 1,0,-1
 90 0 l 1,1,-1
 274 547 l 1,2,-1
 107 547 l 1,3,-1
 10 644 l 1,4,-1
 10 653 l 1,5,-1
 426 653 l 1,6,-1
 209 0 l 1,0,-1
EndSplineSet
Validated: 1
Substitution2: "'onum' Oldstyle Figures in Latin lookup 24 subtable" seven.osf
Substitution2: "'frac' Diagonal Fractions in Latin lookup 11 subtable" seven.numerator
AlternateSubs2: "'aalt' Access All Alternates in Latin lookup 1 subtable" seven.numerator seven.osf
EndChar

StartChar: eight
Encoding: 56 56 27
Width: 488
GlyphClass: 2
Flags: W
LayerCount: 2
Fore
SplineSet
271 662 m 2,0,1
 329 636 329 636 361.5 618 c 128,-1,2
 394 600 394 600 410 580.5 c 128,-1,3
 426 561 426 561 429.5 535.5 c 128,-1,4
 433 510 433 510 433 471 c 2,5,-1
 433 421 l 2,6,7
 433 403 433 403 432 391 c 128,-1,8
 431 379 431 379 425 370 c 128,-1,9
 419 361 419 361 406.5 352.5 c 128,-1,10
 394 344 394 344 371 333 c 1,11,-1
 371 331 l 1,12,13
 394 319 394 319 406.5 310.5 c 128,-1,14
 419 302 419 302 425 292.5 c 128,-1,15
 431 283 431 283 432 271.5 c 128,-1,16
 433 260 433 260 433 242 c 2,17,-1
 433 180 l 2,18,19
 433 141 433 141 429.5 116 c 128,-1,20
 426 91 426 91 410 71.5 c 128,-1,21
 394 52 394 52 361.5 33.5 c 128,-1,22
 329 15 329 15 271 -11 c 2,23,-1
 244 -23 l 1,24,-1
 217 -11 l 2,25,26
 159 15 159 15 126 33.5 c 128,-1,27
 93 52 93 52 77.5 71.5 c 128,-1,28
 62 91 62 91 58.5 116 c 128,-1,29
 55 141 55 141 55 180 c 2,30,-1
 55 242 l 2,31,32
 55 260 55 260 56 271.5 c 128,-1,33
 57 283 57 283 63 292 c 128,-1,34
 69 301 69 301 81.5 309.5 c 128,-1,35
 94 318 94 318 117 330 c 1,36,-1
 117 332 l 1,37,38
 94 344 94 344 81.5 352.5 c 128,-1,39
 69 361 69 361 63 370 c 128,-1,40
 57 379 57 379 56 391 c 128,-1,41
 55 403 55 403 55 421 c 2,42,-1
 55 471 l 2,43,44
 55 510 55 510 58.5 535.5 c 128,-1,45
 62 561 62 561 77.5 580.5 c 128,-1,46
 93 600 93 600 126 618 c 128,-1,47
 159 636 159 636 217 662 c 2,48,-1
 244 674 l 1,49,-1
 271 662 l 2,0,1
243 294 m 1,50,51
 216 279 216 279 201.5 270 c 128,-1,52
 187 261 187 261 180 254.5 c 128,-1,53
 173 248 173 248 172 240.5 c 128,-1,54
 171 233 171 233 171 221 c 2,55,-1
 171 166 l 2,56,57
 171 154 171 154 172.5 145.5 c 128,-1,58
 174 137 174 137 181 129.5 c 128,-1,59
 188 122 188 122 202.5 114 c 128,-1,60
 217 106 217 106 243 95 c 1,61,-1
 245 95 l 1,62,63
 271 106 271 106 285.5 114 c 128,-1,64
 300 122 300 122 307 129.5 c 128,-1,65
 314 137 314 137 315.5 145.5 c 128,-1,66
 317 154 317 154 317 166 c 2,67,-1
 317 221 l 2,68,69
 317 233 317 233 316 240 c 128,-1,70
 315 247 315 247 308.5 254 c 128,-1,71
 302 261 302 261 287 270 c 128,-1,72
 272 279 272 279 245 294 c 1,73,-1
 243 294 l 1,50,51
243 554 m 1,74,75
 217 543 217 543 202.5 535 c 128,-1,76
 188 527 188 527 181 519.5 c 128,-1,77
 174 512 174 512 172.5 503.5 c 128,-1,78
 171 495 171 495 171 483 c 2,79,-1
 171 436 l 2,80,81
 171 424 171 424 172 417 c 128,-1,82
 173 410 173 410 180 403.5 c 128,-1,83
 187 397 187 397 201.5 388.5 c 128,-1,84
 216 380 216 380 243 366 c 1,85,-1
 245 366 l 1,86,87
 272 380 272 380 286.5 388.5 c 128,-1,88
 301 397 301 397 308 403.5 c 128,-1,89
 315 410 315 410 316 417 c 128,-1,90
 317 424 317 424 317 436 c 2,91,-1
 317 483 l 2,92,93
 317 495 317 495 315.5 503.5 c 128,-1,94
 314 512 314 512 307 519.5 c 128,-1,95
 300 527 300 527 285.5 535 c 128,-1,96
 271 543 271 543 245 554 c 1,97,-1
 243 554 l 1,74,75
EndSplineSet
Validated: 1
Substitution2: "'onum' Oldstyle Figures in Latin lookup 24 subtable" eight.osf
Substitution2: "'frac' Diagonal Fractions in Latin lookup 11 subtable" eight.numerator
AlternateSubs2: "'aalt' Access All Alternates in Latin lookup 1 subtable" eight.numerator eight.osf
EndChar

StartChar: nine
Encoding: 57 57 28
Width: 473
GlyphClass: 2
Flags: W
LayerCount: 2
Fore
SplineSet
233 556 m 1,0,1
 207 545 207 545 192.5 537 c 128,-1,2
 178 529 178 529 171 521.5 c 128,-1,3
 164 514 164 514 162.5 505.5 c 128,-1,4
 161 497 161 497 161 485 c 2,5,-1
 161 426 l 2,6,7
 161 414 161 414 163 405 c 128,-1,8
 165 396 165 396 172 388.5 c 128,-1,9
 179 381 179 381 191.5 373.5 c 128,-1,10
 204 366 204 366 226 357 c 1,11,-1
 228 357 l 1,12,-1
 307 374 l 1,13,-1
 307 485 l 2,14,15
 307 497 307 497 305.5 505.5 c 128,-1,16
 304 514 304 514 297 521.5 c 128,-1,17
 290 529 290 529 275.5 537 c 128,-1,18
 261 545 261 545 235 556 c 1,19,-1
 233 556 l 1,0,1
261 662 m 2,20,21
 320 636 320 636 352.5 618 c 128,-1,22
 385 600 385 600 400.5 580.5 c 128,-1,23
 416 561 416 561 419.5 535.5 c 128,-1,24
 423 510 423 510 423 471 c 2,25,-1
 423 414 l 1,26,-1
 423 339 l 1,27,-1
 294 0 l 1,28,-1
 174 0 l 1,29,-1
 283 279 l 1,30,-1
 278 282 l 1,31,-1
 195 251 l 1,32,-1
 162 266 l 2,33,34
 121 285 121 285 97.5 299.5 c 128,-1,35
 74 314 74 314 62.5 331.5 c 128,-1,36
 51 349 51 349 48 374 c 128,-1,37
 45 399 45 399 45 438 c 2,38,-1
 45 471 l 2,39,40
 45 510 45 510 48.5 535.5 c 128,-1,41
 52 561 52 561 68 580.5 c 128,-1,42
 84 600 84 600 116.5 618 c 128,-1,43
 149 636 149 636 207 662 c 2,44,-1
 234 674 l 1,45,-1
 261 662 l 2,20,21
EndSplineSet
Validated: 1
Substitution2: "'onum' Oldstyle Figures in Latin lookup 24 subtable" nine.osf
Substitution2: "'frac' Diagonal Fractions in Latin lookup 11 subtable" nine.numerator
AlternateSubs2: "'aalt' Access All Alternates in Latin lookup 1 subtable" nine.numerator nine.osf
EndChar

StartChar: colon
Encoding: 58 58 29
Width: 258
GlyphClass: 2
Flags: W
LayerCount: 2
Fore
SplineSet
198 0 m 1,0,-1
 97 0 l 1,1,-1
 70 0 l 1,2,-1
 70 137 l 1,3,-1
 128 137 l 1,4,-1
 198 137 l 1,5,-1
 198 0 l 1,0,-1
198 340 m 1,6,-1
 171 340 l 1,7,-1
 70 340 l 1,8,-1
 70 408 l 1,9,-1
 140 477 l 1,10,-1
 198 477 l 1,11,-1
 198 340 l 1,6,-1
EndSplineSet
Validated: 1
EndChar

StartChar: semicolon
Encoding: 59 59 30
Width: 252
GlyphClass: 2
Flags: W
LayerCount: 2
Fore
SplineSet
198 8 m 1,0,-1
 103 -88 l 1,1,-1
 76 -88 l 1,2,-1
 76 117 l 1,3,-1
 146 117 l 1,4,-1
 198 117 l 1,5,-1
 198 8 l 1,0,-1
198 340 m 1,6,-1
 171 340 l 1,7,-1
 70 340 l 1,8,-1
 70 408 l 1,9,-1
 140 477 l 1,10,-1
 198 477 l 1,11,-1
 198 340 l 1,6,-1
EndSplineSet
Validated: 1
EndChar

StartChar: less
Encoding: 60 60 31
Width: 541
GlyphClass: 2
Flags: W
LayerCount: 2
Fore
SplineSet
448 457 m 1,0,-1
 193 330 l 1,1,-1
 448 204 l 1,2,-1
 448 176 l 1,3,-1
 389 134 l 1,4,-1
 100 287 l 1,5,-1
 100 371 l 1,6,-1
 391 525 l 1,7,-1
 448 485 l 1,8,-1
 448 457 l 1,0,-1
EndSplineSet
Validated: 1
EndChar

StartChar: equal
Encoding: 61 61 32
Width: 541
GlyphClass: 2
Flags: W
LayerCount: 2
Fore
SplineSet
453 402 m 1,0,-1
 423 372 l 1,1,-1
 87 372 l 1,2,-1
 87 404 l 1,3,-1
 144 460 l 1,4,-1
 453 460 l 1,5,-1
 453 402 l 1,0,-1
453 249 m 1,6,-1
 394 192 l 1,7,-1
 87 192 l 1,8,-1
 87 250 l 1,9,-1
 117 280 l 1,10,-1
 453 280 l 1,11,-1
 453 249 l 1,6,-1
EndSplineSet
Validated: 1
EndChar

StartChar: greater
Encoding: 62 62 33
Width: 541
GlyphClass: 2
Flags: W
LayerCount: 2
Fore
SplineSet
93 202 m 1,0,-1
 348 329 l 1,1,-1
 93 455 l 1,2,-1
 93 483 l 1,3,-1
 152 525 l 1,4,-1
 441 372 l 1,5,-1
 441 288 l 1,6,-1
 150 134 l 1,7,-1
 93 174 l 1,8,-1
 93 202 l 1,0,-1
EndSplineSet
Validated: 1
EndChar

StartChar: question
Encoding: 63 63 34
Width: 500
GlyphClass: 2
Flags: W
LayerCount: 2
Fore
SplineSet
263 0 m 1,0,-1
 140 0 l 1,1,-1
 140 129 l 1,2,-1
 263 129 l 1,3,-1
 263 0 l 1,0,-1
465 651 m 2,4,5
 465 596 465 596 456.5 544.5 c 128,-1,6
 448 493 448 493 427 455 c 0,7,8
 413 430 413 430 397.5 411.5 c 128,-1,9
 382 393 382 393 362 378.5 c 128,-1,10
 342 364 342 364 315 352 c 128,-1,11
 288 340 288 340 250 328 c 1,12,-1
 250 205 l 1,13,-1
 223 205 l 1,14,-1
 138 288 l 1,15,-1
 138 405 l 1,16,-1
 199 424 l 2,17,18
 255 441 255 441 284 468.5 c 128,-1,19
 313 496 313 496 324 526 c 0,20,21
 333 551 333 551 336.5 578.5 c 128,-1,22
 340 606 340 606 340 637 c 2,23,-1
 340 656 l 1,24,-1
 178 656 l 1,25,-1
 178 592 l 1,26,-1
 0 768 l 1,27,-1
 395 768 l 1,28,-1
 465 768 l 1,29,-1
 465 651 l 2,4,5
EndSplineSet
Validated: 1
EndChar

StartChar: at
Encoding: 64 64 35
Width: 900
GlyphClass: 2
Flags: W
LayerCount: 2
Fore
SplineSet
450 502 m 1,0,1
 425 483 425 483 410 464 c 128,-1,2
 395 445 395 445 386.5 424.5 c 128,-1,3
 378 404 378 404 375 381.5 c 128,-1,4
 372 359 372 359 372 332 c 2,5,-1
 372 288 l 2,6,7
 372 259 372 259 375 236.5 c 128,-1,8
 378 214 378 214 387 196 c 128,-1,9
 396 178 396 178 411.5 162 c 128,-1,10
 427 146 427 146 452 129 c 1,11,-1
 510 161 l 1,12,13
 516 176 516 176 520 189.5 c 128,-1,14
 524 203 524 203 526.5 221 c 128,-1,15
 529 239 529 239 529.5 265 c 128,-1,16
 530 291 530 291 530 331 c 0,17,18
 530 388 530 388 513 427 c 128,-1,19
 496 466 496 466 451 502 c 1,20,-1
 450 502 l 1,0,1
620 774 m 2,21,22
 688 732 688 732 728 692.5 c 128,-1,23
 768 653 768 653 788.5 613.5 c 128,-1,24
 809 574 809 574 814.5 533.5 c 128,-1,25
 820 493 820 493 820 450 c 2,26,-1
 820 70 l 1,27,-1
 762 14 l 1,28,-1
 579 14 l 1,29,-1
 536 67 l 1,30,-1
 436 17 l 1,31,-1
 412 30 l 2,32,33
 327 76 327 76 295 140 c 128,-1,34
 263 204 263 204 263 285 c 2,35,-1
 263 320 l 2,36,37
 263 362 263 362 266.5 399.5 c 128,-1,38
 270 437 270 437 286.5 473 c 128,-1,39
 303 509 303 509 337.5 544.5 c 128,-1,40
 372 580 372 580 434 619 c 2,41,-1
 450 629 l 1,42,-1
 467 619 l 2,43,44
 527 583 527 583 561.5 547.5 c 128,-1,45
 596 512 596 512 612.5 475 c 128,-1,46
 629 438 629 438 633 400 c 128,-1,47
 637 362 637 362 637 322 c 0,48,49
 637 281 637 281 636 255 c 128,-1,50
 635 229 635 229 633 209.5 c 128,-1,51
 631 190 631 190 627.5 174.5 c 128,-1,52
 624 159 624 159 619 139 c 1,53,-1
 653 92 l 1,54,-1
 705 93 l 1,55,-1
 706 460 l 2,56,57
 706 492 706 492 700.5 518.5 c 128,-1,58
 695 545 695 545 682.5 569 c 128,-1,59
 670 593 670 593 649 616 c 128,-1,60
 628 639 628 639 597 663 c 2,61,-1
 571 683 l 1,62,-1
 195 683 l 1,63,-1
 195 203 l 2,64,65
 195 141 195 141 210.5 101.5 c 128,-1,66
 226 62 226 62 256 31 c 0,67,68
 284 2 284 2 326.5 -15 c 128,-1,69
 369 -32 369 -32 407 -39 c 2,70,-1
 465 -49 l 1,71,-1
 465 -151 l 1,72,-1
 379 -135 l 2,73,74
 222 -107 222 -107 151 -19.5 c 128,-1,75
 80 68 80 68 80 213 c 2,76,-1
 80 728 l 1,77,-1
 138 784 l 1,78,-1
 602 785 l 1,79,-1
 620 774 l 2,21,22
EndSplineSet
Validated: 1
EndChar

StartChar: A
Encoding: 65 65 36
Width: 594
GlyphClass: 2
Flags: W
LayerCount: 2
Fore
SplineSet
315 796 m 2,0,1
 395 747 395 747 439.5 701.5 c 128,-1,2
 484 656 484 656 505 610.5 c 128,-1,3
 526 565 526 565 530 517.5 c 128,-1,4
 534 470 534 470 534 417 c 2,5,-1
 534 0 l 1,6,-1
 409 0 l 1,7,-1
 409 307 l 1,8,-1
 184 251 l 1,9,-1
 184 0 l 1,10,-1
 60 0 l 1,11,-1
 60 420 l 2,12,13
 60 471 60 471 64 517.5 c 128,-1,14
 68 564 68 564 89 609.5 c 128,-1,15
 110 655 110 655 154 701 c 128,-1,16
 198 747 198 747 279 796 c 2,17,-1
 297 807 l 1,18,-1
 315 796 l 2,0,1
296 669 m 1,19,20
 261 644 261 644 239 618.5 c 128,-1,21
 217 593 217 593 205 563.5 c 128,-1,22
 193 534 193 534 188.5 498 c 128,-1,23
 184 462 184 462 184 415 c 2,24,-1
 184 366 l 1,25,-1
 409 422 l 1,26,-1
 409 428 l 2,27,28
 409 470 409 470 405 503 c 128,-1,29
 401 536 401 536 389 564.5 c 128,-1,30
 377 593 377 593 355 618.5 c 128,-1,31
 333 644 333 644 298 669 c 1,32,-1
 296 669 l 1,19,20
EndSplineSet
Validated: 1
Substitution2: "Single Substitution lookup 25 subtable" ordfeminine
Substitution2: "'aalt' Access All Alternates in Latin lookup 0 subtable" ordfeminine
EndChar

StartChar: B
Encoding: 66 66 37
Width: 557
GlyphClass: 2
Flags: W
LayerCount: 2
Fore
SplineSet
472 671 m 2,0,1
 472 635 472 635 468.5 607.5 c 128,-1,2
 465 580 465 580 454 557 c 128,-1,3
 443 534 443 534 422.5 512 c 128,-1,4
 402 490 402 490 369 466 c 1,5,-1
 507 417 l 1,6,-1
 507 318 l 2,7,8
 507 156 507 156 440.5 78 c 128,-1,9
 374 0 374 0 223 0 c 2,10,-1
 60 0 l 1,11,-1
 60 709 l 1,12,-1
 128 776 l 1,13,-1
 472 776 l 1,14,-1
 472 671 l 2,0,1
280 395 m 1,15,-1
 185 328 l 1,16,-1
 185 112 l 1,17,-1
 235 112 l 2,18,19
 266 112 266 112 291 121.5 c 128,-1,20
 316 131 316 131 342 157 c 0,21,22
 363 178 363 178 372 215 c 128,-1,23
 381 252 381 252 381 306 c 2,24,-1
 381 361 l 1,25,-1
 280 395 l 1,15,-1
185 664 m 1,26,-1
 185 442 l 1,27,-1
 258 494 l 2,28,29
 305 527 305 527 325 568 c 128,-1,30
 345 609 345 609 345 653 c 2,31,-1
 345 664 l 1,32,-1
 185 664 l 1,26,-1
EndSplineSet
Validated: 1
EndChar

StartChar: C
Encoding: 67 67 38
Width: 497
GlyphClass: 2
Flags: W
LayerCount: 2
Fore
SplineSet
334 600 m 1,0,-1
 334 664 l 1,1,-1
 181 664 l 1,2,-1
 181 309 l 2,3,4
 181 274 181 274 187.5 248 c 128,-1,5
 194 222 194 222 208 202 c 0,6,7
 223 179 223 179 256.5 158.5 c 128,-1,8
 290 138 290 138 335 126 c 2,9,-1
 455 93 l 1,10,-1
 455 -28 l 1,11,-1
 328 9 l 2,12,13
 240 34 240 34 188 67 c 128,-1,14
 136 100 136 100 107 135 c 0,15,16
 78 171 78 171 66.5 217 c 128,-1,17
 55 263 55 263 55 328 c 2,18,-1
 55 707 l 1,19,-1
 125 776 l 1,20,-1
 512 776 l 1,21,-1
 334 600 l 1,0,-1
EndSplineSet
Validated: 1
EndChar

StartChar: D
Encoding: 68 68 39
Width: 590
GlyphClass: 2
Flags: W
LayerCount: 2
Fore
SplineSet
535 426 m 2,0,1
 535 363 535 363 531.5 312 c 128,-1,2
 528 261 528 261 518 220.5 c 128,-1,3
 508 180 508 180 491 148.5 c 128,-1,4
 474 117 474 117 447 93 c 0,5,6
 423 72 423 72 396 56.5 c 128,-1,7
 369 41 369 41 335.5 29.5 c 128,-1,8
 302 18 302 18 260 10 c 128,-1,9
 218 2 218 2 164 -6 c 2,10,-1
 60 -20 l 1,11,-1
 60 776 l 1,12,-1
 469 776 l 1,13,-1
 535 711 l 1,14,-1
 535 426 l 2,0,1
186 661 m 1,15,-1
 186 114 l 1,16,-1
 207 117 l 2,17,18
 259 125 259 125 297 139.5 c 128,-1,19
 335 154 335 154 359 178 c 0,20,21
 374 193 374 193 384 212 c 128,-1,22
 394 231 394 231 399.5 255.5 c 128,-1,23
 405 280 405 280 407 312.5 c 128,-1,24
 409 345 409 345 409 387 c 2,25,-1
 409 661 l 1,26,-1
 186 661 l 1,15,-1
EndSplineSet
Validated: 1
EndChar

StartChar: E
Encoding: 69 69 40
Width: 513
GlyphClass: 2
Flags: W
LayerCount: 2
Fore
SplineSet
473 660 m 1,0,-1
 179 660 l 1,1,-1
 179 472 l 1,2,-1
 417 472 l 1,3,-1
 417 358 l 1,4,-1
 179 358 l 1,5,-1
 179 308 l 2,6,7
 179 240 179 240 208 202 c 0,8,9
 224 179 224 179 253 159.5 c 128,-1,10
 282 140 282 140 330 128 c 2,11,-1
 471 92 l 1,12,-1
 471 -28 l 1,13,-1
 311 13 l 2,14,15
 243 31 243 31 192.5 61 c 128,-1,16
 142 91 142 91 109 129 c 0,17,18
 78 164 78 164 66.5 209.5 c 128,-1,19
 55 255 55 255 55 318 c 2,20,-1
 55 707 l 1,21,-1
 125 776 l 1,22,-1
 473 776 l 1,23,-1
 473 660 l 1,0,-1
EndSplineSet
Validated: 1
EndChar

StartChar: F
Encoding: 70 70 41
Width: 477
GlyphClass: 2
Flags: W
LayerCount: 2
Fore
SplineSet
447 660 m 1,0,-1
 184 660 l 1,1,-1
 184 457 l 1,2,-1
 378 457 l 1,3,-1
 378 343 l 1,4,-1
 184 343 l 1,5,-1
 184 -45 l 1,6,-1
 157 -45 l 1,7,-1
 60 53 l 1,8,-1
 60 707 l 1,9,-1
 130 776 l 1,10,-1
 447 776 l 1,11,-1
 447 660 l 1,0,-1
EndSplineSet
Validated: 1
EndChar

StartChar: G
Encoding: 71 71 42
Width: 559
GlyphClass: 2
Flags: W
LayerCount: 2
Fore
SplineSet
351 600 m 1,0,-1
 351 664 l 1,1,-1
 181 664 l 1,2,-1
 181 348 l 2,3,4
 181 318 181 318 183.5 286 c 128,-1,5
 186 254 186 254 199 231 c 0,6,7
 208 215 208 215 218.5 202 c 128,-1,8
 229 189 229 189 244 178 c 128,-1,9
 259 167 259 167 280 157.5 c 128,-1,10
 301 148 301 148 331 140 c 2,11,-1
 383 126 l 1,12,-1
 383 382 l 1,13,-1
 271 382 l 1,14,-1
 374 485 l 1,15,-1
 507 485 l 1,16,-1
 507 -29 l 1,17,-1
 329 20 l 2,18,19
 286 32 286 32 252.5 45 c 128,-1,20
 219 58 219 58 193 73 c 128,-1,21
 167 88 167 88 146.5 106 c 128,-1,22
 126 124 126 124 109 147 c 0,23,24
 78 189 78 189 66.5 238 c 128,-1,25
 55 287 55 287 55 363 c 2,26,-1
 55 707 l 1,27,-1
 125 776 l 1,28,-1
 529 776 l 1,29,-1
 351 600 l 1,0,-1
EndSplineSet
Validated: 1
EndChar

StartChar: H
Encoding: 72 72 43
Width: 596
GlyphClass: 2
Flags: W
LayerCount: 2
Fore
SplineSet
536 0 m 1,0,-1
 410 0 l 1,1,-1
 410 413 l 1,2,-1
 186 353 l 1,3,-1
 186 0 l 1,4,-1
 60 0 l 1,5,-1
 60 776 l 1,6,-1
 186 776 l 1,7,-1
 186 473 l 1,8,-1
 410 533 l 1,9,-1
 410 776 l 1,10,-1
 536 776 l 1,11,-1
 536 0 l 1,0,-1
EndSplineSet
Validated: 1
EndChar

StartChar: I
Encoding: 73 73 44
Width: 258
GlyphClass: 2
Flags: W
LayerCount: 2
Fore
SplineSet
193 -45 m 1,0,-1
 166 -45 l 1,1,-1
 65 57 l 1,2,-1
 65 776 l 1,3,-1
 193 776 l 1,4,-1
 193 -45 l 1,0,-1
EndSplineSet
Validated: 1
EndChar

StartChar: J
Encoding: 74 74 45
Width: 362
GlyphClass: 2
Flags: W
LayerCount: 2
Fore
SplineSet
307 199 m 1,0,1
 301 164 301 164 289 132.5 c 128,-1,2
 277 101 277 101 249 71 c 128,-1,3
 221 41 221 41 172 10 c 128,-1,4
 123 -21 123 -21 45 -55 c 1,5,-1
 45 75 l 1,6,7
 99 101 99 101 134.5 130.5 c 128,-1,8
 170 160 170 160 181 196 c 1,9,-1
 181 661 l 1,10,-1
 11 661 l 1,11,-1
 11 670 l 1,12,-1
 118 776 l 1,13,-1
 307 776 l 1,14,-1
 307 199 l 1,0,1
EndSplineSet
Validated: 1
EndChar

StartChar: K
Encoding: 75 75 46
Width: 554
GlyphClass: 2
Flags: W
LayerCount: 2
Fore
SplineSet
500 712 m 2,0,1
 500 643 500 643 466 588.5 c 128,-1,2
 432 534 432 534 375 492 c 2,3,-1
 322 453 l 1,4,-1
 395 401 l 1,5,-1
 519 0 l 1,6,-1
 388 0 l 1,7,-1
 278 365 l 1,8,-1
 234 395 l 1,9,-1
 187 364 l 1,10,-1
 187 0 l 1,11,-1
 60 0 l 1,12,-1
 60 776 l 1,13,-1
 187 776 l 1,14,-1
 187 486 l 1,15,-1
 282 555 l 2,16,17
 338 596 338 596 356.5 633 c 128,-1,18
 375 670 375 670 375 708 c 2,19,-1
 375 776 l 1,20,-1
 500 776 l 1,21,-1
 500 712 l 2,0,1
EndSplineSet
Validated: 1
EndChar

StartChar: L
Encoding: 76 76 47
Width: 448
GlyphClass: 2
Flags: W
LayerCount: 2
Fore
SplineSet
188 115 m 1,0,-1
 341 115 l 1,1,-1
 448 9 l 1,2,-1
 448 0 l 1,3,-1
 130 0 l 1,4,-1
 60 69 l 1,5,-1
 60 776 l 1,6,-1
 188 776 l 1,7,-1
 188 115 l 1,0,-1
EndSplineSet
Validated: 1
EndChar

StartChar: M
Encoding: 77 77 48
Width: 732
GlyphClass: 2
Flags: W
LayerCount: 2
Fore
SplineSet
672 0 m 1,0,-1
 546 0 l 1,1,-1
 546 601 l 1,2,3
 502 579 502 579 466.5 542.5 c 128,-1,4
 431 506 431 506 399 460 c 2,5,-1
 366 412 l 1,6,-1
 333 460 l 2,7,8
 296 514 296 514 263.5 546.5 c 128,-1,9
 231 579 231 579 186 601 c 1,10,-1
 186 0 l 1,11,-1
 60 0 l 1,12,-1
 60 796 l 1,13,-1
 118 767 l 2,14,15
 169 741 169 741 208 718.5 c 128,-1,16
 247 696 247 696 276.5 675 c 128,-1,17
 306 654 306 654 327.5 633 c 128,-1,18
 349 612 349 612 366 590 c 1,19,20
 383 612 383 612 404.5 633 c 128,-1,21
 426 654 426 654 455 675 c 128,-1,22
 484 696 484 696 523 718.5 c 128,-1,23
 562 741 562 741 614 767 c 2,24,-1
 672 796 l 1,25,-1
 672 0 l 1,0,-1
EndSplineSet
Validated: 1
EndChar

StartChar: N
Encoding: 78 78 49
Width: 639
GlyphClass: 2
Flags: W
LayerCount: 2
Fore
SplineSet
579 0 m 1,0,-1
 456 0 l 1,1,-1
 456 95 l 2,2,3
 456 121 456 121 453 153 c 128,-1,4
 450 185 450 185 436 223 c 128,-1,5
 422 261 422 261 394.5 305 c 128,-1,6
 367 349 367 349 317 397 c 2,7,-1
 186 527 l 1,8,-1
 186 0 l 1,9,-1
 60 0 l 1,10,-1
 60 776 l 1,11,-1
 186 776 l 1,12,-1
 186 688 l 1,13,-1
 349 526 l 2,14,15
 387 488 387 488 411.5 459.5 c 128,-1,16
 436 431 436 431 453 402 c 1,17,-1
 453 776 l 1,18,-1
 579 776 l 1,19,-1
 579 0 l 1,0,-1
EndSplineSet
Validated: 1
EndChar

StartChar: O
Encoding: 79 79 50
Width: 566
GlyphClass: 2
Flags: W
LayerCount: 2
Fore
SplineSet
283 669 m 1,0,1
 252 650 252 650 232 632 c 128,-1,2
 212 614 212 614 201 593.5 c 128,-1,3
 190 573 190 573 186 547 c 128,-1,4
 182 521 182 521 182 486 c 2,5,-1
 182 289 l 2,6,7
 182 254 182 254 186 228 c 128,-1,8
 190 202 190 202 201 181.5 c 128,-1,9
 212 161 212 161 232 143.5 c 128,-1,10
 252 126 252 126 283 106 c 1,11,-1
 284 106 l 1,12,13
 315 126 315 126 334.5 143.5 c 128,-1,14
 354 161 354 161 365 181.5 c 128,-1,15
 376 202 376 202 380 227.5 c 128,-1,16
 384 253 384 253 384 288 c 2,17,-1
 384 486 l 2,18,19
 384 521 384 521 380 547 c 128,-1,20
 376 573 376 573 365 593.5 c 128,-1,21
 354 614 354 614 334.5 632 c 128,-1,22
 315 650 315 650 284 669 c 1,23,-1
 283 669 l 1,0,1
295 801 m 2,24,25
 372 762 372 762 415.5 723 c 128,-1,26
 459 684 459 684 480 644 c 128,-1,27
 501 604 501 604 506 563.5 c 128,-1,28
 511 523 511 523 511 481 c 2,29,-1
 511 294 l 2,30,31
 511 252 511 252 506 211.5 c 128,-1,32
 501 171 501 171 480 131 c 128,-1,33
 459 91 459 91 415.5 52 c 128,-1,34
 372 13 372 13 295 -26 c 2,35,-1
 283 -32 l 1,36,-1
 271 -26 l 2,37,38
 194 13 194 13 150.5 52.5 c 128,-1,39
 107 92 107 92 86 131.5 c 128,-1,40
 65 171 65 171 60 211.5 c 128,-1,41
 55 252 55 252 55 293 c 2,42,-1
 55 481 l 2,43,44
 55 523 55 523 60 563.5 c 128,-1,45
 65 604 65 604 86 643.5 c 128,-1,46
 107 683 107 683 150.5 722.5 c 128,-1,47
 194 762 194 762 271 801 c 2,48,-1
 283 807 l 1,49,-1
 295 801 l 2,24,25
EndSplineSet
Validated: 1
Substitution2: "Single Substitution lookup 25 subtable" ordmasculine
Substitution2: "'aalt' Access All Alternates in Latin lookup 0 subtable" ordmasculine
EndChar

StartChar: P
Encoding: 80 80 51
Width: 538
GlyphClass: 2
Flags: W
LayerCount: 2
Fore
SplineSet
185 661 m 1,0,-1
 185 400 l 1,1,2
 226 408 226 408 260.5 425 c 128,-1,3
 295 442 295 442 319 465 c 0,4,5
 350 496 350 496 359.5 536.5 c 128,-1,6
 369 577 369 577 369 645 c 2,7,-1
 369 661 l 1,8,-1
 185 661 l 1,0,-1
493 656 m 2,9,10
 493 603 493 603 488 561 c 128,-1,11
 483 519 483 519 471.5 484.5 c 128,-1,12
 460 450 460 450 441 422 c 128,-1,13
 422 394 422 394 393 370 c 0,14,15
 361 342 361 342 309 322 c 128,-1,16
 257 302 257 302 185 285 c 1,17,-1
 185 0 l 1,18,-1
 60 0 l 1,19,-1
 60 707 l 1,20,-1
 130 776 l 1,21,-1
 493 776 l 1,22,-1
 493 656 l 2,9,10
EndSplineSet
Validated: 1
EndChar

StartChar: Q
Encoding: 81 81 52
Width: 566
GlyphClass: 2
Flags: W
LayerCount: 2
Fore
SplineSet
295 801 m 2,0,1
 372 762 372 762 415.5 723 c 128,-1,2
 459 684 459 684 480 644 c 128,-1,3
 501 604 501 604 506 563.5 c 128,-1,4
 511 523 511 523 511 481 c 2,5,-1
 511 302 l 2,6,7
 511 261 511 261 506 227.5 c 128,-1,8
 501 194 501 194 489.5 165.5 c 128,-1,9
 478 137 478 137 458.5 112 c 128,-1,10
 439 87 439 87 409 62 c 1,11,-1
 324 134 l 1,12,-1
 339 151 l 2,13,14
 365 182 365 182 374.5 213.5 c 128,-1,15
 384 245 384 245 384 297 c 2,16,-1
 384 486 l 2,17,18
 384 521 384 521 380 547 c 128,-1,19
 376 573 376 573 365 593.5 c 128,-1,20
 354 614 354 614 334.5 632 c 128,-1,21
 315 650 315 650 284 669 c 1,22,-1
 283 669 l 1,23,24
 252 650 252 650 232 632 c 128,-1,25
 212 614 212 614 201 593.5 c 128,-1,26
 190 573 190 573 186 547 c 128,-1,27
 182 521 182 521 182 486 c 2,28,-1
 182 288 l 2,29,30
 182 249 182 249 185.5 224 c 128,-1,31
 189 199 189 199 199.5 179 c 128,-1,32
 210 159 210 159 230 139.5 c 128,-1,33
 250 120 250 120 284 91 c 2,34,-1
 429 -31 l 1,35,-1
 351 -112 l 1,36,-1
 211 2 l 2,37,38
 164 40 164 40 134 71 c 128,-1,39
 104 102 104 102 86.5 134.5 c 128,-1,40
 69 167 69 167 62 204.5 c 128,-1,41
 55 242 55 242 55 293 c 2,42,-1
 55 481 l 2,43,44
 55 523 55 523 60 563.5 c 128,-1,45
 65 604 65 604 86 643.5 c 128,-1,46
 107 683 107 683 150.5 722.5 c 128,-1,47
 194 762 194 762 271 801 c 2,48,-1
 283 807 l 1,49,-1
 295 801 l 2,0,1
EndSplineSet
Validated: 1
EndChar

StartChar: R
Encoding: 82 82 53
Width: 549
GlyphClass: 2
Flags: W
LayerCount: 2
Fore
SplineSet
495 676 m 2,0,1
 495 622 495 622 490.5 580.5 c 128,-1,2
 486 539 486 539 472.5 505.5 c 128,-1,3
 459 472 459 472 434.5 444.5 c 128,-1,4
 410 417 410 417 370 390 c 2,5,-1
 350 377 l 1,6,-1
 414 343 l 1,7,-1
 529 0 l 1,8,-1
 398 0 l 1,9,-1
 299 298 l 1,10,-1
 239 328 l 1,11,-1
 184 300 l 1,12,-1
 184 0 l 1,13,-1
 60 0 l 1,14,-1
 60 708 l 1,15,-1
 130 776 l 1,16,-1
 495 776 l 1,17,-1
 495 676 l 2,0,1
184 660 m 1,18,-1
 184 405 l 1,19,-1
 255 442 l 2,20,21
 282 456 282 456 304.5 474.5 c 128,-1,22
 327 493 327 493 346 522 c 0,23,24
 363 548 363 548 367 574.5 c 128,-1,25
 371 601 371 601 371 644 c 2,26,-1
 371 660 l 1,27,-1
 184 660 l 1,18,-1
EndSplineSet
Validated: 1
EndChar

StartChar: S
Encoding: 83 83 54
Width: 523
GlyphClass: 2
Flags: W
LayerCount: 2
Fore
SplineSet
320 600 m 1,0,-1
 320 664 l 1,1,-1
 167 664 l 1,2,-1
 167 646 l 2,3,4
 167 618 167 618 170.5 592.5 c 128,-1,5
 174 567 174 567 184 544 c 0,6,7
 196 516 196 516 226.5 491 c 128,-1,8
 257 466 257 466 315 450 c 2,9,-1
 475 406 l 1,10,-1
 475 314 l 2,11,12
 475 253 475 253 466.5 196 c 128,-1,13
 458 139 458 139 428 95.5 c 128,-1,14
 398 52 398 52 341.5 26 c 128,-1,15
 285 0 285 0 189 0 c 2,16,-1
 40 0 l 1,17,-1
 40 9 l 1,18,-1
 145 114 l 1,19,-1
 204 114 l 2,20,21
 237 114 237 114 258.5 121 c 128,-1,22
 280 128 280 128 302 148 c 0,23,24
 329 173 329 173 339 209.5 c 128,-1,25
 349 246 349 246 349 294 c 2,26,-1
 349 318 l 1,27,-1
 326 325 l 2,28,29
 272 341 272 341 234.5 355.5 c 128,-1,30
 197 370 197 370 170.5 386 c 128,-1,31
 144 402 144 402 125 421 c 128,-1,32
 106 440 106 440 89 465 c 0,33,34
 63 502 63 502 52.5 553.5 c 128,-1,35
 42 605 42 605 42 659 c 2,36,-1
 42 707 l 1,37,-1
 112 776 l 1,38,-1
 498 776 l 1,39,-1
 320 600 l 1,0,-1
EndSplineSet
Validated: 1
EndChar

StartChar: T
Encoding: 84 84 55
Width: 520
GlyphClass: 2
Flags: W
LayerCount: 2
Fore
SplineSet
520 765 m 1,0,-1
 413 659 l 1,1,-1
 324 659 l 1,2,-1
 324 0 l 1,3,-1
 196 0 l 1,4,-1
 196 659 l 1,5,-1
 107 659 l 1,6,-1
 0 765 l 1,7,-1
 0 776 l 1,8,-1
 520 776 l 1,9,-1
 520 765 l 1,0,-1
EndSplineSet
Validated: 1
EndChar

StartChar: U
Encoding: 85 85 56
Width: 586
GlyphClass: 2
Flags: W
LayerCount: 2
Fore
SplineSet
526 0 m 1,0,-1
 397 0 l 2,1,2
 320 0 320 0 256.5 18 c 128,-1,3
 193 36 193 36 144 78 c 0,4,5
 116 103 116 103 97.5 133 c 128,-1,6
 79 163 79 163 68.5 201 c 128,-1,7
 58 239 58 239 54 287 c 128,-1,8
 50 335 50 335 50 396 c 2,9,-1
 50 776 l 1,10,-1
 177 776 l 1,11,-1
 177 368 l 2,12,13
 177 327 177 327 179.5 296 c 128,-1,14
 182 265 182 265 188 241 c 128,-1,15
 194 217 194 217 204.5 199.5 c 128,-1,16
 215 182 215 182 230 168 c 0,17,18
 256 144 256 144 291.5 130 c 128,-1,19
 327 116 327 116 376 116 c 2,20,-1
 399 116 l 1,21,-1
 399 776 l 1,22,-1
 526 776 l 1,23,-1
 526 0 l 1,0,-1
EndSplineSet
Validated: 1
EndChar

StartChar: V
Encoding: 86 86 57
Width: 566
GlyphClass: 2
Flags: W
LayerCount: 2
Fore
SplineSet
510 348 m 2,0,1
 510 282 510 282 504 232 c 128,-1,2
 498 182 498 182 477.5 140 c 128,-1,3
 457 98 457 98 417.5 60 c 128,-1,4
 378 22 378 22 311 -20 c 2,5,-1
 283 -37 l 1,6,-1
 254 -20 l 2,7,8
 187 21 187 21 147.5 59 c 128,-1,9
 108 97 108 97 87.5 139 c 128,-1,10
 67 181 67 181 61.5 231.5 c 128,-1,11
 56 282 56 282 56 348 c 2,12,-1
 56 776 l 1,13,-1
 183 776 l 1,14,-1
 183 337 l 2,15,16
 183 286 183 286 187.5 252 c 128,-1,17
 192 218 192 218 203 192.5 c 128,-1,18
 214 167 214 167 233.5 147 c 128,-1,19
 253 127 253 127 283 103 c 1,20,-1
 284 103 l 1,21,22
 314 127 314 127 333 147 c 128,-1,23
 352 167 352 167 363.5 192.5 c 128,-1,24
 375 218 375 218 379 252 c 128,-1,25
 383 286 383 286 383 337 c 2,26,-1
 383 776 l 1,27,-1
 510 776 l 1,28,-1
 510 348 l 2,0,1
EndSplineSet
Validated: 1
EndChar

StartChar: W
Encoding: 87 87 58
Width: 819
GlyphClass: 2
Flags: W
LayerCount: 2
Fore
SplineSet
152 776 m 1,0,-1
 156 384 l 2,1,2
 156 349 156 349 176.5 303 c 0,3,4
 193 265 193 265 217 242 c 0,5,6
 262 198 262 198 328 176 c 0,7,8
 331 175 331 175 341 170 c 1,9,10
 341 180 341 180 341 187 c 0,11,12
 341 191 341 191 341 194.5 c 128,-1,13
 341 198 341 198 341 201 c 2,14,-1
 341 207 l 2,15,16
 341 208 341 208 342 214 c 0,17,18
 342 223 342 223 342 234 c 0,19,20
 342 261 342 261 342 293.5 c 128,-1,21
 342 326 342 326 343 353 c 0,22,23
 343 364 343 364 343 372 c 2,24,-1
 343 384 l 1,25,-1
 343 398 l 2,26,27
 343 407 343 407 343 417 c 128,-1,28
 343 427 343 427 343 438 c 0,29,30
 343 476 343 476 343 479 c 2,31,-1
 343 552 l 1,32,-1
 343 623 l 2,33,34
 343 627 343 627 343 631 c 128,-1,35
 343 635 343 635 343 640 c 0,36,37
 343 651 343 651 343 664 c 128,-1,38
 343 677 343 677 343 691 c 128,-1,39
 343 705 343 705 343 718 c 128,-1,40
 343 731 343 731 343 742 c 2,41,-1
 343 770 l 1,42,-1
 343 776 l 1,43,-1
 463 776 l 1,44,-1
 461 385 l 1,45,-1
 463 374 l 2,46,47
 473 317 473 317 483.5 293 c 0,48,49
 500 255 500 255 524 232 c 0,50,51
 593 165 593 165 635 165 c 0,52,53
 636 165 636 165 663 154 c 1,54,55
 663 322 663 322 663 323 c 2,56,-1
 663 328 l 2,57,58
 664 449 664 449 664 464 c 2,59,-1
 664 567 l 1,60,-1
 665 776 l 1,61,-1
 781 776 l 1,62,63
 781 766 781 766 781 750.5 c 0,64,65
 781 740 781 740 781 725 c 0,66,67
 781 692 781 692 781 652 c 0,68,69
 781 556 781 556 781 463 c 0,70,71
 781 449 781 449 781 439 c 2,72,-1
 780 430 l 1,73,-1
 780 425 l 2,74,75
 780 420 780 420 780 413 c 0,76,77
 780 396 780 396 780 376 c 0,78,79
 780 366 780 366 780 357 c 128,-1,80
 780 348 780 348 780 340 c 2,81,-1
 780 327 l 1,82,-1
 780 317 l 2,83,84
 780 314 780 314 780 310 c 128,-1,85
 780 306 780 306 780 301 c 0,86,87
 780 279 780 279 779 90 c 1,88,-1
 780 89 l 1,89,-1
 717 -5 l 1,90,91
 706 0 706 0 698 4 c 0,92,93
 690 9 690 9 675.5 16 c 0,94,-1
 649 29 l 0,95,96
 647 31 647 31 644 32 c 0,97,98
 572 64 572 64 510 99 c 0,99,100
 480 116 480 116 460 134 c 1,101,102
 459 111 459 111 459 87 c 1,103,-1
 460 87 l 1,104,-1
 432 49 l 2,105,106
 430 46 430 46 427 41 c 2,107,-1
 395 -4 l 1,108,-1
 270 74 l 1,109,110
 223 98 223 98 203 109 c 0,111,112
 160 134 160 134 132 165 c 0,113,114
 94 207 94 207 67 272.5 c 0,115,116
 37 345 37 345 37 411 c 0,117,118
 37 416 37 416 37 420 c 0,119,120
 36 425 36 425 36 429 c 2,121,-1
 36 436 l 1,122,-1
 36 438 l 1,123,-1
 36 442 l 2,124,125
 36 446 36 446 36 451 c 0,126,127
 36 464 36 464 36.5 479 c 128,-1,128
 37 494 37 494 37 507 c 2,129,-1
 37 566 l 1,130,-1
 37 572 l 1,131,-1
 37 629 l 2,132,133
 37 633 37 633 37 637.5 c 128,-1,134
 37 642 37 642 37 648 c 2,135,-1
 37 677 l 1,136,-1
 37 683 l 1,137,-1
 37 689 l 1,138,-1
 37 696 l 2,139,140
 37 702 37 702 37 708 c 128,-1,141
 37 714 37 714 37 720.5 c 128,-1,142
 37 727 37 727 37 733 c 128,-1,143
 37 739 37 739 37 745 c 2,144,-1
 36 773 l 1,145,-1
 36 776 l 1,146,-1
 152 776 l 1,0,-1
EndSplineSet
EndChar

StartChar: X
Encoding: 88 88 59
Width: 557
GlyphClass: 2
Flags: W
LayerCount: 2
Fore
SplineSet
423 449 m 1,0,-1
 362 411 l 1,1,-1
 431 374 l 1,2,-1
 527 0 l 1,3,-1
 391 0 l 1,4,-1
 311 320 l 1,5,-1
 274 346 l 1,6,-1
 245 322 l 1,7,-1
 166 0 l 1,8,-1
 30 0 l 1,9,-1
 129 373 l 1,10,-1
 200 411 l 1,11,-1
 132 450 l 1,12,-1
 41 776 l 1,13,-1
 177 776 l 1,14,-1
 243 507 l 1,15,-1
 281 479 l 1,16,-1
 313 506 l 1,17,-1
 380 776 l 1,18,-1
 515 776 l 1,19,-1
 423 449 l 1,0,-1
EndSplineSet
Validated: 1
EndChar

StartChar: Y
Encoding: 89 89 60
Width: 501
GlyphClass: 2
Flags: W
LayerCount: 2
Fore
SplineSet
477 729 m 2,0,1
 468 656 468 656 454.5 603 c 128,-1,2
 441 550 441 550 422 507.5 c 128,-1,3
 403 465 403 465 377 427.5 c 128,-1,4
 351 390 351 390 316 348 c 1,5,-1
 316 56 l 1,6,-1
 216 -45 l 1,7,-1
 189 -45 l 1,8,-1
 189 344 l 1,9,-1
 -5 776 l 1,10,-1
 133 776 l 1,11,-1
 264 474 l 1,12,13
 285 500 285 500 299.5 529 c 128,-1,14
 314 558 314 558 324 594 c 128,-1,15
 334 630 334 630 341 674.5 c 128,-1,16
 348 719 348 719 353 776 c 1,17,-1
 483 776 l 1,18,-1
 477 729 l 2,0,1
EndSplineSet
Validated: 1
EndChar

StartChar: Z
Encoding: 90 90 61
Width: 535
GlyphClass: 2
Flags: W
LayerCount: 2
Fore
SplineSet
409 578 m 2,0,1
 358 495 358 495 322.5 430.5 c 128,-1,2
 287 366 287 366 263 312.5 c 128,-1,3
 239 259 239 259 223.5 212 c 128,-1,4
 208 165 208 165 197 117 c 1,5,-1
 197 115 l 1,6,-1
 385 115 l 1,7,-1
 492 9 l 1,8,-1
 492 0 l 1,9,-1
 42 0 l 1,10,11
 44 35 44 35 52.5 83 c 128,-1,12
 61 131 61 131 75 179 c 0,13,14
 87 221 87 221 104.5 266 c 128,-1,15
 122 311 122 311 147 362.5 c 128,-1,16
 172 414 172 414 206 474 c 128,-1,17
 240 534 240 534 285 606 c 2,18,-1
 322 665 l 1,19,-1
 198 665 l 1,20,-1
 198 600 l 1,21,-1
 20 776 l 1,22,-1
 530 776 l 1,23,-1
 409 578 l 2,0,1
EndSplineSet
Validated: 1
EndChar

StartChar: bracketleft
Encoding: 91 91 62
Width: 298
GlyphClass: 2
Flags: W
LayerCount: 2
Fore
SplineSet
275 788 m 1,0,-1
 202 716 l 1,1,-1
 156 716 l 1,2,-1
 156 -14 l 1,3,-1
 202 -14 l 1,4,-1
 275 -86 l 1,5,-1
 275 -98 l 1,6,-1
 107 -98 l 1,7,-1
 50 -42 l 1,8,-1
 50 744 l 1,9,-1
 107 800 l 1,10,-1
 275 800 l 1,11,-1
 275 788 l 1,0,-1
EndSplineSet
Validated: 1
EndChar

StartChar: backslash
Encoding: 92 92 63
Width: 447
GlyphClass: 2
Flags: W
LayerCount: 2
Fore
SplineSet
422 -19 m 1,0,-1
 322 -19 l 1,1,-1
 35 775 l 1,2,-1
 135 775 l 1,3,-1
 422 -19 l 1,0,-1
EndSplineSet
Validated: 1
EndChar

StartChar: bracketright
Encoding: 93 93 64
Width: 298
GlyphClass: 2
Flags: W
LayerCount: 2
Fore
SplineSet
23 800 m 1,0,-1
 191 800 l 1,1,-1
 248 744 l 1,2,-1
 248 -42 l 1,3,-1
 191 -98 l 1,4,-1
 23 -98 l 1,5,-1
 23 -86 l 1,6,-1
 96 -14 l 1,7,-1
 142 -14 l 1,8,-1
 142 716 l 1,9,-1
 96 716 l 1,10,-1
 23 788 l 1,11,-1
 23 800 l 1,0,-1
EndSplineSet
Validated: 1
EndChar

StartChar: asciicircum
Encoding: 94 94 65
Width: 541
GlyphClass: 2
Flags: W
LayerCount: 2
Fore
SplineSet
478 357 m 1,0,-1
 478 330 l 1,1,-1
 397 330 l 1,2,-1
 271 585 l 1,3,-1
 145 330 l 1,4,-1
 62 330 l 1,5,-1
 62 356 l 1,6,-1
 228 678 l 1,7,-1
 314 678 l 1,8,-1
 478 357 l 1,0,-1
EndSplineSet
Validated: 1
EndChar

StartChar: underscore
Encoding: 95 95 66
Width: 460
GlyphClass: 2
Flags: W
LayerCount: 2
Fore
SplineSet
460 -125 m 1,0,-1
 0 -125 l 1,1,-1
 0 -69 l 1,2,-1
 460 -69 l 1,3,-1
 460 -125 l 1,0,-1
EndSplineSet
Validated: 1
EndChar

StartChar: grave
Encoding: 96 96 67
Width: 400
GlyphClass: 2
Flags: W
LayerCount: 2
Fore
SplineSet
350 730 m 1,0,-1
 274 730 l 1,1,-1
 153 802 l 1,2,-1
 198 862 l 1,3,-1
 350 759 l 1,4,-1
 350 730 l 1,0,-1
EndSplineSet
Validated: 1
EndChar

StartChar: a
Encoding: 97 97 68
Width: 537
GlyphClass: 2
Flags: W
LayerCount: 2
Fore
SplineSet
287 673 m 2,0,1
 355 631 355 631 395 591.5 c 128,-1,2
 435 552 435 552 455.5 512.5 c 128,-1,3
 476 473 476 473 481.5 432.5 c 128,-1,4
 487 392 487 392 487 349 c 2,5,-1
 487 0 l 1,6,-1
 371 0 l 1,7,-1
 371 244 l 1,8,-1
 166 193 l 1,9,-1
 166 0 l 1,10,-1
 50 0 l 1,11,-1
 50 330 l 2,12,13
 50 382 50 382 55 425.5 c 128,-1,14
 60 469 60 469 80 509.5 c 128,-1,15
 100 550 100 550 140.5 590 c 128,-1,16
 181 630 181 630 251 673 c 2,17,-1
 269 684 l 1,18,-1
 287 673 l 2,0,1
268 551 m 1,19,20
 236 529 236 529 216 507.5 c 128,-1,21
 196 486 196 486 185 460.5 c 128,-1,22
 174 435 174 435 170 403.5 c 128,-1,23
 166 372 166 372 166 331 c 2,24,-1
 166 307 l 1,25,-1
 373 359 l 1,26,27
 372 391 372 391 366.5 417.5 c 128,-1,28
 361 444 361 444 349 467 c 128,-1,29
 337 490 337 490 318 510.5 c 128,-1,30
 299 531 299 531 270 551 c 1,31,-1
 268 551 l 1,19,20
EndSplineSet
Validated: 1
Substitution2: "Single Substitution lookup 25 subtable" ordfeminine
Substitution2: "'aalt' Access All Alternates in Latin lookup 0 subtable" ordfeminine
EndChar

StartChar: b
Encoding: 98 98 69
Width: 512
GlyphClass: 2
Flags: W
LayerCount: 2
Fore
SplineSet
434 558 m 2,0,1
 434 527 434 527 427.5 503 c 128,-1,2
 421 479 421 479 409.5 460 c 128,-1,3
 398 441 398 441 382.5 426.5 c 128,-1,4
 367 412 367 412 348 398 c 1,5,-1
 467 358 l 1,6,-1
 467 272 l 2,7,8
 467 138 467 138 407.5 69 c 128,-1,9
 348 0 348 0 217 0 c 2,10,-1
 55 0 l 1,11,-1
 55 597 l 1,12,-1
 113 653 l 1,13,-1
 434 653 l 1,14,-1
 434 558 l 2,0,1
259 332 m 1,15,-1
 171 269 l 1,16,-1
 171 110 l 1,17,-1
 229 110 l 2,18,19
 253 110 253 110 270 115 c 128,-1,20
 287 120 287 120 308 138 c 0,21,22
 330 156 330 156 340.5 187.5 c 128,-1,23
 351 219 351 219 351 257 c 2,24,-1
 351 301 l 1,25,-1
 259 332 l 1,15,-1
171 543 m 1,26,-1
 171 378 l 1,27,-1
 242 429 l 2,28,29
 285 460 285 460 301 485 c 128,-1,30
 317 510 317 510 318 543 c 1,31,-1
 171 543 l 1,26,-1
EndSplineSet
Validated: 1
EndChar

StartChar: c
Encoding: 99 99 70
Width: 457
GlyphClass: 2
Flags: W
LayerCount: 2
Fore
SplineSet
317 493 m 1,0,-1
 317 543 l 1,1,-1
 168 543 l 1,2,-1
 168 280 l 2,3,4
 168 242 168 242 172.5 219.5 c 128,-1,5
 177 197 177 197 190 181 c 0,6,7
 222 142 222 142 311 118 c 2,8,-1
 419 88 l 1,9,-1
 419 -28 l 1,10,-1
 315 1 l 2,11,12
 227 25 227 25 177.5 54.5 c 128,-1,13
 128 84 128 84 99 117 c 0,14,15
 71 149 71 149 60.5 189 c 128,-1,16
 50 229 50 229 50 283 c 2,17,-1
 50 594 l 1,18,-1
 109 653 l 1,19,-1
 477 653 l 1,20,-1
 317 493 l 1,0,-1
EndSplineSet
Validated: 1
EndChar

StartChar: d
Encoding: 100 100 71
Width: 542
GlyphClass: 2
Flags: W
LayerCount: 2
Fore
SplineSet
492 358 m 2,0,1
 492 304 492 304 488 260.5 c 128,-1,2
 484 217 484 217 474 182.5 c 128,-1,3
 464 148 464 148 447 121 c 128,-1,4
 430 94 430 94 403 72 c 0,5,6
 357 34 357 34 298.5 17 c 128,-1,7
 240 0 240 0 173 0 c 2,8,-1
 55 0 l 1,9,-1
 55 596 l 1,10,-1
 113 653 l 1,11,-1
 492 653 l 1,12,-1
 492 358 l 2,0,1
172 540 m 1,13,-1
 172 112 l 1,14,-1
 193 112 l 2,15,16
 238 112 238 112 270 123 c 128,-1,17
 302 134 302 134 325 155 c 0,18,19
 353 180 353 180 364 221 c 128,-1,20
 375 262 375 262 375 337 c 2,21,-1
 375 540 l 1,22,-1
 172 540 l 1,13,-1
EndSplineSet
Validated: 1
EndChar

StartChar: e
Encoding: 101 101 72
Width: 470
GlyphClass: 2
Flags: W
LayerCount: 2
Fore
SplineSet
435 540 m 1,0,-1
 166 540 l 1,1,-1
 166 401 l 1,2,-1
 386 401 l 1,3,-1
 386 289 l 1,4,-1
 166 289 l 1,5,-1
 166 270 l 2,6,7
 166 265 166 265 166.5 255 c 128,-1,8
 167 245 167 245 168.5 234 c 128,-1,9
 170 223 170 223 173 212 c 128,-1,10
 176 201 176 201 181 193 c 0,11,12
 194 172 194 172 225.5 155.5 c 128,-1,13
 257 139 257 139 319 122 c 2,14,-1
 434 90 l 1,15,-1
 434 -27 l 1,16,-1
 311 7 l 2,17,18
 264 20 264 20 230.5 31.5 c 128,-1,19
 197 43 197 43 172 56 c 128,-1,20
 147 69 147 69 128.5 84 c 128,-1,21
 110 99 110 99 93 118 c 0,22,23
 69 144 69 144 59.5 190 c 128,-1,24
 50 236 50 236 50 283 c 2,25,-1
 50 597 l 1,26,-1
 108 653 l 1,27,-1
 435 653 l 1,28,-1
 435 540 l 1,0,-1
EndSplineSet
Validated: 1
EndChar

StartChar: f
Encoding: 102 102 73
Width: 431
GlyphClass: 2
Flags: W
LayerCount: 2
Fore
SplineSet
411 540 m 1,0,-1
 171 540 l 1,1,-1
 171 384 l 1,2,-1
 340 384 l 1,3,-1
 340 272 l 1,4,-1
 171 272 l 1,5,-1
 171 -39 l 1,6,-1
 144 -39 l 1,7,-1
 55 51 l 1,8,-1
 55 597 l 1,9,-1
 113 653 l 1,10,-1
 411 653 l 1,11,-1
 411 540 l 1,0,-1
EndSplineSet
Validated: 1
EndChar

StartChar: g
Encoding: 103 103 74
Width: 519
GlyphClass: 2
Flags: W
LayerCount: 2
Fore
SplineSet
329 493 m 1,0,-1
 329 543 l 1,1,-1
 166 543 l 1,2,-1
 166 294 l 2,3,4
 166 271 166 271 168.5 246.5 c 128,-1,5
 171 222 171 222 183 203 c 0,6,7
 191 191 191 191 200 182 c 128,-1,8
 209 173 209 173 222.5 164.5 c 128,-1,9
 236 156 236 156 255.5 148.5 c 128,-1,10
 275 141 275 141 303 133 c 2,11,-1
 350 120 l 1,12,-1
 350 304 l 1,13,-1
 246 304 l 1,14,-1
 347 405 l 1,15,-1
 466 405 l 1,16,-1
 466 -28 l 1,17,-1
 324 11 l 2,18,19
 279 23 279 23 245 35 c 128,-1,20
 211 47 211 47 185 60.5 c 128,-1,21
 159 74 159 74 139 89.5 c 128,-1,22
 119 105 119 105 101 124 c 0,23,24
 72 156 72 156 60 198 c 128,-1,25
 48 240 48 240 48 306 c 2,26,-1
 48 594 l 1,27,-1
 107 653 l 1,28,-1
 489 653 l 1,29,-1
 329 493 l 1,0,-1
EndSplineSet
Validated: 1
EndChar

StartChar: h
Encoding: 104 104 75
Width: 550
GlyphClass: 2
Flags: W
LayerCount: 2
Fore
SplineSet
495 0 m 1,0,-1
 378 0 l 1,1,-1
 378 338 l 1,2,-1
 173 283 l 1,3,-1
 173 0 l 1,4,-1
 55 0 l 1,5,-1
 55 653 l 1,6,-1
 173 653 l 1,7,-1
 173 399 l 1,8,-1
 378 454 l 1,9,-1
 378 653 l 1,10,-1
 495 653 l 1,11,-1
 495 0 l 1,0,-1
EndSplineSet
Validated: 1
EndChar

StartChar: i
Encoding: 105 105 76
Width: 238
GlyphClass: 2
Flags: W
LayerCount: 2
Fore
SplineSet
178 -39 m 1,0,-1
 151 -39 l 1,1,-1
 60 53 l 1,2,-1
 60 653 l 1,3,-1
 178 653 l 1,4,-1
 178 -39 l 1,0,-1
EndSplineSet
Validated: 1
Substitution2: "'locl' Localized Forms in Latin lookup 7 subtable" i.dot
Substitution2: "'locl' Localized Forms in Latin lookup 4 subtable" i.dot
Substitution2: "'locl' Localized Forms in Latin lookup 2 subtable" i.dot
Substitution2: "'aalt' Access All Alternates in Latin lookup 0 subtable" i.dot
EndChar

StartChar: j
Encoding: 106 106 77
Width: 339
GlyphClass: 2
Flags: W
LayerCount: 2
Fore
SplineSet
284 175 m 1,0,1
 278 144 278 144 267 116.5 c 128,-1,2
 256 89 256 89 230.5 61.5 c 128,-1,3
 205 34 205 34 160.5 5.5 c 128,-1,4
 116 -23 116 -23 43 -55 c 1,5,-1
 43 66 l 1,6,7
 89 87 89 87 120 111.5 c 128,-1,8
 151 136 151 136 167 178 c 1,9,-1
 167 540 l 1,10,-1
 5 540 l 1,11,-1
 5 549 l 1,12,-1
 109 653 l 1,13,-1
 284 653 l 1,14,-1
 284 175 l 1,0,1
EndSplineSet
Validated: 1
EndChar

StartChar: k
Encoding: 107 107 78
Width: 507
GlyphClass: 2
Flags: W
LayerCount: 2
Fore
SplineSet
460 602 m 2,0,1
 460 545 460 545 430 500 c 128,-1,2
 400 455 400 455 345 414 c 2,3,-1
 304 384 l 1,4,-1
 363 342 l 1,5,-1
 477 0 l 1,6,-1
 354 0 l 1,7,-1
 255 303 l 1,8,-1
 217 329 l 1,9,-1
 172 299 l 1,10,-1
 172 0 l 1,11,-1
 55 0 l 1,12,-1
 55 653 l 1,13,-1
 172 653 l 1,14,-1
 172 414 l 1,15,-1
 274 488 l 2,16,17
 305 510 305 510 324 538.5 c 128,-1,18
 343 567 343 567 343 596 c 2,19,-1
 343 653 l 1,20,-1
 460 653 l 1,21,-1
 460 602 l 2,0,1
EndSplineSet
Validated: 1
EndChar

StartChar: l
Encoding: 108 108 79
Width: 422
GlyphClass: 2
Flags: W
LayerCount: 2
Fore
SplineSet
173 113 m 1,0,-1
 318 113 l 1,1,-1
 422 9 l 1,2,-1
 422 0 l 1,3,-1
 111 0 l 1,4,-1
 55 56 l 1,5,-1
 55 653 l 1,6,-1
 173 653 l 1,7,-1
 173 113 l 1,0,-1
EndSplineSet
Validated: 1
EndChar

StartChar: m
Encoding: 109 109 80
Width: 674
GlyphClass: 2
Flags: W
LayerCount: 2
Fore
SplineSet
619 0 m 1,0,-1
 503 0 l 1,1,-1
 503 488 l 1,2,3
 466 468 466 468 431.5 434 c 128,-1,4
 397 400 397 400 368 358 c 2,5,-1
 338 314 l 1,6,-1
 307 358 l 2,7,8
 278 400 278 400 242.5 434.5 c 128,-1,9
 207 469 207 469 172 488 c 1,10,-1
 172 0 l 1,11,-1
 55 0 l 1,12,-1
 55 671 l 1,13,-1
 109 644 l 2,14,15
 157 620 157 620 193.5 599 c 128,-1,16
 230 578 230 578 257 558.5 c 128,-1,17
 284 539 284 539 303 521 c 128,-1,18
 322 503 322 503 337 484 c 1,19,20
 352 503 352 503 370.5 521.5 c 128,-1,21
 389 540 389 540 415.5 559 c 128,-1,22
 442 578 442 578 478 599 c 128,-1,23
 514 620 514 620 565 644 c 2,24,-1
 619 671 l 1,25,-1
 619 0 l 1,0,-1
EndSplineSet
Validated: 1
EndChar

StartChar: n
Encoding: 110 110 81
Width: 588
GlyphClass: 2
Flags: W
LayerCount: 2
Fore
SplineSet
533 0 m 1,0,-1
 419 0 l 1,1,-1
 419 77 l 2,2,3
 419 97 419 97 414.5 120.5 c 128,-1,4
 410 144 410 144 395 173 c 128,-1,5
 380 202 380 202 352 239 c 128,-1,6
 324 276 324 276 278 324 c 2,7,-1
 173 429 l 1,8,-1
 173 0 l 1,9,-1
 55 0 l 1,10,-1
 55 653 l 1,11,-1
 173 653 l 1,12,-1
 173 584 l 1,13,-1
 320 437 l 2,14,15
 355 402 355 402 378 376 c 128,-1,16
 401 350 401 350 416 324 c 1,17,-1
 416 653 l 1,18,-1
 533 653 l 1,19,-1
 533 0 l 1,0,-1
EndSplineSet
Validated: 1
EndChar

StartChar: o
Encoding: 111 111 82
Width: 515
GlyphClass: 2
Flags: W
LayerCount: 2
Fore
SplineSet
283 668 m 2,0,1
 347 634 347 634 384 601.5 c 128,-1,2
 421 569 421 569 439.5 535 c 128,-1,3
 458 501 458 501 462.5 464 c 128,-1,4
 467 427 467 427 467 383 c 2,5,-1
 467 268 l 2,6,7
 467 224 467 224 462.5 187 c 128,-1,8
 458 150 458 150 439.5 116 c 128,-1,9
 421 82 421 82 384 50 c 128,-1,10
 347 18 347 18 283 -17 c 2,11,-1
 258 -31 l 1,12,-1
 232 -17 l 2,13,14
 168 18 168 18 131.5 50 c 128,-1,15
 95 82 95 82 76.5 116 c 128,-1,16
 58 150 58 150 53 187 c 128,-1,17
 48 224 48 224 48 268 c 2,18,-1
 48 383 l 2,19,20
 48 427 48 427 53 464 c 128,-1,21
 58 501 58 501 76.5 535 c 128,-1,22
 95 569 95 569 131.5 601.5 c 128,-1,23
 168 634 168 634 232 668 c 2,24,-1
 258 682 l 1,25,-1
 283 668 l 2,0,1
257 554 m 1,26,27
 229 536 229 536 211 519.5 c 128,-1,28
 193 503 193 503 183 485 c 128,-1,29
 173 467 173 467 169.5 444.5 c 128,-1,30
 166 422 166 422 166 390 c 2,31,-1
 166 260 l 2,32,33
 166 228 166 228 169.5 205.5 c 128,-1,34
 173 183 173 183 183 165 c 128,-1,35
 193 147 193 147 211 131 c 128,-1,36
 229 115 229 115 257 97 c 1,37,-1
 258 97 l 1,38,39
 286 115 286 115 304 131.5 c 128,-1,40
 322 148 322 148 332 166 c 128,-1,41
 342 184 342 184 345.5 206.5 c 128,-1,42
 349 229 349 229 349 260 c 2,43,-1
 349 390 l 2,44,45
 349 422 349 422 345.5 444.5 c 128,-1,46
 342 467 342 467 332 485 c 128,-1,47
 322 503 322 503 304 519.5 c 128,-1,48
 286 536 286 536 258 554 c 1,49,-1
 257 554 l 1,26,27
EndSplineSet
Validated: 1
Substitution2: "Single Substitution lookup 25 subtable" ordmasculine
Substitution2: "'aalt' Access All Alternates in Latin lookup 0 subtable" ordmasculine
EndChar

StartChar: p
Encoding: 112 112 83
Width: 495
GlyphClass: 2
Flags: W
LayerCount: 2
Fore
SplineSet
171 540 m 1,0,-1
 171 341 l 1,1,2
 210 351 210 351 241 364.5 c 128,-1,3
 272 378 272 378 292 395 c 0,4,5
 321 421 321 421 330 452.5 c 128,-1,6
 339 484 339 484 339 540 c 1,7,-1
 171 540 l 1,0,-1
455 549 m 2,8,9
 455 501 455 501 449.5 464.5 c 128,-1,10
 444 428 444 428 433 399 c 128,-1,11
 422 370 422 370 404 347.5 c 128,-1,12
 386 325 386 325 361 305 c 0,13,14
 330 280 330 280 283.5 263.5 c 128,-1,15
 237 247 237 247 171 232 c 1,16,-1
 171 0 l 1,17,-1
 55 0 l 1,18,-1
 55 596 l 1,19,-1
 113 653 l 1,20,-1
 455 653 l 1,21,-1
 455 549 l 2,8,9
EndSplineSet
Validated: 1
EndChar

StartChar: q
Encoding: 113 113 84
Width: 515
GlyphClass: 2
Flags: W
LayerCount: 2
Fore
SplineSet
283 668 m 2,0,1
 347 634 347 634 384 601.5 c 128,-1,2
 421 569 421 569 439.5 535 c 128,-1,3
 458 501 458 501 462.5 464 c 128,-1,4
 467 427 467 427 467 383 c 2,5,-1
 467 275 l 2,6,7
 467 235 467 235 462 203.5 c 128,-1,8
 457 172 457 172 445.5 145.5 c 128,-1,9
 434 119 434 119 415 95.5 c 128,-1,10
 396 72 396 72 368 47 c 1,11,-1
 288 114 l 1,12,-1
 302 130 l 2,13,14
 329 161 329 161 339 190 c 128,-1,15
 349 219 349 219 349 268 c 2,16,-1
 349 390 l 2,17,18
 349 422 349 422 345.5 444.5 c 128,-1,19
 342 467 342 467 332 485 c 128,-1,20
 322 503 322 503 304 519.5 c 128,-1,21
 286 536 286 536 258 554 c 1,22,-1
 257 554 l 1,23,24
 229 536 229 536 211 519.5 c 128,-1,25
 193 503 193 503 183 485 c 128,-1,26
 173 467 173 467 169.5 444.5 c 128,-1,27
 166 422 166 422 166 390 c 2,28,-1
 166 261 l 2,29,30
 166 229 166 229 169 206 c 128,-1,31
 172 183 172 183 181 163.5 c 128,-1,32
 190 144 190 144 207.5 125 c 128,-1,33
 225 106 225 106 253 82 c 2,34,-1
 395 -37 l 1,35,-1
 323 -112 l 1,36,-1
 193 -6 l 2,37,38
 151 29 151 29 123 58 c 128,-1,39
 95 87 95 87 78.5 117.5 c 128,-1,40
 62 148 62 148 55 183.5 c 128,-1,41
 48 219 48 219 48 267 c 2,42,-1
 48 383 l 2,43,44
 48 427 48 427 53 464 c 128,-1,45
 58 501 58 501 76.5 535 c 128,-1,46
 95 569 95 569 131.5 601.5 c 128,-1,47
 168 634 168 634 232 668 c 2,48,-1
 258 682 l 1,49,-1
 283 668 l 2,0,1
EndSplineSet
Validated: 1
EndChar

StartChar: r
Encoding: 114 114 85
Width: 505
GlyphClass: 2
Flags: W
LayerCount: 2
Fore
SplineSet
171 540 m 1,0,-1
 171 342 l 1,1,-1
 235 376 l 2,2,3
 264 392 264 392 284 406.5 c 128,-1,4
 304 421 304 421 318 439 c 0,5,6
 334 459 334 459 337.5 480.5 c 128,-1,7
 341 502 341 502 341 531 c 2,8,-1
 341 540 l 1,9,-1
 171 540 l 1,0,-1
455 549 m 2,10,11
 455 510 455 510 450 478.5 c 128,-1,12
 445 447 445 447 433 420 c 128,-1,13
 421 393 421 393 400 370 c 128,-1,14
 379 347 379 347 347 327 c 2,15,-1
 333 318 l 1,16,17
 347 310 347 310 363 301.5 c 128,-1,18
 379 293 379 293 393 286 c 1,19,-1
 490 0 l 1,20,-1
 368 0 l 1,21,-1
 287 242 l 1,22,-1
 228 271 l 1,23,-1
 171 242 l 1,24,-1
 171 0 l 1,25,-1
 55 0 l 1,26,-1
 55 596 l 1,27,-1
 113 653 l 1,28,-1
 455 653 l 1,29,-1
 455 549 l 2,10,11
EndSplineSet
Validated: 1
EndChar

StartChar: s
Encoding: 115 115 86
Width: 475
GlyphClass: 2
Flags: W
LayerCount: 2
Fore
SplineSet
300 493 m 1,0,-1
 300 543 l 1,1,-1
 152 543 l 1,2,3
 152 518 152 518 154.5 499.5 c 128,-1,4
 157 481 157 481 162 470 c 0,5,6
 176 444 176 444 205 423 c 128,-1,7
 234 402 234 402 289 386 c 2,8,-1
 436 345 l 1,9,-1
 436 266 l 2,10,11
 436 218 436 218 428 170 c 128,-1,12
 420 122 420 122 392.5 84.5 c 128,-1,13
 365 47 365 47 313 23.5 c 128,-1,14
 261 0 261 0 173 0 c 2,15,-1
 35 0 l 1,16,-1
 35 9 l 1,17,-1
 138 112 l 1,18,-1
 196 112 l 2,19,20
 221 112 221 112 239 117.5 c 128,-1,21
 257 123 257 123 275 137 c 0,22,23
 300 156 300 156 309 184.5 c 128,-1,24
 318 213 318 213 318 250 c 2,25,-1
 318 260 l 1,26,-1
 298 266 l 2,27,28
 244 282 244 282 209 296 c 128,-1,29
 174 310 174 310 150 324 c 128,-1,30
 126 338 126 338 110 354 c 128,-1,31
 94 370 94 370 78 390 c 0,32,33
 58 416 58 416 47 458.5 c 128,-1,34
 36 501 36 501 36 548 c 2,35,-1
 36 594 l 1,36,-1
 95 653 l 1,37,-1
 460 653 l 1,38,-1
 300 493 l 1,0,-1
EndSplineSet
Validated: 1
EndChar

StartChar: t
Encoding: 116 116 87
Width: 474
GlyphClass: 2
Flags: W
LayerCount: 2
Fore
SplineSet
444 540 m 1,0,-1
 296 540 l 1,1,-1
 296 0 l 1,2,-1
 178 0 l 1,3,-1
 178 540 l 1,4,-1
 30 540 l 1,5,-1
 30 653 l 1,6,-1
 444 653 l 1,7,-1
 444 540 l 1,0,-1
EndSplineSet
Validated: 1
EndChar

StartChar: u
Encoding: 117 117 88
Width: 537
GlyphClass: 2
Flags: W
LayerCount: 2
Fore
SplineSet
482 0 m 1,0,-1
 364 0 l 2,1,2
 298 0 298 0 237.5 16 c 128,-1,3
 177 32 177 32 131 69 c 0,4,5
 105 90 105 90 88 116.5 c 128,-1,6
 71 143 71 143 61.5 177 c 128,-1,7
 52 211 52 211 48.5 253 c 128,-1,8
 45 295 45 295 45 347 c 2,9,-1
 45 653 l 1,10,-1
 163 653 l 1,11,-1
 163 322 l 2,12,13
 163 254 163 254 173 217 c 128,-1,14
 183 180 183 180 211 156 c 0,15,16
 234 136 234 136 266 124.5 c 128,-1,17
 298 113 298 113 344 113 c 2,18,-1
 364 113 l 1,19,-1
 364 653 l 1,20,-1
 482 653 l 1,21,-1
 482 0 l 1,0,-1
EndSplineSet
Validated: 1
EndChar

StartChar: v
Encoding: 118 118 89
Width: 519
GlyphClass: 2
Flags: W
LayerCount: 2
Fore
SplineSet
469 308 m 2,0,1
 469 259 469 259 463 215.5 c 128,-1,2
 457 172 457 172 437.5 132.5 c 128,-1,3
 418 93 418 93 381.5 56.5 c 128,-1,4
 345 20 345 20 285 -16 c 2,5,-1
 260 -31 l 1,6,-1
 235 -16 l 2,7,8
 172 20 172 20 135.5 56.5 c 128,-1,9
 99 93 99 93 80 132.5 c 128,-1,10
 61 172 61 172 55.5 215.5 c 128,-1,11
 50 259 50 259 50 308 c 2,12,-1
 50 653 l 1,13,-1
 168 653 l 1,14,-1
 168 299 l 2,15,16
 168 265 168 265 171.5 237.5 c 128,-1,17
 175 210 175 210 185 186.5 c 128,-1,18
 195 163 195 163 213 142.5 c 128,-1,19
 231 122 231 122 259 102 c 1,20,-1
 260 102 l 1,21,22
 288 122 288 122 306 142.5 c 128,-1,23
 324 163 324 163 334 186.5 c 128,-1,24
 344 210 344 210 347.5 237.5 c 128,-1,25
 351 265 351 265 351 299 c 2,26,-1
 351 653 l 1,27,-1
 469 653 l 1,28,-1
 469 308 l 2,0,1
EndSplineSet
Validated: 1
EndChar

StartChar: w
Encoding: 119 119 90
Width: 819
GlyphClass: 2
Flags: W
LayerCount: 2
Fore
SplineSet
152 653 m 5,0,-1
 156 384 l 6,1,2
 156 351 156 351 176.5 303 c 4,3,4
 193 265 193 265 217 242 c 4,5,6
 262 198 262 198 328 176 c 4,7,8
 331 175 331 175 341 170 c 5,9,10
 341 180 341 180 341 187 c 4,11,12
 341 191 341 191 341 194.5 c 132,-1,13
 341 198 341 198 341 201 c 6,14,-1
 341 207 l 6,15,16
 341 208 341 208 342 214 c 4,17,18
 342 223 342 223 342 234 c 4,19,20
 342 261 342 261 342 293.5 c 132,-1,21
 342 326 342 326 343 353 c 4,22,23
 343 364 343 364 343 372 c 6,24,-1
 343 384 l 5,25,-1
 343 398 l 6,26,27
 343 407 343 407 343 417 c 132,-1,28
 343 427 343 427 343 438 c 4,29,30
 343 476 343 476 343 479 c 6,31,-1
 343 492 l 5,32,-1
 343 503 l 6,33,34
 343 507 343 507 343 511 c 132,-1,35
 343 515 343 515 343 520 c 4,36,37
 343 531 343 531 343 544 c 132,-1,38
 343 557 343 557 343 571 c 132,-1,39
 343 585 343 585 343 598 c 132,-1,40
 343 611 343 611 343 622 c 6,41,-1
 343 647 l 5,42,-1
 343 653 l 5,43,-1
 463 653 l 5,44,-1
 461 385 l 5,45,-1
 463 374 l 6,46,47
 473 317 473 317 483.5 293 c 4,48,49
 500 255 500 255 524 232 c 4,50,51
 593 165 593 165 635 165 c 4,52,53
 636 165 636 165 663 154 c 5,54,55
 663 322 663 322 663 323 c 6,56,-1
 663 328 l 6,57,58
 664 449 664 449 664 464 c 6,59,-1
 664 537 l 5,60,-1
 665 653 l 5,61,-1
 781 653 l 5,62,63
 781 642 781 642 781 635 c 4,64,65
 781 625 781 625 781 610 c 4,66,67
 781 577 781 577 781 537 c 132,-1,68
 781 497 781 497 781 463 c 4,69,70
 781 449 781 449 781 439 c 6,71,-1
 780 430 l 5,72,-1
 780 425 l 6,73,74
 780 420 780 420 780 413 c 4,75,76
 780 396 780 396 780 376 c 4,77,78
 780 366 780 366 780 357 c 132,-1,79
 780 348 780 348 780 340 c 6,80,-1
 780 327 l 5,81,-1
 780 317 l 6,82,83
 780 314 780 314 780 310 c 132,-1,84
 780 306 780 306 780 301 c 4,85,86
 780 279 780 279 779 90 c 5,87,-1
 780 89 l 5,88,-1
 717 -5 l 5,89,90
 706 0 706 0 698 4 c 4,91,92
 690 9 690 9 675.5 16 c 4,93,94
 649 29 l 4,95,96
 647 31 647 31 644 32 c 4,97,98
 572 64 572 64 510 99 c 4,99,100
 480 116 480 116 460 134 c 5,101,102
 459 111 459 111 459 87 c 5,103,-1
 460 87 l 5,104,-1
 432 49 l 6,105,106
 430 46 430 46 427 41 c 6,107,-1
 395 -4 l 5,108,-1
 270 74 l 5,109,110
 223 98 223 98 203 109 c 4,111,112
 160 134 160 134 132 165 c 4,113,114
 94 207 94 207 67 272.5 c 4,115,116
 37 345 37 345 37 411 c 4,117,118
 37 416 37 416 37 420 c 4,119,120
 36 425 36 425 36 429 c 6,121,-1
 36 436 l 5,122,-1
 36 438 l 5,123,-1
 36 442 l 6,124,125
 36 446 36 446 36 451 c 4,126,127
 36 464 36 464 36.5 479 c 132,-1,128
 37 494 37 494 37 507 c 6,129,-1
 37 516 l 5,130,-1
 37 522 l 5,131,-1
 37 529 l 6,132,133
 37 533 37 533 37 537.5 c 132,-1,134
 37 542 37 542 37 548 c 6,135,-1
 37 567 l 5,136,-1
 37 573 l 5,137,-1
 37 579 l 5,138,-1
 37 586 l 6,139,140
 37 592 37 592 37 598 c 132,-1,141
 37 604 37 604 37 610.5 c 132,-1,142
 37 617 37 617 37 623 c 132,-1,143
 37 629 37 629 37 635 c 6,144,-1
 36 650 l 5,145,-1
 36 653 l 5,146,-1
 152 653 l 5,0,-1
EndSplineSet
Validated: 1
EndChar

StartChar: x
Encoding: 120 120 91
Width: 509
GlyphClass: 2
Flags: W
LayerCount: 2
Fore
SplineSet
392 379 m 1,0,-1
 337 343 l 1,1,-1
 400 314 l 1,2,-1
 489 0 l 1,3,-1
 362 0 l 1,4,-1
 289 262 l 1,5,-1
 253 287 l 1,6,-1
 224 263 l 1,7,-1
 151 0 l 1,8,-1
 24 0 l 1,9,-1
 117 314 l 1,10,-1
 175 343 l 1,11,-1
 121 379 l 1,12,-1
 34 653 l 1,13,-1
 161 653 l 1,14,-1
 221 440 l 1,15,-1
 260 410 l 1,16,-1
 291 436 l 1,17,-1
 352 653 l 1,18,-1
 479 653 l 1,19,-1
 392 379 l 1,0,-1
EndSplineSet
Validated: 1
EndChar

StartChar: y
Encoding: 121 121 92
Width: 466
GlyphClass: 2
Flags: W
LayerCount: 2
Fore
SplineSet
444 603 m 2,0,1
 435 543 435 543 423 498.5 c 128,-1,2
 411 454 411 454 393 417.5 c 128,-1,3
 375 381 375 381 351.5 348.5 c 128,-1,4
 328 316 328 316 296 280 c 1,5,-1
 296 52 l 1,6,-1
 206 -39 l 1,7,-1
 179 -39 l 1,8,-1
 179 277 l 1,9,-1
 -5 653 l 1,10,-1
 129 653 l 1,11,-1
 248 396 l 1,12,13
 267 421 267 421 280.5 446.5 c 128,-1,14
 294 472 294 472 303.5 502 c 128,-1,15
 313 532 313 532 319.5 569 c 128,-1,16
 326 606 326 606 330 653 c 1,17,-1
 451 653 l 1,18,-1
 444 603 l 2,0,1
EndSplineSet
Validated: 1
EndChar

StartChar: z
Encoding: 122 122 93
Width: 490
GlyphClass: 2
Flags: W
LayerCount: 2
Fore
SplineSet
344 436 m 2,0,1
 302 369 302 369 273.5 320 c 128,-1,2
 245 271 245 271 226 234 c 128,-1,3
 207 197 207 197 196.5 169 c 128,-1,4
 186 141 186 141 179 114 c 1,5,-1
 179 113 l 1,6,-1
 353 113 l 1,7,-1
 458 8 l 1,8,-1
 458 0 l 1,9,-1
 35 0 l 1,10,11
 37 49 37 49 45.5 84 c 128,-1,12
 54 119 54 119 66 158 c 0,13,14
 85 214 85 214 125.5 292.5 c 128,-1,15
 166 371 166 371 241 487 c 2,16,-1
 278 545 l 1,17,-1
 274 545 l 1,18,-1
 162 545 l 1,19,-1
 162 495 l 1,20,-1
 15 653 l 1,21,-1
 480 653 l 1,22,-1
 344 436 l 2,0,1
EndSplineSet
Validated: 1
EndChar

StartChar: braceleft
Encoding: 123 123 94
Width: 323
GlyphClass: 2
Flags: W
LayerCount: 2
Fore
SplineSet
300 788 m 1,0,-1
 227 716 l 1,1,-1
 181 716 l 1,2,-1
 181 519 l 2,3,4
 181 479 181 479 176 453 c 128,-1,5
 171 427 171 427 162 410.5 c 128,-1,6
 153 394 153 394 141 384 c 128,-1,7
 129 374 129 374 116 366 c 1,8,-1
 116 362 l 1,9,-1
 181 327 l 1,10,-1
 181 -14 l 1,11,-1
 300 -14 l 1,12,-1
 300 -26 l 1,13,-1
 228 -98 l 1,14,-1
 132 -98 l 1,15,-1
 75 -42 l 1,16,-1
 75 297 l 1,17,-1
 0 336 l 1,18,-1
 0 374 l 1,19,20
 18 384 18 384 31.5 395 c 128,-1,21
 45 406 45 406 55 421 c 128,-1,22
 65 436 65 436 70 458 c 128,-1,23
 75 480 75 480 75 511 c 2,24,-1
 75 744 l 1,25,-1
 132 800 l 1,26,-1
 300 800 l 1,27,-1
 300 788 l 1,0,-1
EndSplineSet
Validated: 1
EndChar

StartChar: bar
Encoding: 124 124 95
Width: 411
GlyphClass: 2
Flags: W
LayerCount: 2
Fore
SplineSet
236 -181 m 1,0,-1
 175 -181 l 1,1,-1
 175 780 l 1,2,-1
 236 780 l 1,3,-1
 236 -181 l 1,0,-1
EndSplineSet
Validated: 1
EndChar

StartChar: braceright
Encoding: 125 125 96
Width: 323
GlyphClass: 2
Flags: W
LayerCount: 2
Fore
SplineSet
23 -86 m 1,0,-1
 96 -14 l 1,1,-1
 142 -14 l 1,2,-1
 142 183 l 2,3,4
 142 223 142 223 147 249 c 128,-1,5
 152 275 152 275 161 291.5 c 128,-1,6
 170 308 170 308 182 318 c 128,-1,7
 194 328 194 328 207 336 c 1,8,-1
 207 340 l 1,9,-1
 142 375 l 1,10,-1
 142 716 l 1,11,-1
 23 716 l 1,12,-1
 23 728 l 1,13,-1
 95 800 l 1,14,-1
 191 800 l 1,15,-1
 248 744 l 1,16,-1
 248 405 l 1,17,-1
 323 366 l 1,18,-1
 323 328 l 1,19,20
 305 318 305 318 291.5 307 c 128,-1,21
 278 296 278 296 268 281 c 128,-1,22
 258 266 258 266 253 244.5 c 128,-1,23
 248 223 248 223 248 191 c 2,24,-1
 248 -42 l 1,25,-1
 191 -98 l 1,26,-1
 23 -98 l 1,27,-1
 23 -86 l 1,0,-1
EndSplineSet
Validated: 1
EndChar

StartChar: asciitilde
Encoding: 126 126 97
Width: 541
GlyphClass: 2
Flags: W
LayerCount: 2
Fore
SplineSet
493 378 m 2,0,1
 493 311 493 311 452 274.5 c 128,-1,2
 411 238 411 238 314 238 c 2,3,-1
 263 238 l 1,4,-1
 254 263 l 2,5,6
 235 316 235 316 203 335.5 c 128,-1,7
 171 355 171 355 129 355 c 1,8,-1
 129 303 l 1,9,-1
 62 235 l 1,10,-1
 50 235 l 1,11,-1
 50 385 l 1,12,-1
 99 434 l 1,13,-1
 113 434 l 2,14,15
 152 434 152 434 189 427 c 128,-1,16
 226 420 226 420 250 403 c 0,17,18
 275 386 275 386 293.5 363 c 128,-1,19
 312 340 312 340 322 319 c 1,20,-1
 332 319 l 2,21,22
 346 319 346 319 360 321 c 128,-1,23
 374 323 374 323 385 328.5 c 128,-1,24
 396 334 396 334 403 343.5 c 128,-1,25
 410 353 410 353 410 368 c 2,26,-1
 410 374 l 1,27,-1
 481 443 l 1,28,-1
 493 443 l 1,29,-1
 493 378 l 2,0,1
EndSplineSet
Validated: 1
EndChar

StartChar: exclamdown
Encoding: 161 161 99
Width: 306
GlyphClass: 2
Flags: W
LayerCount: 2
Fore
SplineSet
102 461 m 1,0,-1
 129 461 l 1,1,-1
 210 379 l 1,2,-1
 230 -120 l 1,3,-1
 82 -120 l 1,4,-1
 102 461 l 1,0,-1
96 656 m 1,5,-1
 219 656 l 1,6,-1
 219 527 l 1,7,-1
 96 527 l 1,8,-1
 96 656 l 1,5,-1
EndSplineSet
Validated: 1
EndChar

StartChar: cent
Encoding: 162 162 100
Width: 541
GlyphClass: 2
Flags: W
LayerCount: 2
Fore
SplineSet
501 553 m 1,0,-1
 403 455 l 1,1,-1
 331 455 l 1,2,-1
 310 135 l 1,3,4
 317 133 317 133 328 129 c 0,5,6
 338 126 338 126 352.5 122 c 128,-1,7
 367 118 367 118 387 113 c 2,8,-1
 444 98 l 1,9,-1
 444 -14 l 1,10,-1
 373 5 l 2,11,12
 357 9 357 9 344 12.5 c 128,-1,13
 331 16 331 16 321 19 c 0,14,15
 310 22 310 22 301 25 c 1,16,-1
 294 -72 l 1,17,-1
 235 -72 l 1,18,-1
 243 44 l 1,19,20
 200 61 200 61 172.5 81.5 c 128,-1,21
 145 102 145 102 125 126 c 0,22,23
 97 158 97 158 86 198.5 c 128,-1,24
 75 239 75 239 75 293 c 2,25,-1
 75 504 l 1,26,-1
 134 563 l 1,27,-1
 279 563 l 1,28,-1
 286 662 l 1,29,-1
 345 662 l 1,30,-1
 338 563 l 1,31,-1
 501 563 l 1,32,-1
 501 553 l 1,0,-1
190 455 m 1,33,-1
 190 290 l 2,34,35
 190 252 190 252 194.5 230.5 c 128,-1,36
 199 209 199 209 208 195 c 0,37,38
 216 184 216 184 227 174 c 128,-1,39
 238 164 238 164 253 158 c 1,40,-1
 272 455 l 1,41,-1
 190 455 l 1,33,-1
EndSplineSet
Validated: 1
EndChar

StartChar: sterling
Encoding: 163 163 101
Width: 541
GlyphClass: 2
Flags: W
LayerCount: 2
Fore
SplineSet
362 494 m 1,0,-1
 362 544 l 1,1,-1
 233 544 l 1,2,-1
 233 387 l 1,3,-1
 398 387 l 1,4,-1
 398 376 l 1,5,-1
 321 299 l 1,6,-1
 232 299 l 1,7,-1
 232 282 l 2,8,9
 232 256 232 256 230.5 234 c 128,-1,10
 229 212 229 212 224.5 192 c 128,-1,11
 220 172 220 172 213 151.5 c 128,-1,12
 206 131 206 131 194 107 c 1,13,-1
 406 107 l 1,14,-1
 505 8 l 1,15,-1
 505 0 l 1,16,-1
 35 0 l 1,17,-1
 35 41 l 1,18,19
 79 90 79 90 98 143.5 c 128,-1,20
 117 197 117 197 117 272 c 2,21,-1
 117 299 l 1,22,-1
 41 299 l 1,23,-1
 41 387 l 1,24,-1
 117 387 l 1,25,-1
 117 594 l 1,26,-1
 176 653 l 1,27,-1
 522 653 l 1,28,-1
 362 494 l 1,0,-1
EndSplineSet
Validated: 1
EndChar

StartChar: yen
Encoding: 165 165 103
Width: 541
GlyphClass: 2
Flags: W
LayerCount: 2
Fore
SplineSet
482 603 m 2,0,1
 475 553 475 553 467.5 515.5 c 128,-1,2
 460 478 460 478 451 448 c 128,-1,3
 442 418 442 418 430.5 393.5 c 128,-1,4
 419 369 419 369 404 346 c 1,5,-1
 464 346 l 1,6,-1
 464 280 l 1,7,-1
 354 280 l 1,8,-1
 324 245 l 1,9,-1
 324 223 l 1,10,-1
 460 223 l 1,11,-1
 460 210 l 1,12,-1
 404 155 l 1,13,-1
 324 155 l 1,14,-1
 324 52 l 1,15,-1
 238 -35 l 1,16,-1
 211 -35 l 1,17,-1
 211 155 l 1,18,-1
 142 155 l 1,19,-1
 86 210 l 1,20,-1
 86 223 l 1,21,-1
 211 223 l 1,22,-1
 211 241 l 1,23,-1
 193 280 l 1,24,-1
 82 280 l 1,25,-1
 82 346 l 1,26,-1
 165 346 l 1,27,-1
 27 653 l 1,28,-1
 159 653 l 1,29,-1
 283 352 l 1,30,31
 300 373 300 373 313.5 396.5 c 128,-1,32
 327 420 327 420 337.5 453.5 c 128,-1,33
 348 487 348 487 356 535 c 128,-1,34
 364 583 364 583 371 653 c 1,35,-1
 489 653 l 1,36,-1
 482 603 l 2,0,1
EndSplineSet
Validated: 1
EndChar

StartChar: section
Encoding: 167 167 105
Width: 567
GlyphClass: 2
Flags: W
LayerCount: 2
Fore
SplineSet
349 616 m 1,0,-1
 349 666 l 1,1,-1
 198 666 l 1,2,3
 198 641 198 641 200.5 622.5 c 128,-1,4
 203 604 203 604 208 593 c 0,5,6
 222 567 222 567 253 546 c 128,-1,7
 284 525 284 525 341 509 c 2,8,-1
 495 468 l 1,9,-1
 495 415 l 2,10,11
 495 364 495 364 477 325.5 c 128,-1,12
 459 287 459 287 426 254 c 1,13,-1
 478 241 l 1,14,-1
 478 162 l 2,15,16
 478 114 478 114 469.5 66 c 128,-1,17
 461 18 461 18 432.5 -19.5 c 128,-1,18
 404 -57 404 -57 349.5 -80.5 c 128,-1,19
 295 -104 295 -104 202 -104 c 2,20,-1
 71 -104 l 1,21,-1
 71 -95 l 1,22,-1
 173 8 l 1,23,-1
 227 8 l 2,24,25
 253 8 253 8 271.5 13.5 c 128,-1,26
 290 19 290 19 309 33 c 0,27,28
 335 52 335 52 344.5 80.5 c 128,-1,29
 354 109 354 109 354 146 c 2,30,-1
 354 156 l 1,31,-1
 338 160 l 2,32,33
 280 174 280 174 242.5 187 c 128,-1,34
 205 200 205 200 180 213.5 c 128,-1,35
 155 227 155 227 138.5 243 c 128,-1,36
 122 259 122 259 105 278 c 0,37,38
 83 304 83 304 71.5 344 c 128,-1,39
 60 384 60 384 60 429 c 1,40,-1
 128 502 l 1,41,-1
 120 513 l 2,42,43
 99 539 99 539 87.5 581.5 c 128,-1,44
 76 624 76 624 76 671 c 2,45,-1
 76 717 l 1,46,-1
 138 776 l 1,47,-1
 507 776 l 1,48,-1
 349 616 l 1,0,-1
350 389 m 2,49,50
 299 403 299 403 265 415.5 c 128,-1,51
 231 428 231 428 206 440 c 1,52,-1
 179 409 l 1,53,54
 179 401 179 401 181 383 c 128,-1,55
 183 365 183 365 201 343 c 0,56,57
 215 325 215 325 238.5 310.5 c 128,-1,58
 262 296 262 296 316 282 c 1,59,60
 336 300 336 300 353.5 324 c 128,-1,61
 371 348 371 348 371 373 c 2,62,-1
 371 383 l 1,63,-1
 350 389 l 2,49,50
EndSplineSet
Validated: 1
EndChar

StartChar: dieresis
Encoding: 168 168 106
Width: 539
GlyphClass: 2
Flags: W
LayerCount: 2
Fore
SplineSet
157 846 m 0,0,1
 180 846 180 846 196.5 829 c 128,-1,2
 213 812 213 812 213 789 c 256,3,4
 213 766 213 766 196.5 749 c 128,-1,5
 180 732 180 732 157 732 c 0,6,7
 133 732 133 732 116.5 749 c 128,-1,8
 100 766 100 766 100 789 c 256,9,10
 100 812 100 812 116.5 829 c 128,-1,11
 133 846 133 846 157 846 c 0,0,1
439 789 m 256,12,13
 439 766 439 766 422.5 749 c 128,-1,14
 406 732 406 732 382 732 c 0,15,16
 359 732 359 732 342.5 749 c 128,-1,17
 326 766 326 766 326 789 c 256,18,19
 326 812 326 812 342.5 829 c 128,-1,20
 359 846 359 846 382 846 c 0,21,22
 406 846 406 846 422.5 829 c 128,-1,23
 439 812 439 812 439 789 c 256,12,13
EndSplineSet
Validated: 1
EndChar

StartChar: copyright
Encoding: 169 169 107
Width: 897
GlyphClass: 2
Flags: W
LayerCount: 2
Fore
SplineSet
469 427 m 1,0,-1
 469 465 l 1,1,-1
 384 465 l 1,2,-1
 384 338 l 2,3,4
 384 315 384 315 386 301.5 c 128,-1,5
 388 288 388 288 395 280 c 0,6,7
 404 269 404 269 422 258 c 128,-1,8
 440 247 440 247 468 239 c 2,9,-1
 546 217 l 1,10,-1
 546 125 l 1,11,-1
 466 147 l 2,12,13
 410 163 410 163 375 182.5 c 128,-1,14
 340 202 340 202 321 224 c 256,15,16
 302 246 302 246 294.5 276 c 128,-1,17
 287 306 287 306 287 342 c 2,18,-1
 287 511 l 1,19,-1
 332 547 l 1,20,-1
 589 547 l 1,21,-1
 469 427 l 1,0,-1
827 359 m 256,22,23
 827 281 827 281 797.5 211.5 c 128,-1,24
 768 142 768 142 716.5 90.5 c 128,-1,25
 665 39 665 39 596 9 c 128,-1,26
 527 -21 527 -21 448 -21 c 0,27,28
 370 -21 370 -21 301 8.5 c 128,-1,29
 232 38 232 38 180.5 89.5 c 128,-1,30
 129 141 129 141 99.5 210.5 c 128,-1,31
 70 280 70 280 70 359 c 0,32,33
 70 437 70 437 99.5 505.5 c 128,-1,34
 129 574 129 574 180.5 625.5 c 128,-1,35
 232 677 232 677 301 706.5 c 128,-1,36
 370 736 370 736 448 736 c 0,37,38
 527 736 527 736 596 706.5 c 128,-1,39
 665 677 665 677 716.5 625.5 c 128,-1,40
 768 574 768 574 797.5 505.5 c 128,-1,41
 827 437 827 437 827 359 c 256,22,23
448 668 m 256,42,43
 385 668 385 668 330.5 643.5 c 128,-1,44
 276 619 276 619 235.5 577 c 128,-1,45
 195 535 195 535 172 478.5 c 128,-1,46
 149 422 149 422 149 359 c 256,47,48
 149 296 149 296 172 239 c 128,-1,49
 195 182 195 182 235.5 139.5 c 128,-1,50
 276 97 276 97 330.5 72 c 128,-1,51
 385 47 385 47 448 47 c 256,52,53
 511 47 511 47 566 72 c 128,-1,54
 621 97 621 97 661.5 140 c 128,-1,55
 702 183 702 183 725 239.5 c 128,-1,56
 748 296 748 296 748 359 c 0,57,58
 748 421 748 421 725 477 c 128,-1,59
 702 533 702 533 661.5 575.5 c 128,-1,60
 621 618 621 618 566 643 c 128,-1,61
 511 668 511 668 448 668 c 256,42,43
EndSplineSet
Validated: 1
EndChar

StartChar: ordfeminine
Encoding: 170 170 108
Width: 412
GlyphClass: 2
Flags: W
LayerCount: 2
Fore
SplineSet
222 668 m 2,0,1
 268 645 268 645 294.5 623 c 128,-1,2
 321 601 321 601 335 579.5 c 128,-1,3
 349 558 349 558 353 535 c 128,-1,4
 357 512 357 512 357 488 c 2,5,-1
 357 295 l 1,6,-1
 262 295 l 1,7,-1
 262 414 l 1,8,-1
 150 386 l 1,9,-1
 150 295 l 1,10,-1
 55 295 l 1,11,-1
 55 479 l 2,12,13
 55 508 55 508 58.5 532 c 128,-1,14
 62 556 62 556 75.5 578.5 c 128,-1,15
 89 601 89 601 116 622.5 c 128,-1,16
 143 644 143 644 190 668 c 2,17,-1
 206 676 l 1,18,-1
 222 668 l 2,0,1
205 578 m 1,19,20
 170 559 170 559 160 538 c 128,-1,21
 150 517 150 517 150 482 c 2,22,-1
 150 470 l 1,23,-1
 262 497 l 1,24,-1
 262 503 l 2,25,26
 262 548 262 548 207 578 c 1,27,-1
 205 578 l 1,19,20
EndSplineSet
Validated: 1
EndChar

StartChar: guillemotleft
Encoding: 171 171 109
Width: 517
GlyphClass: 2
Flags: W
LayerCount: 2
Fore
SplineSet
159 329 m 1,0,-1
 258 196 l 1,1,-1
 258 176 l 1,2,-1
 199 134 l 1,3,-1
 60 324 l 1,4,-1
 196 514 l 1,5,-1
 258 470 l 1,6,-1
 159 329 l 1,0,-1
366 329 m 1,7,-1
 460 203 l 1,8,-1
 460 183 l 1,9,-1
 406 145 l 1,10,-1
 271 324 l 1,11,-1
 404 504 l 1,12,-1
 458 460 l 1,13,-1
 366 329 l 1,7,-1
EndSplineSet
Validated: 1
EndChar

StartChar: uni00AD
Encoding: 173 173 111
Width: 388
GlyphClass: 2
Flags: W
LayerCount: 2
Fore
SplineSet
348 347 m 1,0,-1
 284 284 l 1,1,-1
 40 284 l 1,2,-1
 40 312 l 1,3,-1
 104 375 l 1,4,-1
 348 375 l 1,5,-1
 348 347 l 1,0,-1
EndSplineSet
Validated: 1
Substitution2: "'frac' Diagonal Fractions in Latin lookup 10 subtable" minus
Substitution2: "'aalt' Access All Alternates in Latin lookup 0 subtable" minus
EndChar

StartChar: registered
Encoding: 174 174 112
Width: 897
GlyphClass: 2
Flags: W
LayerCount: 2
Fore
SplineSet
827 359 m 256,0,1
 827 281 827 281 797.5 211.5 c 128,-1,2
 768 142 768 142 716.5 90.5 c 128,-1,3
 665 39 665 39 596 9 c 128,-1,4
 527 -21 527 -21 448 -21 c 0,5,6
 370 -21 370 -21 301 8.5 c 128,-1,7
 232 38 232 38 180.5 89.5 c 128,-1,8
 129 141 129 141 99.5 210.5 c 128,-1,9
 70 280 70 280 70 359 c 0,10,11
 70 437 70 437 99.5 505.5 c 128,-1,12
 129 574 129 574 180.5 625.5 c 128,-1,13
 232 677 232 677 301 706.5 c 128,-1,14
 370 736 370 736 448 736 c 0,15,16
 527 736 527 736 596 706.5 c 128,-1,17
 665 677 665 677 716.5 625.5 c 128,-1,18
 768 574 768 574 797.5 505.5 c 128,-1,19
 827 437 827 437 827 359 c 256,0,1
448 668 m 256,20,21
 385 668 385 668 330.5 643.5 c 128,-1,22
 276 619 276 619 235.5 577 c 128,-1,23
 195 535 195 535 172 478.5 c 128,-1,24
 149 422 149 422 149 359 c 256,25,26
 149 296 149 296 172 239 c 128,-1,27
 195 182 195 182 235.5 139.5 c 128,-1,28
 276 97 276 97 330.5 72 c 128,-1,29
 385 47 385 47 448 47 c 256,30,31
 511 47 511 47 566 72 c 128,-1,32
 621 97 621 97 661.5 140 c 128,-1,33
 702 183 702 183 725 239.5 c 128,-1,34
 748 296 748 296 748 359 c 0,35,36
 748 421 748 421 725 477 c 128,-1,37
 702 533 702 533 661.5 575.5 c 128,-1,38
 621 618 621 618 566 643 c 128,-1,39
 511 668 511 668 448 668 c 256,20,21
402 465 m 1,40,-1
 402 378 l 1,41,-1
 429 391 l 2,42,43
 465 410 465 410 480 427 c 0,44,45
 491 442 491 442 491 465 c 1,46,-1
 402 465 l 1,40,-1
586 480 m 2,47,48
 586 439 586 439 572 411 c 128,-1,49
 558 383 558 383 514 359 c 1,50,-1
 547 343 l 1,51,-1
 611 177 l 1,52,-1
 513 177 l 1,53,-1
 463 312 l 1,54,-1
 435 326 l 1,55,-1
 402 309 l 1,56,-1
 402 177 l 1,57,-1
 307 177 l 1,58,-1
 307 512 l 1,59,-1
 351 547 l 1,60,-1
 586 547 l 1,61,-1
 586 480 l 2,47,48
EndSplineSet
Validated: 1
EndChar

StartChar: macron
Encoding: 175 175 113
Width: 410
GlyphClass: 2
Flags: W
LayerCount: 2
Fore
SplineSet
341 774 m 1,0,-1
 320 754 l 1,1,-1
 60 754 l 1,2,-1
 60 798 l 1,3,-1
 81 818 l 1,4,-1
 341 818 l 1,5,-1
 341 774 l 1,0,-1
EndSplineSet
Validated: 1
EndChar

StartChar: twosuperior
Encoding: 178 178 116
Width: 389
GlyphClass: 2
Flags: W
LayerCount: 2
Fore
SplineSet
315 487 m 1,0,-1
 153 395 l 1,1,-1
 153 373 l 1,2,-1
 221 373 l 1,3,-1
 221 403 l 1,4,-1
 315 362 l 1,5,-1
 315 294 l 1,6,-1
 58 294 l 1,7,-1
 58 403 l 2,8,9
 58 420 58 420 64.5 430.5 c 128,-1,10
 71 441 71 441 91 453 c 2,11,-1
 219 528 l 1,12,-1
 219 583 l 1,13,-1
 150 561 l 1,14,-1
 150 518 l 1,15,-1
 55 559 l 1,16,-1
 55 585 l 2,17,18
 55 605 55 605 60.5 614.5 c 128,-1,19
 66 624 66 624 89 632 c 2,20,-1
 210 671 l 1,21,-1
 315 622 l 1,22,-1
 315 487 l 1,0,-1
EndSplineSet
Validated: 1
EndChar

StartChar: threesuperior
Encoding: 179 179 117
Width: 370
GlyphClass: 2
Flags: W
LayerCount: 2
Fore
SplineSet
315 501 m 1,0,-1
 277 478 l 1,1,-1
 315 455 l 1,2,-1
 315 330 l 1,3,-1
 210 281 l 1,4,-1
 89 320 l 2,5,6
 66 328 66 328 60.5 337.5 c 128,-1,7
 55 347 55 347 55 367 c 2,8,-1
 55 393 l 1,9,-1
 150 434 l 1,10,-1
 150 391 l 1,11,-1
 220 369 l 1,12,-1
 220 442 l 1,13,-1
 167 477 l 1,14,-1
 220 511 l 1,15,-1
 220 584 l 1,16,-1
 150 562 l 1,17,-1
 150 519 l 1,18,-1
 55 560 l 1,19,-1
 55 586 l 2,20,21
 55 606 55 606 60.5 615.5 c 128,-1,22
 66 625 66 625 89 633 c 2,23,-1
 210 672 l 1,24,-1
 315 623 l 1,25,-1
 315 501 l 1,0,-1
EndSplineSet
Validated: 1
EndChar

StartChar: acute
Encoding: 180 180 118
Width: 400
GlyphClass: 2
Flags: W
LayerCount: 2
Fore
SplineSet
395 796 m 1,0,-1
 273 730 l 1,1,-1
 190 730 l 1,2,-1
 190 756 l 1,3,-1
 356 859 l 1,4,-1
 395 796 l 1,0,-1
EndSplineSet
Validated: 1
Substitution2: "'locl' Localized Forms in Latin lookup 3 subtable" acute.loclPLK
Substitution2: "'aalt' Access All Alternates in Latin lookup 0 subtable" acute.loclPLK
EndChar

StartChar: mu
Encoding: 181 181 119
Width: 547
GlyphClass: 2
Flags: W
LayerCount: 2
Fore
SplineSet
492 0 m 1,0,-1
 374 0 l 2,1,2
 345 0 345 0 315 3.5 c 128,-1,3
 285 7 285 7 257.5 15 c 128,-1,4
 230 23 230 23 206 35.5 c 128,-1,5
 182 48 182 48 166 66 c 1,6,-1
 166 -42 l 1,7,-1
 81 -128 l 1,8,-1
 55 -128 l 1,9,-1
 55 653 l 1,10,-1
 173 653 l 1,11,-1
 173 260 l 2,12,13
 173 226 173 226 183 198.5 c 128,-1,14
 193 171 193 171 221 150 c 0,15,16
 244 133 244 133 276 123 c 128,-1,17
 308 113 308 113 354 113 c 2,18,-1
 374 113 l 1,19,-1
 374 653 l 1,20,-1
 492 653 l 1,21,-1
 492 0 l 1,0,-1
EndSplineSet
Validated: 1
EndChar

StartChar: paragraph
Encoding: 182 182 120
Width: 622
GlyphClass: 2
Flags: W
LayerCount: 2
Fore
SplineSet
562 -88 m 1,0,-1
 535 -88 l 1,1,-1
 470 -23 l 1,2,-1
 470 699 l 1,3,-1
 378 699 l 1,4,-1
 378 -88 l 1,5,-1
 351 -88 l 1,6,-1
 286 -23 l 1,7,-1
 286 422 l 1,8,9
 237 441 237 441 211 461.5 c 128,-1,10
 185 482 185 482 162 513 c 0,11,12
 142 539 142 539 131 581.5 c 128,-1,13
 120 624 120 624 120 671 c 2,14,-1
 120 717 l 1,15,-1
 179 776 l 1,16,-1
 562 776 l 1,17,-1
 562 -88 l 1,0,-1
EndSplineSet
Validated: 1
EndChar

StartChar: periodcentered
Encoding: 183 183 121
Width: 268
GlyphClass: 2
Flags: W
LayerCount: 2
Fore
SplineSet
198 272 m 1,0,-1
 171 272 l 1,1,-1
 70 272 l 1,2,-1
 70 340 l 1,3,-1
 140 409 l 1,4,-1
 198 409 l 1,5,-1
 198 272 l 1,0,-1
EndSplineSet
Validated: 1
EndChar

StartChar: cedilla
Encoding: 184 184 122
Width: 413
GlyphClass: 2
Flags: W
LayerCount: 2
Fore
SplineSet
218 -52 m 1,0,-1
 305 -82 l 1,1,2
 305 -108 305 -108 300.5 -130 c 128,-1,3
 296 -152 296 -152 279 -172 c 0,4,5
 262 -193 262 -193 234 -209 c 128,-1,6
 206 -225 206 -225 163 -233 c 2,7,-1
 125 -240 l 1,8,-1
 125 -177 l 1,9,-1
 143 -172 l 2,10,11
 169 -164 169 -164 185.5 -157.5 c 128,-1,12
 202 -151 202 -151 210 -145 c 0,13,14
 223 -133 223 -133 223 -113 c 1,15,-1
 140 -83 l 1,16,-1
 140 -64 l 1,17,-1
 245 22 l 1,18,-1
 268 5 l 1,19,-1
 218 -52 l 1,0,-1
EndSplineSet
Validated: 1
EndChar

StartChar: onesuperior
Encoding: 185 185 123
Width: 272
GlyphClass: 2
Flags: W
LayerCount: 2
Fore
SplineSet
198 276 m 1,0,-1
 102 322 l 1,1,-1
 102 570 l 1,2,-1
 47 602 l 1,3,-1
 198 676 l 1,4,-1
 198 276 l 1,0,-1
EndSplineSet
Validated: 1
EndChar

StartChar: ordmasculine
Encoding: 186 186 124
Width: 401
GlyphClass: 2
Flags: W
LayerCount: 2
Fore
SplineSet
200 581 m 1,0,1
 171 566 171 566 161.5 552 c 128,-1,2
 152 538 152 538 152 511 c 2,3,-1
 152 444 l 2,4,5
 152 417 152 417 161.5 403 c 128,-1,6
 171 389 171 389 200 374 c 1,7,-1
 202 374 l 1,8,9
 232 389 232 389 240.5 403.5 c 128,-1,10
 249 418 249 418 249 444 c 2,11,-1
 249 511 l 2,12,13
 249 537 249 537 240.5 551.5 c 128,-1,14
 232 566 232 566 202 581 c 1,15,-1
 200 581 l 1,0,1
221 667 m 2,16,17
 261 649 261 649 285.5 631.5 c 128,-1,18
 310 614 310 614 323.5 595 c 128,-1,19
 337 576 337 576 341.5 554.5 c 128,-1,20
 346 533 346 533 346 507 c 2,21,-1
 346 448 l 2,22,23
 346 422 346 422 341.5 400.5 c 128,-1,24
 337 379 337 379 323.5 360 c 128,-1,25
 310 341 310 341 285.5 323.5 c 128,-1,26
 261 306 261 306 221 288 c 2,27,-1
 201 279 l 1,28,-1
 180 288 l 2,29,30
 138 306 138 306 113 323.5 c 128,-1,31
 88 341 88 341 75.5 360 c 128,-1,32
 63 379 63 379 59 400.5 c 128,-1,33
 55 422 55 422 55 448 c 2,34,-1
 55 507 l 2,35,36
 55 533 55 533 59 554.5 c 128,-1,37
 63 576 63 576 75.5 595 c 128,-1,38
 88 614 88 614 113 631.5 c 128,-1,39
 138 649 138 649 180 667 c 2,40,-1
 201 676 l 1,41,-1
 221 667 l 2,16,17
EndSplineSet
Validated: 1
EndChar

StartChar: guillemotright
Encoding: 187 187 125
Width: 517
GlyphClass: 2
Flags: W
LayerCount: 2
Fore
SplineSet
457 324 m 1,0,-1
 321 134 l 1,1,-1
 259 178 l 1,2,-1
 358 319 l 1,3,-1
 259 452 l 1,4,-1
 259 472 l 1,5,-1
 318 514 l 1,6,-1
 457 324 l 1,0,-1
246 324 m 1,7,-1
 113 144 l 1,8,-1
 59 188 l 1,9,-1
 151 319 l 1,10,-1
 57 445 l 1,11,-1
 57 465 l 1,12,-1
 111 503 l 1,13,-1
 246 324 l 1,7,-1
EndSplineSet
Validated: 1
EndChar

StartChar: onequarter
Encoding: 188 188 126
Width: 719
GlyphClass: 2
Flags: W
LayerCount: 2
Fore
SplineSet
494 162 m 1,0,-1
 547 162 l 1,1,-1
 547 220 l 1,2,-1
 636 266 l 1,3,-1
 636 162 l 1,4,-1
 690 162 l 1,5,-1
 636 91 l 1,6,-1
 636 -21 l 1,7,-1
 546 19 l 1,8,-1
 546 83 l 1,9,-1
 396 83 l 1,10,-1
 396 151 l 1,11,-1
 484 372 l 1,12,-1
 580 372 l 1,13,-1
 494 162 l 1,0,-1
224 -24 m 1,14,-1
 143 -24 l 1,15,-1
 437 679 l 1,16,-1
 519 679 l 1,17,-1
 224 -24 l 1,14,-1
181 276 m 1,18,-1
 85 322 l 1,19,-1
 85 570 l 1,20,-1
 30 602 l 1,21,-1
 181 676 l 1,22,-1
 181 276 l 1,18,-1
EndSplineSet
Validated: 1
EndChar

StartChar: onehalf
Encoding: 189 189 127
Width: 763
GlyphClass: 2
Flags: W
LayerCount: 2
Fore
SplineSet
224 -24 m 1,0,-1
 143 -24 l 1,1,-1
 437 679 l 1,2,-1
 519 679 l 1,3,-1
 224 -24 l 1,0,-1
181 276 m 1,4,-1
 85 322 l 1,5,-1
 85 570 l 1,6,-1
 30 602 l 1,7,-1
 181 676 l 1,8,-1
 181 276 l 1,4,-1
718 193 m 1,9,-1
 556 101 l 1,10,-1
 556 79 l 1,11,-1
 624 79 l 1,12,-1
 624 109 l 1,13,-1
 718 68 l 1,14,-1
 718 0 l 1,15,-1
 461 0 l 1,16,-1
 461 109 l 2,17,18
 461 126 461 126 467.5 136.5 c 128,-1,19
 474 147 474 147 494 159 c 2,20,-1
 622 234 l 1,21,-1
 622 289 l 1,22,-1
 553 267 l 1,23,-1
 553 224 l 1,24,-1
 458 265 l 1,25,-1
 458 291 l 2,26,27
 458 311 458 311 463.5 320.5 c 128,-1,28
 469 330 469 330 492 338 c 2,29,-1
 613 377 l 1,30,-1
 718 328 l 1,31,-1
 718 193 l 1,9,-1
EndSplineSet
Validated: 1
EndChar

StartChar: threequarters
Encoding: 190 190 128
Width: 811
GlyphClass: 2
Flags: W
LayerCount: 2
Fore
SplineSet
586 162 m 1,0,-1
 639 162 l 1,1,-1
 639 220 l 1,2,-1
 728 266 l 1,3,-1
 728 162 l 1,4,-1
 782 162 l 1,5,-1
 728 91 l 1,6,-1
 728 -21 l 1,7,-1
 638 19 l 1,8,-1
 638 83 l 1,9,-1
 488 83 l 1,10,-1
 488 151 l 1,11,-1
 576 372 l 1,12,-1
 672 372 l 1,13,-1
 586 162 l 1,0,-1
316 -24 m 1,14,-1
 235 -24 l 1,15,-1
 529 679 l 1,16,-1
 611 679 l 1,17,-1
 316 -24 l 1,14,-1
315 501 m 1,18,-1
 277 478 l 1,19,-1
 315 455 l 1,20,-1
 315 330 l 1,21,-1
 210 281 l 1,22,-1
 89 320 l 2,23,24
 66 328 66 328 60.5 337.5 c 128,-1,25
 55 347 55 347 55 367 c 2,26,-1
 55 393 l 1,27,-1
 150 434 l 1,28,-1
 150 391 l 1,29,-1
 220 369 l 1,30,-1
 220 442 l 1,31,-1
 167 477 l 1,32,-1
 220 511 l 1,33,-1
 220 584 l 1,34,-1
 150 562 l 1,35,-1
 150 519 l 1,36,-1
 55 560 l 1,37,-1
 55 586 l 2,38,39
 55 606 55 606 60.5 615.5 c 128,-1,40
 66 625 66 625 89 633 c 2,41,-1
 210 672 l 1,42,-1
 315 623 l 1,43,-1
 315 501 l 1,18,-1
EndSplineSet
Validated: 1
EndChar

StartChar: questiondown
Encoding: 191 191 129
Width: 500
GlyphClass: 2
Flags: W
LayerCount: 2
Fore
SplineSet
247 653 m 1,0,-1
 370 653 l 1,1,-1
 370 524 l 1,2,-1
 247 524 l 1,3,-1
 247 653 l 1,0,-1
45 2 m 2,4,5
 45 57 45 57 53.5 108.5 c 128,-1,6
 62 160 62 160 83 198 c 0,7,8
 97 223 97 223 112.5 241.5 c 128,-1,9
 128 260 128 260 148 274.5 c 128,-1,10
 168 289 168 289 195 301 c 128,-1,11
 222 313 222 313 260 325 c 1,12,-1
 260 448 l 1,13,-1
 287 448 l 1,14,-1
 372 365 l 1,15,-1
 372 248 l 1,16,-1
 311 229 l 2,17,18
 255 212 255 212 226 184.5 c 128,-1,19
 197 157 197 157 186 127 c 0,20,21
 177 102 177 102 173.5 74.5 c 128,-1,22
 170 47 170 47 170 16 c 2,23,-1
 170 -3 l 1,24,-1
 332 -3 l 1,25,-1
 332 61 l 1,26,-1
 510 -115 l 1,27,-1
 115 -115 l 1,28,-1
 45 -115 l 1,29,-1
 45 2 l 2,4,5
EndSplineSet
Validated: 1
EndChar

StartChar: Agrave
Encoding: 192 192 130
Width: 594
GlyphClass: 2
Flags: W
LayerCount: 2
Fore
SplineSet
315 796 m 2,0,1
 395 747 395 747 439.5 701.5 c 128,-1,2
 484 656 484 656 505 610.5 c 128,-1,3
 526 565 526 565 530 517.5 c 128,-1,4
 534 470 534 470 534 417 c 2,5,-1
 534 0 l 1,6,-1
 409 0 l 1,7,-1
 409 307 l 1,8,-1
 184 251 l 1,9,-1
 184 0 l 1,10,-1
 60 0 l 1,11,-1
 60 420 l 2,12,13
 60 471 60 471 64 517.5 c 128,-1,14
 68 564 68 564 89 609.5 c 128,-1,15
 110 655 110 655 154 701 c 128,-1,16
 198 747 198 747 279 796 c 2,17,-1
 297 807 l 1,18,-1
 315 796 l 2,0,1
296 669 m 1,19,20
 261 644 261 644 239 618.5 c 128,-1,21
 217 593 217 593 205 563.5 c 128,-1,22
 193 534 193 534 188.5 498 c 128,-1,23
 184 462 184 462 184 415 c 2,24,-1
 184 366 l 1,25,-1
 409 422 l 1,26,-1
 409 428 l 2,27,28
 409 470 409 470 405 503 c 128,-1,29
 401 536 401 536 389 564.5 c 128,-1,30
 377 593 377 593 355 618.5 c 128,-1,31
 333 644 333 644 298 669 c 1,32,-1
 296 669 l 1,19,20
350 850 m 1,33,-1
 264 850 l 1,34,-1
 143 922 l 1,35,-1
 198 982 l 1,36,-1
 350 879 l 1,37,-1
 350 850 l 1,33,-1
EndSplineSet
Validated: 1
EndChar

StartChar: Aacute
Encoding: 193 193 131
Width: 594
GlyphClass: 2
Flags: W
LayerCount: 2
Fore
SplineSet
306 796 m 2,0,1
 386 747 386 747 430.5 701.5 c 128,-1,2
 475 656 475 656 496 610.5 c 128,-1,3
 517 565 517 565 521 517.5 c 128,-1,4
 525 470 525 470 525 417 c 2,5,-1
 525 0 l 1,6,-1
 400 0 l 1,7,-1
 400 307 l 1,8,-1
 175 251 l 1,9,-1
 175 0 l 1,10,-1
 51 0 l 1,11,-1
 51 420 l 2,12,13
 51 471 51 471 55 517.5 c 128,-1,14
 59 564 59 564 80 609.5 c 128,-1,15
 101 655 101 655 145 701 c 128,-1,16
 189 747 189 747 270 796 c 2,17,-1
 288 807 l 1,18,-1
 306 796 l 2,0,1
287 669 m 1,19,20
 252 644 252 644 230 618.5 c 128,-1,21
 208 593 208 593 196 563.5 c 128,-1,22
 184 534 184 534 179.5 498 c 128,-1,23
 175 462 175 462 175 415 c 2,24,-1
 175 366 l 1,25,-1
 400 422 l 1,26,-1
 400 428 l 2,27,28
 400 470 400 470 396 503 c 128,-1,29
 392 536 392 536 380 564.5 c 128,-1,30
 368 593 368 593 346 618.5 c 128,-1,31
 324 644 324 644 289 669 c 1,32,-1
 287 669 l 1,19,20
435 916 m 1,33,-1
 313 850 l 1,34,-1
 220 850 l 1,35,-1
 220 876 l 1,36,-1
 386 979 l 1,37,-1
 435 916 l 1,33,-1
EndSplineSet
Validated: 1
EndChar

StartChar: Acircumflex
Encoding: 194 194 132
Width: 594
GlyphClass: 2
Flags: W
LayerCount: 2
Fore
SplineSet
306 796 m 2,0,1
 386 747 386 747 430.5 701.5 c 128,-1,2
 475 656 475 656 496 610.5 c 128,-1,3
 517 565 517 565 521 517.5 c 128,-1,4
 525 470 525 470 525 417 c 2,5,-1
 525 0 l 1,6,-1
 400 0 l 1,7,-1
 400 307 l 1,8,-1
 175 251 l 1,9,-1
 175 0 l 1,10,-1
 51 0 l 1,11,-1
 51 420 l 2,12,13
 51 471 51 471 55 517.5 c 128,-1,14
 59 564 59 564 80 609.5 c 128,-1,15
 101 655 101 655 145 701 c 128,-1,16
 189 747 189 747 270 796 c 2,17,-1
 288 807 l 1,18,-1
 306 796 l 2,0,1
287 669 m 1,19,20
 252 644 252 644 230 618.5 c 128,-1,21
 208 593 208 593 196 563.5 c 128,-1,22
 184 534 184 534 179.5 498 c 128,-1,23
 175 462 175 462 175 415 c 2,24,-1
 175 366 l 1,25,-1
 400 422 l 1,26,-1
 400 428 l 2,27,28
 400 470 400 470 396 503 c 128,-1,29
 392 536 392 536 380 564.5 c 128,-1,30
 368 593 368 593 346 618.5 c 128,-1,31
 324 644 324 644 289 669 c 1,32,-1
 287 669 l 1,19,20
431 850 m 1,33,-1
 365 850 l 1,34,-1
 292 909 l 1,35,-1
 214 850 l 1,36,-1
 141 850 l 1,37,-1
 131 877 l 1,38,-1
 291 989 l 1,39,-1
 441 880 l 1,40,-1
 431 850 l 1,33,-1
EndSplineSet
Validated: 1
EndChar

StartChar: Atilde
Encoding: 195 195 133
Width: 594
GlyphClass: 2
Flags: W
LayerCount: 2
Fore
SplineSet
315 796 m 2,0,1
 395 747 395 747 439.5 701.5 c 128,-1,2
 484 656 484 656 505 610.5 c 128,-1,3
 526 565 526 565 530 517.5 c 128,-1,4
 534 470 534 470 534 417 c 2,5,-1
 534 0 l 1,6,-1
 409 0 l 1,7,-1
 409 307 l 1,8,-1
 184 251 l 1,9,-1
 184 0 l 1,10,-1
 60 0 l 1,11,-1
 60 420 l 2,12,13
 60 471 60 471 64 517.5 c 128,-1,14
 68 564 68 564 89 609.5 c 128,-1,15
 110 655 110 655 154 701 c 128,-1,16
 198 747 198 747 279 796 c 2,17,-1
 297 807 l 1,18,-1
 315 796 l 2,0,1
296 669 m 1,19,20
 261 644 261 644 239 618.5 c 128,-1,21
 217 593 217 593 205 563.5 c 128,-1,22
 193 534 193 534 188.5 498 c 128,-1,23
 184 462 184 462 184 415 c 2,24,-1
 184 366 l 1,25,-1
 409 422 l 1,26,-1
 409 428 l 2,27,28
 409 470 409 470 405 503 c 128,-1,29
 401 536 401 536 389 564.5 c 128,-1,30
 377 593 377 593 355 618.5 c 128,-1,31
 333 644 333 644 298 669 c 1,32,-1
 296 669 l 1,19,20
504 915 m 1,33,-1
 481 893 l 2,34,35
 466 879 466 879 447 872.5 c 128,-1,36
 428 866 428 866 412 866 c 0,37,38
 389 866 389 866 374 869 c 2,39,-1
 240 901 l 2,40,41
 223 905 223 905 209.5 906 c 128,-1,42
 196 907 196 907 184 907 c 0,43,44
 173 907 173 907 164.5 904 c 128,-1,45
 156 901 156 901 142 894 c 1,46,-1
 124 921 l 1,47,-1
 147 943 l 2,48,49
 162 957 162 957 181 963.5 c 128,-1,50
 200 970 200 970 216 970 c 0,51,52
 239 970 239 970 254 967 c 2,53,-1
 388 935 l 2,54,55
 405 931 405 931 418.5 930 c 128,-1,56
 432 929 432 929 444 929 c 0,57,58
 455 929 455 929 463.5 932 c 128,-1,59
 472 935 472 935 486 942 c 1,60,-1
 504 915 l 1,33,-1
EndSplineSet
Validated: 1
EndChar

StartChar: Adieresis
Encoding: 196 196 134
Width: 594
GlyphClass: 2
Flags: W
LayerCount: 2
Fore
SplineSet
306 796 m 2,0,1
 386 747 386 747 430.5 701.5 c 128,-1,2
 475 656 475 656 496 610.5 c 128,-1,3
 517 565 517 565 521 517.5 c 128,-1,4
 525 470 525 470 525 417 c 2,5,-1
 525 0 l 1,6,-1
 400 0 l 1,7,-1
 400 307 l 1,8,-1
 175 251 l 1,9,-1
 175 0 l 1,10,-1
 51 0 l 1,11,-1
 51 420 l 2,12,13
 51 471 51 471 55 517.5 c 128,-1,14
 59 564 59 564 80 609.5 c 128,-1,15
 101 655 101 655 145 701 c 128,-1,16
 189 747 189 747 270 796 c 2,17,-1
 288 807 l 1,18,-1
 306 796 l 2,0,1
287 669 m 1,19,20
 252 644 252 644 230 618.5 c 128,-1,21
 208 593 208 593 196 563.5 c 128,-1,22
 184 534 184 534 179.5 498 c 128,-1,23
 175 462 175 462 175 415 c 2,24,-1
 175 366 l 1,25,-1
 400 422 l 1,26,-1
 400 428 l 2,27,28
 400 470 400 470 396 503 c 128,-1,29
 392 536 392 536 380 564.5 c 128,-1,30
 368 593 368 593 346 618.5 c 128,-1,31
 324 644 324 644 289 669 c 1,32,-1
 287 669 l 1,19,20
179 968 m 0,33,34
 203 968 203 968 220 950.5 c 128,-1,35
 237 933 237 933 237 909 c 256,36,37
 237 885 237 885 220 867.5 c 128,-1,38
 203 850 203 850 179 850 c 0,39,40
 154 850 154 850 137 867.5 c 128,-1,41
 120 885 120 885 120 909 c 256,42,43
 120 933 120 933 137 950.5 c 128,-1,44
 154 968 154 968 179 968 c 0,33,34
459 909 m 256,45,46
 459 885 459 885 442 867.5 c 128,-1,47
 425 850 425 850 400 850 c 0,48,49
 376 850 376 850 359 867.5 c 128,-1,50
 342 885 342 885 342 909 c 256,51,52
 342 933 342 933 359 950.5 c 128,-1,53
 376 968 376 968 400 968 c 0,54,55
 425 968 425 968 442 950.5 c 128,-1,56
 459 933 459 933 459 909 c 256,45,46
EndSplineSet
Validated: 1
EndChar

StartChar: Aring
Encoding: 197 197 135
Width: 594
GlyphClass: 2
Flags: W
LayerCount: 2
Fore
SplineSet
534 0 m 1,0,-1
 409 0 l 1,1,-1
 409 307 l 1,2,-1
 184 251 l 1,3,-1
 184 0 l 1,4,-1
 60 0 l 1,5,-1
 60 420 l 2,6,7
 60 468 60 468 63.5 513 c 128,-1,8
 67 558 67 558 85 601.5 c 128,-1,9
 103 645 103 645 141.5 688.5 c 128,-1,10
 180 732 180 732 249 779 c 1,11,12
 228 792 228 792 213.5 812 c 128,-1,13
 199 832 199 832 199 860 c 0,14,15
 199 898 199 898 227 926 c 128,-1,16
 255 954 255 954 298 954 c 0,17,18
 340 954 340 954 367.5 926 c 128,-1,19
 395 898 395 898 395 860 c 0,20,21
 395 832 395 832 380.5 812 c 128,-1,22
 366 792 366 792 345 779 c 1,23,24
 414 732 414 732 452 688.5 c 128,-1,25
 490 645 490 645 508.5 601.5 c 128,-1,26
 527 558 527 558 530.5 512.5 c 128,-1,27
 534 467 534 467 534 417 c 2,28,-1
 534 0 l 1,0,-1
296 675 m 1,29,30
 261 648 261 648 239 621.5 c 128,-1,31
 217 595 217 595 205 565 c 128,-1,32
 193 535 193 535 188.5 498.5 c 128,-1,33
 184 462 184 462 184 415 c 2,34,-1
 184 366 l 1,35,-1
 409 422 l 1,36,-1
 409 428 l 2,37,38
 409 470 409 470 405 503.5 c 128,-1,39
 401 537 401 537 389 566 c 128,-1,40
 377 595 377 595 355 621.5 c 128,-1,41
 333 648 333 648 298 675 c 1,42,-1
 296 675 l 1,29,30
297 908 m 256,43,44
 277 908 277 908 263 893 c 128,-1,45
 249 878 249 878 249 858 c 256,46,47
 249 838 249 838 263 823.5 c 128,-1,48
 277 809 277 809 297 809 c 256,49,50
 317 809 317 809 331 823.5 c 128,-1,51
 345 838 345 838 345 858 c 256,52,53
 345 878 345 878 331 893 c 128,-1,54
 317 908 317 908 297 908 c 256,43,44
EndSplineSet
Validated: 1
EndChar

StartChar: AE
Encoding: 198 198 136
Width: 856
GlyphClass: 3
Flags: W
LayerCount: 2
Fore
SplineSet
816 660 m 1,0,-1
 532 660 l 1,1,-1
 532 432 l 1,2,-1
 770 491 l 1,3,-1
 770 376 l 1,4,-1
 532 317 l 1,5,-1
 533 264 l 2,6,7
 535 201 535 201 567.5 171 c 128,-1,8
 600 141 600 141 673 124 c 2,9,-1
 814 92 l 1,10,-1
 814 -28 l 1,11,-1
 682 2 l 2,12,13
 598 21 598 21 545 44 c 128,-1,14
 492 67 492 67 460 102 c 0,15,16
 426 140 426 140 417.5 180.5 c 128,-1,17
 409 221 409 221 409 276 c 2,18,-1
 409 287 l 1,19,-1
 184 231 l 1,20,-1
 184 0 l 1,21,-1
 60 0 l 1,22,-1
 60 410 l 2,23,24
 60 461 60 461 64 507.5 c 128,-1,25
 68 554 68 554 89 599.5 c 128,-1,26
 110 645 110 645 154 691 c 128,-1,27
 198 737 198 737 279 786 c 2,28,-1
 297 797 l 1,29,-1
 325 779 l 2,30,31
 387 739 387 739 424 703 c 1,32,-1
 498 776 l 1,33,-1
 816 776 l 1,34,-1
 816 660 l 1,0,-1
296 659 m 1,35,36
 261 634 261 634 239 608.5 c 128,-1,37
 217 583 217 583 205 553.5 c 128,-1,38
 193 524 193 524 188.5 488 c 128,-1,39
 184 452 184 452 184 405 c 2,40,-1
 184 346 l 1,41,-1
 408 402 l 1,42,-1
 408 485 l 2,43,44
 408 533 408 533 384.5 573 c 128,-1,45
 361 613 361 613 298 659 c 1,46,-1
 296 659 l 1,35,36
EndSplineSet
Validated: 1
Ligature2: "'dlig' Discretionary Ligatures in Latin lookup 15 subtable" A E
EndChar

StartChar: Ccedilla
Encoding: 199 199 137
Width: 497
GlyphClass: 2
Flags: W
LayerCount: 2
Fore
SplineSet
334 600 m 1,0,-1
 334 664 l 1,1,-1
 181 664 l 1,2,-1
 181 309 l 2,3,4
 181 274 181 274 187.5 248 c 128,-1,5
 194 222 194 222 208 202 c 0,6,7
 223 179 223 179 256.5 158.5 c 128,-1,8
 290 138 290 138 335 126 c 2,9,-1
 455 93 l 1,10,-1
 455 -28 l 1,11,-1
 397 -11 l 2,12,13
 381 -6 381 -6 357 1 c 128,-1,14
 333 8 333 8 322 12 c 1,15,-1
 276 -41 l 1,16,-1
 368 -74 l 1,17,18
 368 -100 368 -100 363 -121.5 c 128,-1,19
 358 -143 358 -143 341 -163 c 0,20,21
 323 -184 323 -184 294.5 -199.5 c 128,-1,22
 266 -215 266 -215 221 -223 c 2,23,-1
 177 -231 l 1,24,-1
 177 -164 l 1,25,-1
 200 -158 l 2,26,27
 250 -145 250 -145 267 -133 c 0,28,29
 280 -123 280 -123 280 -103 c 1,30,-1
 197 -73 l 1,31,-1
 197 -54 l 1,32,-1
 288 22 l 1,33,34
 233 41 233 41 186.5 67.5 c 128,-1,35
 140 94 140 94 107 135 c 0,36,37
 78 171 78 171 66.5 217 c 128,-1,38
 55 263 55 263 55 328 c 2,39,-1
 55 707 l 1,40,-1
 125 776 l 1,41,-1
 512 776 l 1,42,-1
 334 600 l 1,0,-1
EndSplineSet
Validated: 1
EndChar

StartChar: Egrave
Encoding: 200 200 138
Width: 508
GlyphClass: 2
Flags: W
LayerCount: 2
Fore
SplineSet
473 660 m 1,0,-1
 179 660 l 1,1,-1
 179 472 l 1,2,-1
 417 472 l 1,3,-1
 417 358 l 1,4,-1
 179 358 l 1,5,-1
 179 308 l 2,6,7
 179 240 179 240 208 202 c 0,8,9
 224 179 224 179 253 159.5 c 128,-1,10
 282 140 282 140 330 128 c 2,11,-1
 471 92 l 1,12,-1
 471 -28 l 1,13,-1
 311 13 l 2,14,15
 243 31 243 31 192.5 61 c 128,-1,16
 142 91 142 91 109 129 c 0,17,18
 78 164 78 164 66.5 209.5 c 128,-1,19
 55 255 55 255 55 318 c 2,20,-1
 55 707 l 1,21,-1
 125 776 l 1,22,-1
 473 776 l 1,23,-1
 473 660 l 1,0,-1
350 850 m 1,24,-1
 264 850 l 1,25,-1
 143 922 l 1,26,-1
 198 982 l 1,27,-1
 350 879 l 1,28,-1
 350 850 l 1,24,-1
EndSplineSet
Validated: 1
EndChar

StartChar: Eacute
Encoding: 201 201 139
Width: 513
GlyphClass: 2
Flags: W
LayerCount: 2
Fore
SplineSet
473 660 m 1,0,-1
 179 660 l 1,1,-1
 179 472 l 1,2,-1
 417 472 l 1,3,-1
 417 358 l 1,4,-1
 179 358 l 1,5,-1
 179 308 l 2,6,7
 179 240 179 240 208 202 c 0,8,9
 224 179 224 179 253 159.5 c 128,-1,10
 282 140 282 140 330 128 c 2,11,-1
 471 92 l 1,12,-1
 471 -28 l 1,13,-1
 311 13 l 2,14,15
 243 31 243 31 192.5 61 c 128,-1,16
 142 91 142 91 109 129 c 0,17,18
 78 164 78 164 66.5 209.5 c 128,-1,19
 55 255 55 255 55 318 c 2,20,-1
 55 707 l 1,21,-1
 125 776 l 1,22,-1
 473 776 l 1,23,-1
 473 660 l 1,0,-1
425 916 m 1,24,-1
 303 850 l 1,25,-1
 210 850 l 1,26,-1
 210 876 l 1,27,-1
 376 979 l 1,28,-1
 425 916 l 1,24,-1
EndSplineSet
Validated: 1
EndChar

StartChar: Ecircumflex
Encoding: 202 202 140
Width: 508
GlyphClass: 2
Flags: W
LayerCount: 2
Fore
SplineSet
473 660 m 1,0,-1
 179 660 l 1,1,-1
 179 472 l 1,2,-1
 417 472 l 1,3,-1
 417 358 l 1,4,-1
 179 358 l 1,5,-1
 179 308 l 2,6,7
 179 240 179 240 208 202 c 0,8,9
 224 179 224 179 253 159.5 c 128,-1,10
 282 140 282 140 330 128 c 2,11,-1
 471 92 l 1,12,-1
 471 -28 l 1,13,-1
 311 13 l 2,14,15
 243 31 243 31 192.5 61 c 128,-1,16
 142 91 142 91 109 129 c 0,17,18
 78 164 78 164 66.5 209.5 c 128,-1,19
 55 255 55 255 55 318 c 2,20,-1
 55 707 l 1,21,-1
 125 776 l 1,22,-1
 473 776 l 1,23,-1
 473 660 l 1,0,-1
421 850 m 1,24,-1
 355 850 l 1,25,-1
 282 909 l 1,26,-1
 204 850 l 1,27,-1
 131 850 l 1,28,-1
 121 877 l 1,29,-1
 281 989 l 1,30,-1
 431 880 l 1,31,-1
 421 850 l 1,24,-1
EndSplineSet
Validated: 1
EndChar

StartChar: Edieresis
Encoding: 203 203 141
Width: 513
GlyphClass: 2
Flags: W
LayerCount: 2
Fore
SplineSet
473 660 m 1,0,-1
 179 660 l 1,1,-1
 179 472 l 1,2,-1
 417 472 l 1,3,-1
 417 358 l 1,4,-1
 179 358 l 1,5,-1
 179 308 l 2,6,7
 179 240 179 240 208 202 c 0,8,9
 224 179 224 179 253 159.5 c 128,-1,10
 282 140 282 140 330 128 c 2,11,-1
 471 92 l 1,12,-1
 471 -28 l 1,13,-1
 311 13 l 2,14,15
 243 31 243 31 192.5 61 c 128,-1,16
 142 91 142 91 109 129 c 0,17,18
 78 164 78 164 66.5 209.5 c 128,-1,19
 55 255 55 255 55 318 c 2,20,-1
 55 707 l 1,21,-1
 125 776 l 1,22,-1
 473 776 l 1,23,-1
 473 660 l 1,0,-1
176 968 m 0,24,25
 200 968 200 968 217 950.5 c 128,-1,26
 234 933 234 933 234 909 c 256,27,28
 234 885 234 885 217 867.5 c 128,-1,29
 200 850 200 850 176 850 c 0,30,31
 151 850 151 850 134 867.5 c 128,-1,32
 117 885 117 885 117 909 c 256,33,34
 117 933 117 933 134 950.5 c 128,-1,35
 151 968 151 968 176 968 c 0,24,25
456 909 m 256,36,37
 456 885 456 885 439 867.5 c 128,-1,38
 422 850 422 850 397 850 c 0,39,40
 373 850 373 850 356 867.5 c 128,-1,41
 339 885 339 885 339 909 c 256,42,43
 339 933 339 933 356 950.5 c 128,-1,44
 373 968 373 968 397 968 c 0,45,46
 422 968 422 968 439 950.5 c 128,-1,47
 456 933 456 933 456 909 c 256,36,37
EndSplineSet
Validated: 1
EndChar

StartChar: Igrave
Encoding: 204 204 142
Width: 258
GlyphClass: 2
Flags: W
LayerCount: 2
Fore
SplineSet
193 -45 m 1,0,-1
 166 -45 l 1,1,-1
 65 57 l 1,2,-1
 65 776 l 1,3,-1
 193 776 l 1,4,-1
 193 -45 l 1,0,-1
200 850 m 1,5,-1
 114 850 l 1,6,-1
 -7 922 l 1,7,-1
 48 982 l 1,8,-1
 200 879 l 1,9,-1
 200 850 l 1,5,-1
EndSplineSet
Validated: 1
EndChar

StartChar: Iacute
Encoding: 205 205 143
Width: 258
GlyphClass: 2
Flags: W
LayerCount: 2
Fore
SplineSet
193 -45 m 1,0,-1
 166 -45 l 1,1,-1
 65 57 l 1,2,-1
 65 776 l 1,3,-1
 193 776 l 1,4,-1
 193 -45 l 1,0,-1
275 916 m 1,5,-1
 153 850 l 1,6,-1
 60 850 l 1,7,-1
 60 876 l 1,8,-1
 226 979 l 1,9,-1
 275 916 l 1,5,-1
EndSplineSet
Validated: 1
EndChar

StartChar: Icircumflex
Encoding: 206 206 144
Width: 258
GlyphClass: 2
Flags: W
LayerCount: 2
Fore
SplineSet
193 -45 m 1,0,-1
 166 -45 l 1,1,-1
 65 57 l 1,2,-1
 65 776 l 1,3,-1
 193 776 l 1,4,-1
 193 -45 l 1,0,-1
276 850 m 1,5,-1
 210 850 l 1,6,-1
 137 909 l 1,7,-1
 59 850 l 1,8,-1
 -14 850 l 1,9,-1
 -24 877 l 1,10,-1
 136 989 l 1,11,-1
 286 880 l 1,12,-1
 276 850 l 1,5,-1
EndSplineSet
Validated: 1
EndChar

StartChar: Idieresis
Encoding: 207 207 145
Width: 258
GlyphClass: 2
Flags: W
LayerCount: 2
Fore
SplineSet
193 -45 m 1,0,-1
 166 -45 l 1,1,-1
 65 57 l 1,2,-1
 65 776 l 1,3,-1
 193 776 l 1,4,-1
 193 -45 l 1,0,-1
22 968 m 0,5,6
 46 968 46 968 63 950.5 c 128,-1,7
 80 933 80 933 80 909 c 256,8,9
 80 885 80 885 63 867.5 c 128,-1,10
 46 850 46 850 22 850 c 0,11,12
 -3 850 -3 850 -20 867.5 c 128,-1,13
 -37 885 -37 885 -37 909 c 256,14,15
 -37 933 -37 933 -20 950.5 c 128,-1,16
 -3 968 -3 968 22 968 c 0,5,6
302 909 m 256,17,18
 302 885 302 885 285 867.5 c 128,-1,19
 268 850 268 850 243 850 c 0,20,21
 219 850 219 850 202 867.5 c 128,-1,22
 185 885 185 885 185 909 c 256,23,24
 185 933 185 933 202 950.5 c 128,-1,25
 219 968 219 968 243 968 c 0,26,27
 268 968 268 968 285 950.5 c 128,-1,28
 302 933 302 933 302 909 c 256,17,18
EndSplineSet
Validated: 1
EndChar

StartChar: Eth
Encoding: 208 208 146
Width: 669
GlyphClass: 2
Flags: W
LayerCount: 2
Fore
SplineSet
614 426 m 2,0,1
 614 363 614 363 610.5 312 c 128,-1,2
 607 261 607 261 597 220.5 c 128,-1,3
 587 180 587 180 570 148.5 c 128,-1,4
 553 117 553 117 526 93 c 0,5,6
 502 72 502 72 475 56.5 c 128,-1,7
 448 41 448 41 414.5 29.5 c 128,-1,8
 381 18 381 18 339 10 c 128,-1,9
 297 2 297 2 243 -6 c 2,10,-1
 139 -20 l 1,11,-1
 139 353 l 1,12,-1
 94 353 l 1,13,-1
 -5 451 l 1,14,-1
 -5 462 l 1,15,-1
 139 462 l 1,16,-1
 139 776 l 1,17,-1
 548 776 l 1,18,-1
 614 711 l 1,19,-1
 614 426 l 2,0,1
263 661 m 1,20,-1
 263 462 l 1,21,-1
 390 462 l 1,22,-1
 390 353 l 1,23,-1
 263 353 l 1,24,-1
 263 114 l 1,25,-1
 284 117 l 2,26,27
 336 125 336 125 375 139.5 c 128,-1,28
 414 154 414 154 438 178 c 0,29,30
 453 193 453 193 463 212 c 128,-1,31
 473 231 473 231 478.5 255.5 c 128,-1,32
 484 280 484 280 486 312.5 c 128,-1,33
 488 345 488 345 488 387 c 2,34,-1
 488 661 l 1,35,-1
 263 661 l 1,20,-1
EndSplineSet
Validated: 1
EndChar

StartChar: Ntilde
Encoding: 209 209 147
Width: 639
GlyphClass: 2
Flags: W
LayerCount: 2
Fore
SplineSet
579 0 m 1,0,-1
 456 0 l 1,1,-1
 456 95 l 2,2,3
 456 121 456 121 453 153 c 128,-1,4
 450 185 450 185 436 223 c 128,-1,5
 422 261 422 261 394.5 305 c 128,-1,6
 367 349 367 349 317 397 c 2,7,-1
 186 527 l 1,8,-1
 186 0 l 1,9,-1
 60 0 l 1,10,-1
 60 776 l 1,11,-1
 186 776 l 1,12,-1
 186 688 l 1,13,-1
 349 526 l 2,14,15
 387 488 387 488 411.5 459.5 c 128,-1,16
 436 431 436 431 453 402 c 1,17,-1
 453 776 l 1,18,-1
 579 776 l 1,19,-1
 579 0 l 1,0,-1
515 915 m 1,20,-1
 492 893 l 2,21,22
 477 879 477 879 458 872.5 c 128,-1,23
 439 866 439 866 423 866 c 0,24,25
 400 866 400 866 385 869 c 2,26,-1
 251 901 l 2,27,28
 234 905 234 905 220.5 906 c 128,-1,29
 207 907 207 907 195 907 c 0,30,31
 184 907 184 907 175.5 904 c 128,-1,32
 167 901 167 901 153 894 c 1,33,-1
 135 921 l 1,34,-1
 158 943 l 2,35,36
 173 957 173 957 192 963.5 c 128,-1,37
 211 970 211 970 227 970 c 0,38,39
 250 970 250 970 265 967 c 2,40,-1
 399 935 l 2,41,42
 416 931 416 931 429.5 930 c 128,-1,43
 443 929 443 929 455 929 c 0,44,45
 466 929 466 929 474.5 932 c 128,-1,46
 483 935 483 935 497 942 c 1,47,-1
 515 915 l 1,20,-1
EndSplineSet
Validated: 1
EndChar

StartChar: Ograve
Encoding: 210 210 148
Width: 566
GlyphClass: 2
Flags: W
LayerCount: 2
Fore
SplineSet
283 669 m 1,0,1
 252 650 252 650 232 632 c 128,-1,2
 212 614 212 614 201 593.5 c 128,-1,3
 190 573 190 573 186 547 c 128,-1,4
 182 521 182 521 182 486 c 2,5,-1
 182 289 l 2,6,7
 182 254 182 254 186 228 c 128,-1,8
 190 202 190 202 201 181.5 c 128,-1,9
 212 161 212 161 232 143.5 c 128,-1,10
 252 126 252 126 283 106 c 1,11,-1
 284 106 l 1,12,13
 315 126 315 126 334.5 143.5 c 128,-1,14
 354 161 354 161 365 181.5 c 128,-1,15
 376 202 376 202 380 227.5 c 128,-1,16
 384 253 384 253 384 288 c 2,17,-1
 384 486 l 2,18,19
 384 521 384 521 380 547 c 128,-1,20
 376 573 376 573 365 593.5 c 128,-1,21
 354 614 354 614 334.5 632 c 128,-1,22
 315 650 315 650 284 669 c 1,23,-1
 283 669 l 1,0,1
295 801 m 2,24,25
 372 762 372 762 415.5 723 c 128,-1,26
 459 684 459 684 480 644 c 128,-1,27
 501 604 501 604 506 563.5 c 128,-1,28
 511 523 511 523 511 481 c 2,29,-1
 511 294 l 2,30,31
 511 252 511 252 506 211.5 c 128,-1,32
 501 171 501 171 480 131 c 128,-1,33
 459 91 459 91 415.5 52 c 128,-1,34
 372 13 372 13 295 -26 c 2,35,-1
 283 -32 l 1,36,-1
 271 -26 l 2,37,38
 194 13 194 13 150.5 52.5 c 128,-1,39
 107 92 107 92 86 131.5 c 128,-1,40
 65 171 65 171 60 211.5 c 128,-1,41
 55 252 55 252 55 293 c 2,42,-1
 55 481 l 2,43,44
 55 523 55 523 60 563.5 c 128,-1,45
 65 604 65 604 86 643.5 c 128,-1,46
 107 683 107 683 150.5 722.5 c 128,-1,47
 194 762 194 762 271 801 c 2,48,-1
 283 807 l 1,49,-1
 295 801 l 2,24,25
330 850 m 1,50,-1
 244 850 l 1,51,-1
 123 922 l 1,52,-1
 178 982 l 1,53,-1
 330 879 l 1,54,-1
 330 850 l 1,50,-1
EndSplineSet
Validated: 1
EndChar

StartChar: Oacute
Encoding: 211 211 149
Width: 566
GlyphClass: 2
Flags: W
LayerCount: 2
Fore
SplineSet
283 669 m 1,0,1
 252 650 252 650 232 632 c 128,-1,2
 212 614 212 614 201 593.5 c 128,-1,3
 190 573 190 573 186 547 c 128,-1,4
 182 521 182 521 182 486 c 2,5,-1
 182 289 l 2,6,7
 182 254 182 254 186 228 c 128,-1,8
 190 202 190 202 201 181.5 c 128,-1,9
 212 161 212 161 232 143.5 c 128,-1,10
 252 126 252 126 283 106 c 1,11,-1
 284 106 l 1,12,13
 315 126 315 126 334.5 143.5 c 128,-1,14
 354 161 354 161 365 181.5 c 128,-1,15
 376 202 376 202 380 227.5 c 128,-1,16
 384 253 384 253 384 288 c 2,17,-1
 384 486 l 2,18,19
 384 521 384 521 380 547 c 128,-1,20
 376 573 376 573 365 593.5 c 128,-1,21
 354 614 354 614 334.5 632 c 128,-1,22
 315 650 315 650 284 669 c 1,23,-1
 283 669 l 1,0,1
295 801 m 2,24,25
 372 762 372 762 415.5 723 c 128,-1,26
 459 684 459 684 480 644 c 128,-1,27
 501 604 501 604 506 563.5 c 128,-1,28
 511 523 511 523 511 481 c 2,29,-1
 511 294 l 2,30,31
 511 252 511 252 506 211.5 c 128,-1,32
 501 171 501 171 480 131 c 128,-1,33
 459 91 459 91 415.5 52 c 128,-1,34
 372 13 372 13 295 -26 c 2,35,-1
 283 -32 l 1,36,-1
 271 -26 l 2,37,38
 194 13 194 13 150.5 52.5 c 128,-1,39
 107 92 107 92 86 131.5 c 128,-1,40
 65 171 65 171 60 211.5 c 128,-1,41
 55 252 55 252 55 293 c 2,42,-1
 55 481 l 2,43,44
 55 523 55 523 60 563.5 c 128,-1,45
 65 604 65 604 86 643.5 c 128,-1,46
 107 683 107 683 150.5 722.5 c 128,-1,47
 194 762 194 762 271 801 c 2,48,-1
 283 807 l 1,49,-1
 295 801 l 2,24,25
445 916 m 1,50,-1
 323 850 l 1,51,-1
 230 850 l 1,52,-1
 230 876 l 1,53,-1
 396 979 l 1,54,-1
 445 916 l 1,50,-1
EndSplineSet
Validated: 1
Substitution2: "'locl' Localized Forms in Latin lookup 3 subtable" Oacute.loclPLK
Substitution2: "'aalt' Access All Alternates in Latin lookup 0 subtable" Oacute.loclPLK
EndChar

StartChar: Ocircumflex
Encoding: 212 212 150
Width: 566
GlyphClass: 2
Flags: W
LayerCount: 2
Fore
SplineSet
283 669 m 1,0,1
 252 650 252 650 232 632 c 128,-1,2
 212 614 212 614 201 593.5 c 128,-1,3
 190 573 190 573 186 547 c 128,-1,4
 182 521 182 521 182 486 c 2,5,-1
 182 289 l 2,6,7
 182 254 182 254 186 228 c 128,-1,8
 190 202 190 202 201 181.5 c 128,-1,9
 212 161 212 161 232 143.5 c 128,-1,10
 252 126 252 126 283 106 c 1,11,-1
 284 106 l 1,12,13
 315 126 315 126 334.5 143.5 c 128,-1,14
 354 161 354 161 365 181.5 c 128,-1,15
 376 202 376 202 380 227.5 c 128,-1,16
 384 253 384 253 384 288 c 2,17,-1
 384 486 l 2,18,19
 384 521 384 521 380 547 c 128,-1,20
 376 573 376 573 365 593.5 c 128,-1,21
 354 614 354 614 334.5 632 c 128,-1,22
 315 650 315 650 284 669 c 1,23,-1
 283 669 l 1,0,1
295 801 m 2,24,25
 372 762 372 762 415.5 723 c 128,-1,26
 459 684 459 684 480 644 c 128,-1,27
 501 604 501 604 506 563.5 c 128,-1,28
 511 523 511 523 511 481 c 2,29,-1
 511 294 l 2,30,31
 511 252 511 252 506 211.5 c 128,-1,32
 501 171 501 171 480 131 c 128,-1,33
 459 91 459 91 415.5 52 c 128,-1,34
 372 13 372 13 295 -26 c 2,35,-1
 283 -32 l 1,36,-1
 271 -26 l 2,37,38
 194 13 194 13 150.5 52.5 c 128,-1,39
 107 92 107 92 86 131.5 c 128,-1,40
 65 171 65 171 60 211.5 c 128,-1,41
 55 252 55 252 55 293 c 2,42,-1
 55 481 l 2,43,44
 55 523 55 523 60 563.5 c 128,-1,45
 65 604 65 604 86 643.5 c 128,-1,46
 107 683 107 683 150.5 722.5 c 128,-1,47
 194 762 194 762 271 801 c 2,48,-1
 283 807 l 1,49,-1
 295 801 l 2,24,25
428 850 m 1,50,-1
 362 850 l 1,51,-1
 289 909 l 1,52,-1
 211 850 l 1,53,-1
 138 850 l 1,54,-1
 128 877 l 1,55,-1
 288 989 l 1,56,-1
 438 880 l 1,57,-1
 428 850 l 1,50,-1
EndSplineSet
Validated: 1
EndChar

StartChar: Otilde
Encoding: 213 213 151
Width: 566
GlyphClass: 2
Flags: W
LayerCount: 2
Fore
SplineSet
283 669 m 1,0,1
 252 650 252 650 232 632 c 128,-1,2
 212 614 212 614 201 593.5 c 128,-1,3
 190 573 190 573 186 547 c 128,-1,4
 182 521 182 521 182 486 c 2,5,-1
 182 289 l 2,6,7
 182 254 182 254 186 228 c 128,-1,8
 190 202 190 202 201 181.5 c 128,-1,9
 212 161 212 161 232 143.5 c 128,-1,10
 252 126 252 126 283 106 c 1,11,-1
 284 106 l 1,12,13
 315 126 315 126 334.5 143.5 c 128,-1,14
 354 161 354 161 365 181.5 c 128,-1,15
 376 202 376 202 380 227.5 c 128,-1,16
 384 253 384 253 384 288 c 2,17,-1
 384 486 l 2,18,19
 384 521 384 521 380 547 c 128,-1,20
 376 573 376 573 365 593.5 c 128,-1,21
 354 614 354 614 334.5 632 c 128,-1,22
 315 650 315 650 284 669 c 1,23,-1
 283 669 l 1,0,1
295 801 m 2,24,25
 372 762 372 762 415.5 723 c 128,-1,26
 459 684 459 684 480 644 c 128,-1,27
 501 604 501 604 506 563.5 c 128,-1,28
 511 523 511 523 511 481 c 2,29,-1
 511 294 l 2,30,31
 511 252 511 252 506 211.5 c 128,-1,32
 501 171 501 171 480 131 c 128,-1,33
 459 91 459 91 415.5 52 c 128,-1,34
 372 13 372 13 295 -26 c 2,35,-1
 283 -32 l 1,36,-1
 271 -26 l 2,37,38
 194 13 194 13 150.5 52.5 c 128,-1,39
 107 92 107 92 86 131.5 c 128,-1,40
 65 171 65 171 60 211.5 c 128,-1,41
 55 252 55 252 55 293 c 2,42,-1
 55 481 l 2,43,44
 55 523 55 523 60 563.5 c 128,-1,45
 65 604 65 604 86 643.5 c 128,-1,46
 107 683 107 683 150.5 722.5 c 128,-1,47
 194 762 194 762 271 801 c 2,48,-1
 283 807 l 1,49,-1
 295 801 l 2,24,25
480 915 m 1,50,-1
 457 893 l 2,51,52
 442 879 442 879 423 872.5 c 128,-1,53
 404 866 404 866 388 866 c 0,54,55
 365 866 365 866 350 869 c 2,56,-1
 216 901 l 2,57,58
 199 905 199 905 185.5 906 c 128,-1,59
 172 907 172 907 160 907 c 0,60,61
 149 907 149 907 140.5 904 c 128,-1,62
 132 901 132 901 118 894 c 1,63,-1
 100 921 l 1,64,-1
 123 943 l 2,65,66
 138 957 138 957 157 963.5 c 128,-1,67
 176 970 176 970 192 970 c 0,68,69
 215 970 215 970 230 967 c 2,70,-1
 364 935 l 2,71,72
 381 931 381 931 394.5 930 c 128,-1,73
 408 929 408 929 420 929 c 0,74,75
 431 929 431 929 439.5 932 c 128,-1,76
 448 935 448 935 462 942 c 1,77,-1
 480 915 l 1,50,-1
EndSplineSet
Validated: 1
EndChar

StartChar: Odieresis
Encoding: 214 214 152
Width: 566
GlyphClass: 2
Flags: W
LayerCount: 2
Fore
SplineSet
283 669 m 1,0,1
 252 650 252 650 232 632 c 128,-1,2
 212 614 212 614 201 593.5 c 128,-1,3
 190 573 190 573 186 547 c 128,-1,4
 182 521 182 521 182 486 c 2,5,-1
 182 289 l 2,6,7
 182 254 182 254 186 228 c 128,-1,8
 190 202 190 202 201 181.5 c 128,-1,9
 212 161 212 161 232 143.5 c 128,-1,10
 252 126 252 126 283 106 c 1,11,-1
 284 106 l 1,12,13
 315 126 315 126 334.5 143.5 c 128,-1,14
 354 161 354 161 365 181.5 c 128,-1,15
 376 202 376 202 380 227.5 c 128,-1,16
 384 253 384 253 384 288 c 2,17,-1
 384 486 l 2,18,19
 384 521 384 521 380 547 c 128,-1,20
 376 573 376 573 365 593.5 c 128,-1,21
 354 614 354 614 334.5 632 c 128,-1,22
 315 650 315 650 284 669 c 1,23,-1
 283 669 l 1,0,1
295 801 m 2,24,25
 372 762 372 762 415.5 723 c 128,-1,26
 459 684 459 684 480 644 c 128,-1,27
 501 604 501 604 506 563.5 c 128,-1,28
 511 523 511 523 511 481 c 2,29,-1
 511 294 l 2,30,31
 511 252 511 252 506 211.5 c 128,-1,32
 501 171 501 171 480 131 c 128,-1,33
 459 91 459 91 415.5 52 c 128,-1,34
 372 13 372 13 295 -26 c 2,35,-1
 283 -32 l 1,36,-1
 271 -26 l 2,37,38
 194 13 194 13 150.5 52.5 c 128,-1,39
 107 92 107 92 86 131.5 c 128,-1,40
 65 171 65 171 60 211.5 c 128,-1,41
 55 252 55 252 55 293 c 2,42,-1
 55 481 l 2,43,44
 55 523 55 523 60 563.5 c 128,-1,45
 65 604 65 604 86 643.5 c 128,-1,46
 107 683 107 683 150.5 722.5 c 128,-1,47
 194 762 194 762 271 801 c 2,48,-1
 283 807 l 1,49,-1
 295 801 l 2,24,25
174 968 m 0,50,51
 198 968 198 968 215 950.5 c 128,-1,52
 232 933 232 933 232 909 c 256,53,54
 232 885 232 885 215 867.5 c 128,-1,55
 198 850 198 850 174 850 c 0,56,57
 149 850 149 850 132 867.5 c 128,-1,58
 115 885 115 885 115 909 c 256,59,60
 115 933 115 933 132 950.5 c 128,-1,61
 149 968 149 968 174 968 c 0,50,51
454 909 m 256,62,63
 454 885 454 885 437 867.5 c 128,-1,64
 420 850 420 850 395 850 c 0,65,66
 371 850 371 850 354 867.5 c 128,-1,67
 337 885 337 885 337 909 c 256,68,69
 337 933 337 933 354 950.5 c 128,-1,70
 371 968 371 968 395 968 c 0,71,72
 420 968 420 968 437 950.5 c 128,-1,73
 454 933 454 933 454 909 c 256,62,63
EndSplineSet
Validated: 1
EndChar

StartChar: Oslash
Encoding: 216 216 154
Width: 596
GlyphClass: 2
Flags: W
LayerCount: 2
Fore
SplineSet
492 651 m 1,0,1
 521 606 521 606 528 560.5 c 128,-1,2
 535 515 535 515 535 469 c 2,3,-1
 535 298 l 2,4,5
 535 256 535 256 530 216 c 128,-1,6
 525 176 525 176 503 136 c 128,-1,7
 481 96 481 96 436 57 c 128,-1,8
 391 18 391 18 311 -22 c 2,9,-1
 299 -28 l 1,10,-1
 287 -22 l 2,11,12
 238 2 238 2 203 26.5 c 128,-1,13
 168 51 168 51 143 76 c 1,14,-1
 81 -26 l 1,15,-1
 20 9 l 1,16,-1
 97 135 l 1,17,18
 72 177 72 177 66.5 219.5 c 128,-1,19
 61 262 61 262 61 305 c 2,20,-1
 61 476 l 2,21,22
 61 518 61 518 66 558.5 c 128,-1,23
 71 599 71 599 93 638.5 c 128,-1,24
 115 678 115 678 160 717.5 c 128,-1,25
 205 757 205 757 286 796 c 2,26,-1
 298 802 l 1,27,-1
 310 796 l 2,28,29
 397 751 397 751 444 707 c 1,30,-1
 509 815 l 1,31,-1
 570 780 l 1,32,-1
 492 651 l 1,0,1
406 514 m 1,33,-1
 209 185 l 1,34,35
 222 164 222 164 243.5 146.5 c 128,-1,36
 265 129 265 129 298 110 c 1,37,-1
 299 110 l 1,38,39
 334 130 334 130 355.5 147.5 c 128,-1,40
 377 165 377 165 389 185.5 c 128,-1,41
 401 206 401 206 405.5 231.5 c 128,-1,42
 410 257 410 257 410 292 c 2,43,-1
 410 470 l 2,44,45
 410 482 410 482 409.5 492.5 c 128,-1,46
 409 503 409 503 408 513 c 1,47,-1
 406 514 l 1,33,-1
298 664 m 1,48,49
 263 645 263 645 241 627 c 128,-1,50
 219 609 219 609 207 588.5 c 128,-1,51
 195 568 195 568 190.5 542 c 128,-1,52
 186 516 186 516 186 481 c 2,53,-1
 186 298 l 1,54,-1
 186 282 l 1,55,-1
 188 281 l 1,56,-1
 379 601 l 1,57,58
 366 618 366 618 347 632.5 c 128,-1,59
 328 647 328 647 299 664 c 1,60,-1
 298 664 l 1,48,49
EndSplineSet
Validated: 1
EndChar

StartChar: Ugrave
Encoding: 217 217 155
Width: 586
GlyphClass: 2
Flags: W
LayerCount: 2
Fore
SplineSet
526 0 m 1,0,-1
 397 0 l 2,1,2
 320 0 320 0 256.5 18 c 128,-1,3
 193 36 193 36 144 78 c 0,4,5
 116 103 116 103 97.5 133 c 128,-1,6
 79 163 79 163 68.5 201 c 128,-1,7
 58 239 58 239 54 287 c 128,-1,8
 50 335 50 335 50 396 c 2,9,-1
 50 776 l 1,10,-1
 177 776 l 1,11,-1
 177 368 l 2,12,13
 177 327 177 327 179.5 296 c 128,-1,14
 182 265 182 265 188 241 c 128,-1,15
 194 217 194 217 204.5 199.5 c 128,-1,16
 215 182 215 182 230 168 c 0,17,18
 256 144 256 144 291.5 130 c 128,-1,19
 327 116 327 116 376 116 c 2,20,-1
 399 116 l 1,21,-1
 399 776 l 1,22,-1
 526 776 l 1,23,-1
 526 0 l 1,0,-1
380 850 m 1,24,-1
 294 850 l 1,25,-1
 173 922 l 1,26,-1
 228 982 l 1,27,-1
 380 879 l 1,28,-1
 380 850 l 1,24,-1
EndSplineSet
Validated: 1
EndChar

StartChar: Uacute
Encoding: 218 218 156
Width: 586
GlyphClass: 2
Flags: W
LayerCount: 2
Fore
SplineSet
526 0 m 1,0,-1
 397 0 l 2,1,2
 320 0 320 0 256.5 18 c 128,-1,3
 193 36 193 36 144 78 c 0,4,5
 116 103 116 103 97.5 133 c 128,-1,6
 79 163 79 163 68.5 201 c 128,-1,7
 58 239 58 239 54 287 c 128,-1,8
 50 335 50 335 50 396 c 2,9,-1
 50 776 l 1,10,-1
 177 776 l 1,11,-1
 177 368 l 2,12,13
 177 327 177 327 179.5 296 c 128,-1,14
 182 265 182 265 188 241 c 128,-1,15
 194 217 194 217 204.5 199.5 c 128,-1,16
 215 182 215 182 230 168 c 0,17,18
 256 144 256 144 291.5 130 c 128,-1,19
 327 116 327 116 376 116 c 2,20,-1
 399 116 l 1,21,-1
 399 776 l 1,22,-1
 526 776 l 1,23,-1
 526 0 l 1,0,-1
455 916 m 1,24,-1
 333 850 l 1,25,-1
 240 850 l 1,26,-1
 240 876 l 1,27,-1
 406 979 l 1,28,-1
 455 916 l 1,24,-1
EndSplineSet
Validated: 1
EndChar

StartChar: Ucircumflex
Encoding: 219 219 157
Width: 586
GlyphClass: 2
Flags: W
LayerCount: 2
Fore
SplineSet
526 0 m 1,0,-1
 397 0 l 2,1,2
 320 0 320 0 256.5 18 c 128,-1,3
 193 36 193 36 144 78 c 0,4,5
 116 103 116 103 97.5 133 c 128,-1,6
 79 163 79 163 68.5 201 c 128,-1,7
 58 239 58 239 54 287 c 128,-1,8
 50 335 50 335 50 396 c 2,9,-1
 50 776 l 1,10,-1
 177 776 l 1,11,-1
 177 368 l 2,12,13
 177 327 177 327 179.5 296 c 128,-1,14
 182 265 182 265 188 241 c 128,-1,15
 194 217 194 217 204.5 199.5 c 128,-1,16
 215 182 215 182 230 168 c 0,17,18
 256 144 256 144 291.5 130 c 128,-1,19
 327 116 327 116 376 116 c 2,20,-1
 399 116 l 1,21,-1
 399 776 l 1,22,-1
 526 776 l 1,23,-1
 526 0 l 1,0,-1
440 850 m 1,24,-1
 374 850 l 1,25,-1
 301 909 l 1,26,-1
 223 850 l 1,27,-1
 150 850 l 1,28,-1
 140 877 l 1,29,-1
 300 989 l 1,30,-1
 450 880 l 1,31,-1
 440 850 l 1,24,-1
EndSplineSet
Validated: 1
EndChar

StartChar: Udieresis
Encoding: 220 220 158
Width: 586
GlyphClass: 2
Flags: W
LayerCount: 2
Fore
SplineSet
526 0 m 1,0,-1
 397 0 l 2,1,2
 320 0 320 0 256.5 18 c 128,-1,3
 193 36 193 36 144 78 c 0,4,5
 116 103 116 103 97.5 133 c 128,-1,6
 79 163 79 163 68.5 201 c 128,-1,7
 58 239 58 239 54 287 c 128,-1,8
 50 335 50 335 50 396 c 2,9,-1
 50 776 l 1,10,-1
 177 776 l 1,11,-1
 177 368 l 2,12,13
 177 327 177 327 179.5 296 c 128,-1,14
 182 265 182 265 188 241 c 128,-1,15
 194 217 194 217 204.5 199.5 c 128,-1,16
 215 182 215 182 230 168 c 0,17,18
 256 144 256 144 291.5 130 c 128,-1,19
 327 116 327 116 376 116 c 2,20,-1
 399 116 l 1,21,-1
 399 776 l 1,22,-1
 526 776 l 1,23,-1
 526 0 l 1,0,-1
196 968 m 0,24,25
 220 968 220 968 237 950.5 c 128,-1,26
 254 933 254 933 254 909 c 256,27,28
 254 885 254 885 237 867.5 c 128,-1,29
 220 850 220 850 196 850 c 0,30,31
 171 850 171 850 154 867.5 c 128,-1,32
 137 885 137 885 137 909 c 256,33,34
 137 933 137 933 154 950.5 c 128,-1,35
 171 968 171 968 196 968 c 0,24,25
476 909 m 256,36,37
 476 885 476 885 459 867.5 c 128,-1,38
 442 850 442 850 417 850 c 0,39,40
 393 850 393 850 376 867.5 c 128,-1,41
 359 885 359 885 359 909 c 256,42,43
 359 933 359 933 376 950.5 c 128,-1,44
 393 968 393 968 417 968 c 0,45,46
 442 968 442 968 459 950.5 c 128,-1,47
 476 933 476 933 476 909 c 256,36,37
EndSplineSet
Validated: 1
EndChar

StartChar: Yacute
Encoding: 221 221 159
Width: 501
GlyphClass: 2
Flags: W
LayerCount: 2
Fore
SplineSet
477 729 m 2,0,1
 468 656 468 656 454.5 603 c 128,-1,2
 441 550 441 550 422 507.5 c 128,-1,3
 403 465 403 465 377 427.5 c 128,-1,4
 351 390 351 390 316 348 c 1,5,-1
 316 56 l 1,6,-1
 216 -45 l 1,7,-1
 189 -45 l 1,8,-1
 189 344 l 1,9,-1
 -5 776 l 1,10,-1
 133 776 l 1,11,-1
 264 474 l 1,12,13
 285 500 285 500 299.5 529 c 128,-1,14
 314 558 314 558 324 594 c 128,-1,15
 334 630 334 630 341 674.5 c 128,-1,16
 348 719 348 719 353 776 c 1,17,-1
 483 776 l 1,18,-1
 477 729 l 2,0,1
385 916 m 1,19,-1
 263 850 l 1,20,-1
 170 850 l 1,21,-1
 170 876 l 1,22,-1
 336 979 l 1,23,-1
 385 916 l 1,19,-1
EndSplineSet
Validated: 1
EndChar

StartChar: Thorn
Encoding: 222 222 160
Width: 538
GlyphClass: 2
Flags: W
LayerCount: 2
Fore
SplineSet
493 516 m 2,0,1
 493 463 493 463 488 421 c 128,-1,2
 483 379 483 379 471.5 344.5 c 128,-1,3
 460 310 460 310 441 282 c 128,-1,4
 422 254 422 254 393 230 c 0,5,6
 361 202 361 202 309 182 c 128,-1,7
 257 162 257 162 185 145 c 1,8,-1
 185 0 l 1,9,-1
 60 0 l 1,10,-1
 60 776 l 1,11,-1
 185 776 l 1,12,-1
 185 567 l 1,13,-1
 255 636 l 1,14,-1
 493 636 l 1,15,-1
 493 516 l 2,0,1
185 521 m 1,16,-1
 185 260 l 1,17,18
 226 268 226 268 260.5 285 c 128,-1,19
 295 302 295 302 319 325 c 0,20,21
 350 356 350 356 359.5 396.5 c 128,-1,22
 369 437 369 437 369 505 c 2,23,-1
 369 521 l 1,24,-1
 185 521 l 1,16,-1
EndSplineSet
Validated: 1
EndChar

StartChar: germandbls
Encoding: 223 223 161
Width: 559
GlyphClass: 2
Flags: W
LayerCount: 2
Fore
SplineSet
431 558 m 2,0,1
 431 529 431 529 423.5 504.5 c 128,-1,2
 416 480 416 480 405 459.5 c 128,-1,3
 394 439 394 439 380 422.5 c 128,-1,4
 366 406 366 406 352 392 c 1,5,6
 372 385 372 385 402.5 377 c 128,-1,7
 433 369 433 369 465 360 c 2,8,-1
 519 345 l 1,9,-1
 519 266 l 2,10,11
 519 218 519 218 511 170 c 128,-1,12
 503 122 503 122 475.5 84.5 c 128,-1,13
 448 47 448 47 396 23.5 c 128,-1,14
 344 0 344 0 256 0 c 2,15,-1
 158 0 l 1,16,-1
 158 9 l 1,17,-1
 261 112 l 1,18,-1
 279 112 l 2,19,20
 304 112 304 112 322 117.5 c 128,-1,21
 340 123 340 123 358 137 c 0,22,23
 383 156 383 156 392 184.5 c 128,-1,24
 401 213 401 213 401 250 c 2,25,-1
 401 264 l 1,26,-1
 381 270 l 2,27,28
 344 281 344 281 318.5 290.5 c 128,-1,29
 293 300 293 300 274.5 308.5 c 128,-1,30
 256 317 256 317 243 325 c 128,-1,31
 230 333 230 333 219 340 c 1,32,-1
 219 370 l 1,33,34
 251 404 251 404 269.5 428.5 c 128,-1,35
 288 453 288 453 298 472.5 c 128,-1,36
 308 492 308 492 311.5 508.5 c 128,-1,37
 315 525 315 525 315 543 c 1,38,-1
 171 543 l 1,39,-1
 171 90 l 1,40,-1
 82 0 l 1,41,-1
 55 0 l 1,42,-1
 55 597 l 1,43,-1
 113 653 l 1,44,-1
 431 653 l 1,45,-1
 431 558 l 2,0,1
EndSplineSet
Validated: 1
EndChar

StartChar: agrave
Encoding: 224 224 162
Width: 537
GlyphClass: 2
Flags: W
LayerCount: 2
Fore
SplineSet
287 673 m 2,0,1
 355 631 355 631 395 591.5 c 128,-1,2
 435 552 435 552 455.5 512.5 c 128,-1,3
 476 473 476 473 481.5 432.5 c 128,-1,4
 487 392 487 392 487 349 c 2,5,-1
 487 0 l 1,6,-1
 371 0 l 1,7,-1
 371 244 l 1,8,-1
 166 193 l 1,9,-1
 166 0 l 1,10,-1
 50 0 l 1,11,-1
 50 330 l 2,12,13
 50 382 50 382 55 425.5 c 128,-1,14
 60 469 60 469 80 509.5 c 128,-1,15
 100 550 100 550 140.5 590 c 128,-1,16
 181 630 181 630 251 673 c 2,17,-1
 269 684 l 1,18,-1
 287 673 l 2,0,1
268 551 m 1,19,20
 236 529 236 529 216 507.5 c 128,-1,21
 196 486 196 486 185 460.5 c 128,-1,22
 174 435 174 435 170 403.5 c 128,-1,23
 166 372 166 372 166 331 c 2,24,-1
 166 307 l 1,25,-1
 373 359 l 1,26,27
 372 391 372 391 366.5 417.5 c 128,-1,28
 361 444 361 444 349 467 c 128,-1,29
 337 490 337 490 318 510.5 c 128,-1,30
 299 531 299 531 270 551 c 1,31,-1
 268 551 l 1,19,20
320 730 m 1,32,-1
 244 730 l 1,33,-1
 123 802 l 1,34,-1
 168 862 l 1,35,-1
 320 759 l 1,36,-1
 320 730 l 1,32,-1
EndSplineSet
Validated: 1
EndChar

StartChar: aacute
Encoding: 225 225 163
Width: 537
GlyphClass: 2
Flags: W
LayerCount: 2
Fore
SplineSet
287 673 m 2,0,1
 355 631 355 631 395 591.5 c 128,-1,2
 435 552 435 552 455.5 512.5 c 128,-1,3
 476 473 476 473 481.5 432.5 c 128,-1,4
 487 392 487 392 487 349 c 2,5,-1
 487 0 l 1,6,-1
 371 0 l 1,7,-1
 371 244 l 1,8,-1
 166 193 l 1,9,-1
 166 0 l 1,10,-1
 50 0 l 1,11,-1
 50 330 l 2,12,13
 50 382 50 382 55 425.5 c 128,-1,14
 60 469 60 469 80 509.5 c 128,-1,15
 100 550 100 550 140.5 590 c 128,-1,16
 181 630 181 630 251 673 c 2,17,-1
 269 684 l 1,18,-1
 287 673 l 2,0,1
268 551 m 1,19,20
 236 529 236 529 216 507.5 c 128,-1,21
 196 486 196 486 185 460.5 c 128,-1,22
 174 435 174 435 170 403.5 c 128,-1,23
 166 372 166 372 166 331 c 2,24,-1
 166 307 l 1,25,-1
 373 359 l 1,26,27
 372 391 372 391 366.5 417.5 c 128,-1,28
 361 444 361 444 349 467 c 128,-1,29
 337 490 337 490 318 510.5 c 128,-1,30
 299 531 299 531 270 551 c 1,31,-1
 268 551 l 1,19,20
415 796 m 1,32,-1
 293 730 l 1,33,-1
 210 730 l 1,34,-1
 210 756 l 1,35,-1
 376 859 l 1,36,-1
 415 796 l 1,32,-1
EndSplineSet
Validated: 1
EndChar

StartChar: acircumflex
Encoding: 226 226 164
Width: 537
GlyphClass: 2
Flags: W
LayerCount: 2
Fore
SplineSet
287 673 m 2,0,1
 355 631 355 631 395 591.5 c 128,-1,2
 435 552 435 552 455.5 512.5 c 128,-1,3
 476 473 476 473 481.5 432.5 c 128,-1,4
 487 392 487 392 487 349 c 2,5,-1
 487 0 l 1,6,-1
 371 0 l 1,7,-1
 371 244 l 1,8,-1
 166 193 l 1,9,-1
 166 0 l 1,10,-1
 50 0 l 1,11,-1
 50 330 l 2,12,13
 50 382 50 382 55 425.5 c 128,-1,14
 60 469 60 469 80 509.5 c 128,-1,15
 100 550 100 550 140.5 590 c 128,-1,16
 181 630 181 630 251 673 c 2,17,-1
 269 684 l 1,18,-1
 287 673 l 2,0,1
268 551 m 1,19,20
 236 529 236 529 216 507.5 c 128,-1,21
 196 486 196 486 185 460.5 c 128,-1,22
 174 435 174 435 170 403.5 c 128,-1,23
 166 372 166 372 166 331 c 2,24,-1
 166 307 l 1,25,-1
 373 359 l 1,26,27
 372 391 372 391 366.5 417.5 c 128,-1,28
 361 444 361 444 349 467 c 128,-1,29
 337 490 337 490 318 510.5 c 128,-1,30
 299 531 299 531 270 551 c 1,31,-1
 268 551 l 1,19,20
411 730 m 1,32,-1
 345 730 l 1,33,-1
 272 789 l 1,34,-1
 194 730 l 1,35,-1
 121 730 l 1,36,-1
 121 760 l 1,37,-1
 271 869 l 1,38,-1
 411 763 l 1,39,-1
 411 730 l 1,32,-1
EndSplineSet
Validated: 1
EndChar

StartChar: atilde
Encoding: 227 227 165
Width: 537
GlyphClass: 2
Flags: W
LayerCount: 2
Fore
SplineSet
287 673 m 2,0,1
 355 631 355 631 395 591.5 c 128,-1,2
 435 552 435 552 455.5 512.5 c 128,-1,3
 476 473 476 473 481.5 432.5 c 128,-1,4
 487 392 487 392 487 349 c 2,5,-1
 487 0 l 1,6,-1
 371 0 l 1,7,-1
 371 244 l 1,8,-1
 166 193 l 1,9,-1
 166 0 l 1,10,-1
 50 0 l 1,11,-1
 50 330 l 2,12,13
 50 382 50 382 55 425.5 c 128,-1,14
 60 469 60 469 80 509.5 c 128,-1,15
 100 550 100 550 140.5 590 c 128,-1,16
 181 630 181 630 251 673 c 2,17,-1
 269 684 l 1,18,-1
 287 673 l 2,0,1
268 551 m 1,19,20
 236 529 236 529 216 507.5 c 128,-1,21
 196 486 196 486 185 460.5 c 128,-1,22
 174 435 174 435 170 403.5 c 128,-1,23
 166 372 166 372 166 331 c 2,24,-1
 166 307 l 1,25,-1
 373 359 l 1,26,27
 372 391 372 391 366.5 417.5 c 128,-1,28
 361 444 361 444 349 467 c 128,-1,29
 337 490 337 490 318 510.5 c 128,-1,30
 299 531 299 531 270 551 c 1,31,-1
 268 551 l 1,19,20
465 795 m 1,32,-1
 442 773 l 2,33,34
 427 759 427 759 408 752.5 c 128,-1,35
 389 746 389 746 373 746 c 0,36,37
 350 746 350 746 335 749 c 2,38,-1
 201 781 l 2,39,40
 184 785 184 785 170.5 786 c 128,-1,41
 157 787 157 787 145 787 c 0,42,43
 134 787 134 787 125.5 784 c 128,-1,44
 117 781 117 781 103 774 c 1,45,-1
 87 799 l 1,46,-1
 110 821 l 2,47,48
 125 835 125 835 144 841.5 c 128,-1,49
 163 848 163 848 179 848 c 0,50,51
 202 848 202 848 217 845 c 2,52,-1
 351 813 l 2,53,54
 368 809 368 809 381.5 808 c 128,-1,55
 395 807 395 807 407 807 c 0,56,57
 418 807 418 807 426.5 810 c 128,-1,58
 435 813 435 813 449 820 c 1,59,-1
 465 795 l 1,32,-1
EndSplineSet
Validated: 1
EndChar

StartChar: adieresis
Encoding: 228 228 166
Width: 537
GlyphClass: 2
Flags: W
LayerCount: 2
Fore
SplineSet
287 673 m 2,0,1
 355 631 355 631 395 591.5 c 128,-1,2
 435 552 435 552 455.5 512.5 c 128,-1,3
 476 473 476 473 481.5 432.5 c 128,-1,4
 487 392 487 392 487 349 c 2,5,-1
 487 0 l 1,6,-1
 371 0 l 1,7,-1
 371 244 l 1,8,-1
 166 193 l 1,9,-1
 166 0 l 1,10,-1
 50 0 l 1,11,-1
 50 330 l 2,12,13
 50 382 50 382 55 425.5 c 128,-1,14
 60 469 60 469 80 509.5 c 128,-1,15
 100 550 100 550 140.5 590 c 128,-1,16
 181 630 181 630 251 673 c 2,17,-1
 269 684 l 1,18,-1
 287 673 l 2,0,1
268 551 m 1,19,20
 236 529 236 529 216 507.5 c 128,-1,21
 196 486 196 486 185 460.5 c 128,-1,22
 174 435 174 435 170 403.5 c 128,-1,23
 166 372 166 372 166 331 c 2,24,-1
 166 307 l 1,25,-1
 373 359 l 1,26,27
 372 391 372 391 366.5 417.5 c 128,-1,28
 361 444 361 444 349 467 c 128,-1,29
 337 490 337 490 318 510.5 c 128,-1,30
 299 531 299 531 270 551 c 1,31,-1
 268 551 l 1,19,20
157 846 m 0,32,33
 180 846 180 846 196.5 829 c 128,-1,34
 213 812 213 812 213 789 c 256,35,36
 213 766 213 766 196.5 749 c 128,-1,37
 180 732 180 732 157 732 c 0,38,39
 133 732 133 732 116.5 749 c 128,-1,40
 100 766 100 766 100 789 c 256,41,42
 100 812 100 812 116.5 829 c 128,-1,43
 133 846 133 846 157 846 c 0,32,33
439 789 m 256,44,45
 439 766 439 766 422.5 749 c 128,-1,46
 406 732 406 732 382 732 c 0,47,48
 359 732 359 732 342.5 749 c 128,-1,49
 326 766 326 766 326 789 c 256,50,51
 326 812 326 812 342.5 829 c 128,-1,52
 359 846 359 846 382 846 c 0,53,54
 406 846 406 846 422.5 829 c 128,-1,55
 439 812 439 812 439 789 c 256,44,45
EndSplineSet
Validated: 1
EndChar

StartChar: aring
Encoding: 229 229 167
Width: 537
GlyphClass: 2
Flags: W
LayerCount: 2
Fore
SplineSet
487 0 m 1,0,-1
 371 0 l 1,1,-1
 371 244 l 1,2,-1
 166 193 l 1,3,-1
 166 0 l 1,4,-1
 50 0 l 1,5,-1
 50 330 l 2,6,7
 50 378 50 378 54 419.5 c 128,-1,8
 58 461 58 461 74.5 499.5 c 128,-1,9
 91 538 91 538 124.5 576 c 128,-1,10
 158 614 158 614 216 654 c 1,11,12
 196 665 196 665 183.5 686 c 128,-1,13
 171 707 171 707 171 733 c 0,14,15
 171 771 171 771 199 799 c 128,-1,16
 227 827 227 827 270 827 c 0,17,18
 312 827 312 827 339.5 799 c 128,-1,19
 367 771 367 771 367 733 c 0,20,21
 367 707 367 707 354.5 686 c 128,-1,22
 342 665 342 665 322 654 c 1,23,24
 378 615 378 615 410.5 577.5 c 128,-1,25
 443 540 443 540 460 502.5 c 128,-1,26
 477 465 477 465 482 427 c 128,-1,27
 487 389 487 389 487 349 c 2,28,-1
 487 0 l 1,0,-1
268 558 m 1,29,30
 236 534 236 534 216 511 c 128,-1,31
 196 488 196 488 185 461.5 c 128,-1,32
 174 435 174 435 170 403.5 c 128,-1,33
 166 372 166 372 166 331 c 2,34,-1
 166 307 l 1,35,-1
 373 359 l 1,36,37
 372 391 372 391 366.5 417.5 c 128,-1,38
 361 444 361 444 349 468 c 128,-1,39
 337 492 337 492 318 514 c 128,-1,40
 299 536 299 536 270 558 c 1,41,-1
 268 558 l 1,29,30
269 781 m 256,42,43
 249 781 249 781 235 766.5 c 128,-1,44
 221 752 221 752 221 732 c 256,45,46
 221 712 221 712 235 697 c 128,-1,47
 249 682 249 682 269 682 c 256,48,49
 289 682 289 682 303 697 c 128,-1,50
 317 712 317 712 317 732 c 256,51,52
 317 752 317 752 303 766.5 c 128,-1,53
 289 781 289 781 269 781 c 256,42,43
EndSplineSet
Validated: 1
EndChar

StartChar: ae
Encoding: 230 230 168
Width: 770
GlyphClass: 3
Flags: W
LayerCount: 2
Fore
SplineSet
735 540 m 1,0,-1
 486 540 l 1,1,-1
 486 367 l 1,2,-1
 689 419 l 1,3,-1
 689 305 l 1,4,-1
 486 253 l 1,5,6
 486 219 486 219 489.5 197 c 128,-1,7
 493 175 493 175 507 160.5 c 128,-1,8
 521 146 521 146 550 135.5 c 128,-1,9
 579 125 579 125 631 113 c 2,10,-1
 734 90 l 1,11,-1
 734 -27 l 1,12,-1
 624 -2 l 2,13,14
 571 12 571 12 535 23 c 128,-1,15
 499 34 499 34 475 45 c 128,-1,16
 451 56 451 56 436 67.5 c 128,-1,17
 421 79 421 79 409 92 c 0,18,19
 389 115 389 115 380.5 151 c 128,-1,20
 372 187 372 187 372 225 c 1,21,-1
 166 174 l 1,22,-1
 166 0 l 1,23,-1
 50 0 l 1,24,-1
 50 320 l 2,25,26
 50 372 50 372 55 415.5 c 128,-1,27
 60 459 60 459 80 499.5 c 128,-1,28
 100 540 100 540 140.5 580 c 128,-1,29
 181 620 181 620 251 663 c 2,30,-1
 269 674 l 1,31,-1
 287 663 l 2,32,33
 318 644 318 644 342 625 c 128,-1,34
 366 606 366 606 386 587 c 1,35,-1
 452 653 l 1,36,-1
 735 653 l 1,37,-1
 735 540 l 1,0,-1
268 541 m 1,38,39
 236 519 236 519 216 497.5 c 128,-1,40
 196 476 196 476 185 450.5 c 128,-1,41
 174 425 174 425 170 393.5 c 128,-1,42
 166 362 166 362 166 321 c 2,43,-1
 166 288 l 1,44,-1
 372 339 l 1,45,-1
 372 377 l 2,46,47
 372 421 372 421 351 460 c 128,-1,48
 330 499 330 499 270 541 c 1,49,-1
 268 541 l 1,38,39
EndSplineSet
Validated: 1
Ligature2: "'dlig' Discretionary Ligatures in Latin lookup 15 subtable" a e
EndChar

StartChar: ccedilla
Encoding: 231 231 169
Width: 457
GlyphClass: 2
Flags: W
LayerCount: 2
Fore
SplineSet
317 493 m 1,0,-1
 317 543 l 1,1,-1
 168 543 l 1,2,-1
 168 280 l 2,3,4
 168 242 168 242 172.5 219.5 c 128,-1,5
 177 197 177 197 190 181 c 0,6,7
 222 142 222 142 311 118 c 2,8,-1
 419 88 l 1,9,-1
 419 -28 l 1,10,-1
 369 -14 l 2,11,12
 356 -11 356 -11 345 -7.5 c 128,-1,13
 334 -4 334 -4 326 -2 c 0,14,15
 316 1 316 1 308 4 c 1,16,-1
 266 -45 l 1,17,-1
 353 -75 l 1,18,19
 353 -101 353 -101 348.5 -123 c 128,-1,20
 344 -145 344 -145 327 -165 c 0,21,22
 310 -186 310 -186 282 -202 c 128,-1,23
 254 -218 254 -218 211 -226 c 2,24,-1
 173 -233 l 1,25,-1
 173 -170 l 1,26,-1
 191 -165 l 2,27,28
 217 -157 217 -157 233.5 -150.5 c 128,-1,29
 250 -144 250 -144 258 -138 c 0,30,31
 271 -126 271 -126 271 -106 c 1,32,-1
 188 -76 l 1,33,-1
 188 -57 l 1,34,-1
 274 12 l 1,35,-1
 274 14 l 1,36,37
 205 36 205 36 164.5 62 c 128,-1,38
 124 88 124 88 99 117 c 0,39,40
 71 149 71 149 60.5 189 c 128,-1,41
 50 229 50 229 50 283 c 2,42,-1
 50 594 l 1,43,-1
 109 653 l 1,44,-1
 477 653 l 1,45,-1
 317 493 l 1,0,-1
EndSplineSet
Validated: 1
EndChar

StartChar: egrave
Encoding: 232 232 170
Width: 460
GlyphClass: 2
Flags: W
LayerCount: 2
Fore
SplineSet
435 540 m 1,0,-1
 166 540 l 1,1,-1
 166 401 l 1,2,-1
 386 401 l 1,3,-1
 386 289 l 1,4,-1
 166 289 l 1,5,-1
 166 270 l 2,6,7
 166 265 166 265 166.5 255 c 128,-1,8
 167 245 167 245 168.5 234 c 128,-1,9
 170 223 170 223 173 212 c 128,-1,10
 176 201 176 201 181 193 c 0,11,12
 194 172 194 172 225.5 155.5 c 128,-1,13
 257 139 257 139 319 122 c 2,14,-1
 434 90 l 1,15,-1
 434 -27 l 1,16,-1
 311 7 l 2,17,18
 264 20 264 20 230.5 31.5 c 128,-1,19
 197 43 197 43 172 56 c 128,-1,20
 147 69 147 69 128.5 84 c 128,-1,21
 110 99 110 99 93 118 c 0,22,23
 69 144 69 144 59.5 190 c 128,-1,24
 50 236 50 236 50 283 c 2,25,-1
 50 597 l 1,26,-1
 108 653 l 1,27,-1
 435 653 l 1,28,-1
 435 540 l 1,0,-1
320 730 m 1,29,-1
 244 730 l 1,30,-1
 123 802 l 1,31,-1
 168 862 l 1,32,-1
 320 759 l 1,33,-1
 320 730 l 1,29,-1
EndSplineSet
Validated: 1
EndChar

StartChar: eacute
Encoding: 233 233 171
Width: 470
GlyphClass: 2
Flags: W
LayerCount: 2
Fore
SplineSet
435 540 m 1,0,-1
 166 540 l 1,1,-1
 166 401 l 1,2,-1
 386 401 l 1,3,-1
 386 289 l 1,4,-1
 166 289 l 1,5,-1
 166 270 l 2,6,7
 166 265 166 265 166.5 255 c 128,-1,8
 167 245 167 245 168.5 234 c 128,-1,9
 170 223 170 223 173 212 c 128,-1,10
 176 201 176 201 181 193 c 0,11,12
 194 172 194 172 225.5 155.5 c 128,-1,13
 257 139 257 139 319 122 c 2,14,-1
 434 90 l 1,15,-1
 434 -27 l 1,16,-1
 311 7 l 2,17,18
 264 20 264 20 230.5 31.5 c 128,-1,19
 197 43 197 43 172 56 c 128,-1,20
 147 69 147 69 128.5 84 c 128,-1,21
 110 99 110 99 93 118 c 0,22,23
 69 144 69 144 59.5 190 c 128,-1,24
 50 236 50 236 50 283 c 2,25,-1
 50 597 l 1,26,-1
 108 653 l 1,27,-1
 435 653 l 1,28,-1
 435 540 l 1,0,-1
395 796 m 1,29,-1
 273 730 l 1,30,-1
 190 730 l 1,31,-1
 190 756 l 1,32,-1
 356 859 l 1,33,-1
 395 796 l 1,29,-1
EndSplineSet
Validated: 1
EndChar

StartChar: ecircumflex
Encoding: 234 234 172
Width: 460
GlyphClass: 2
Flags: W
LayerCount: 2
Fore
SplineSet
435 540 m 1,0,-1
 166 540 l 1,1,-1
 166 401 l 1,2,-1
 386 401 l 1,3,-1
 386 289 l 1,4,-1
 166 289 l 1,5,-1
 166 270 l 2,6,7
 166 265 166 265 166.5 255 c 128,-1,8
 167 245 167 245 168.5 234 c 128,-1,9
 170 223 170 223 173 212 c 128,-1,10
 176 201 176 201 181 193 c 0,11,12
 194 172 194 172 225.5 155.5 c 128,-1,13
 257 139 257 139 319 122 c 2,14,-1
 434 90 l 1,15,-1
 434 -27 l 1,16,-1
 311 7 l 2,17,18
 264 20 264 20 230.5 31.5 c 128,-1,19
 197 43 197 43 172 56 c 128,-1,20
 147 69 147 69 128.5 84 c 128,-1,21
 110 99 110 99 93 118 c 0,22,23
 69 144 69 144 59.5 190 c 128,-1,24
 50 236 50 236 50 283 c 2,25,-1
 50 597 l 1,26,-1
 108 653 l 1,27,-1
 435 653 l 1,28,-1
 435 540 l 1,0,-1
400 730 m 1,29,-1
 334 730 l 1,30,-1
 261 789 l 1,31,-1
 183 730 l 1,32,-1
 110 730 l 1,33,-1
 110 760 l 1,34,-1
 260 869 l 1,35,-1
 400 763 l 1,36,-1
 400 730 l 1,29,-1
EndSplineSet
Validated: 1
EndChar

StartChar: edieresis
Encoding: 235 235 173
Width: 470
GlyphClass: 2
Flags: W
LayerCount: 2
Fore
SplineSet
435 540 m 1,0,-1
 166 540 l 1,1,-1
 166 401 l 1,2,-1
 386 401 l 1,3,-1
 386 289 l 1,4,-1
 166 289 l 1,5,-1
 166 270 l 2,6,7
 166 265 166 265 166.5 255 c 128,-1,8
 167 245 167 245 168.5 234 c 128,-1,9
 170 223 170 223 173 212 c 128,-1,10
 176 201 176 201 181 193 c 0,11,12
 194 172 194 172 225.5 155.5 c 128,-1,13
 257 139 257 139 319 122 c 2,14,-1
 434 90 l 1,15,-1
 434 -27 l 1,16,-1
 311 7 l 2,17,18
 264 20 264 20 230.5 31.5 c 128,-1,19
 197 43 197 43 172 56 c 128,-1,20
 147 69 147 69 128.5 84 c 128,-1,21
 110 99 110 99 93 118 c 0,22,23
 69 144 69 144 59.5 190 c 128,-1,24
 50 236 50 236 50 283 c 2,25,-1
 50 597 l 1,26,-1
 108 653 l 1,27,-1
 435 653 l 1,28,-1
 435 540 l 1,0,-1
137 846 m 0,29,30
 160 846 160 846 176.5 829 c 128,-1,31
 193 812 193 812 193 789 c 256,32,33
 193 766 193 766 176.5 749 c 128,-1,34
 160 732 160 732 137 732 c 0,35,36
 113 732 113 732 96.5 749 c 128,-1,37
 80 766 80 766 80 789 c 256,38,39
 80 812 80 812 96.5 829 c 128,-1,40
 113 846 113 846 137 846 c 0,29,30
419 789 m 256,41,42
 419 766 419 766 402.5 749 c 128,-1,43
 386 732 386 732 362 732 c 0,44,45
 339 732 339 732 322.5 749 c 128,-1,46
 306 766 306 766 306 789 c 256,47,48
 306 812 306 812 322.5 829 c 128,-1,49
 339 846 339 846 362 846 c 0,50,51
 386 846 386 846 402.5 829 c 128,-1,52
 419 812 419 812 419 789 c 256,41,42
EndSplineSet
Validated: 1
EndChar

StartChar: igrave
Encoding: 236 236 174
Width: 238
GlyphClass: 2
Flags: W
LayerCount: 2
Fore
SplineSet
178 -39 m 1,0,-1
 151 -39 l 1,1,-1
 60 53 l 1,2,-1
 60 653 l 1,3,-1
 178 653 l 1,4,-1
 178 -39 l 1,0,-1
180 730 m 1,5,-1
 104 730 l 1,6,-1
 -17 802 l 1,7,-1
 28 862 l 1,8,-1
 180 759 l 1,9,-1
 180 730 l 1,5,-1
EndSplineSet
Validated: 1
EndChar

StartChar: iacute
Encoding: 237 237 175
Width: 238
GlyphClass: 2
Flags: W
LayerCount: 2
Fore
SplineSet
178 -39 m 1,0,-1
 151 -39 l 1,1,-1
 60 53 l 1,2,-1
 60 653 l 1,3,-1
 178 653 l 1,4,-1
 178 -39 l 1,0,-1
260 796 m 1,5,-1
 138 730 l 1,6,-1
 55 730 l 1,7,-1
 55 756 l 1,8,-1
 221 859 l 1,9,-1
 260 796 l 1,5,-1
EndSplineSet
Validated: 1
EndChar

StartChar: icircumflex
Encoding: 238 238 176
Width: 238
GlyphClass: 2
Flags: W
LayerCount: 2
Fore
SplineSet
178 -39 m 1,0,-1
 151 -39 l 1,1,-1
 60 53 l 1,2,-1
 60 653 l 1,3,-1
 178 653 l 1,4,-1
 178 -39 l 1,0,-1
265 730 m 1,5,-1
 199 730 l 1,6,-1
 126 789 l 1,7,-1
 48 730 l 1,8,-1
 -25 730 l 1,9,-1
 -25 760 l 1,10,-1
 125 869 l 1,11,-1
 265 763 l 1,12,-1
 265 730 l 1,5,-1
EndSplineSet
Validated: 1
EndChar

StartChar: idieresis
Encoding: 239 239 177
Width: 238
GlyphClass: 2
Flags: W
LayerCount: 2
Fore
SplineSet
178 -39 m 1,0,-1
 151 -39 l 1,1,-1
 60 53 l 1,2,-1
 60 653 l 1,3,-1
 178 653 l 1,4,-1
 178 -39 l 1,0,-1
12 846 m 0,5,6
 35 846 35 846 51.5 829 c 128,-1,7
 68 812 68 812 68 789 c 256,8,9
 68 766 68 766 51.5 749 c 128,-1,10
 35 732 35 732 12 732 c 0,11,12
 -12 732 -12 732 -28.5 749 c 128,-1,13
 -45 766 -45 766 -45 789 c 256,14,15
 -45 812 -45 812 -28.5 829 c 128,-1,16
 -12 846 -12 846 12 846 c 0,5,6
294 789 m 256,17,18
 294 766 294 766 277.5 749 c 128,-1,19
 261 732 261 732 237 732 c 0,20,21
 214 732 214 732 197.5 749 c 128,-1,22
 181 766 181 766 181 789 c 256,23,24
 181 812 181 812 197.5 829 c 128,-1,25
 214 846 214 846 237 846 c 0,26,27
 261 846 261 846 277.5 829 c 128,-1,28
 294 812 294 812 294 789 c 256,17,18
EndSplineSet
Validated: 1
EndChar

StartChar: eth
Encoding: 240 240 178
Width: 616
GlyphClass: 2
Flags: W
LayerCount: 2
Fore
SplineSet
566 358 m 2,0,1
 566 304 566 304 562 260.5 c 128,-1,2
 558 217 558 217 548 182.5 c 128,-1,3
 538 148 538 148 521 121 c 128,-1,4
 504 94 504 94 477 72 c 0,5,6
 431 34 431 34 372.5 17 c 128,-1,7
 314 0 314 0 247 0 c 2,8,-1
 129 0 l 1,9,-1
 129 294 l 1,10,-1
 86 294 l 1,11,-1
 -5 384 l 1,12,-1
 -5 395 l 1,13,-1
 129 395 l 1,14,-1
 129 596 l 1,15,-1
 187 653 l 1,16,-1
 566 653 l 1,17,-1
 566 358 l 2,0,1
244 540 m 1,18,-1
 244 395 l 1,19,-1
 353 395 l 1,20,-1
 353 294 l 1,21,-1
 244 294 l 1,22,-1
 244 112 l 1,23,-1
 267 112 l 2,24,25
 312 112 312 112 344 123 c 128,-1,26
 376 134 376 134 399 155 c 0,27,28
 427 180 427 180 438 221 c 128,-1,29
 449 262 449 262 449 337 c 2,30,-1
 449 540 l 1,31,-1
 244 540 l 1,18,-1
EndSplineSet
Validated: 1
EndChar

StartChar: ntilde
Encoding: 241 241 179
Width: 588
GlyphClass: 2
Flags: W
LayerCount: 2
Fore
SplineSet
533 0 m 1,0,-1
 419 0 l 1,1,-1
 419 77 l 2,2,3
 419 97 419 97 414.5 120.5 c 128,-1,4
 410 144 410 144 395 173 c 128,-1,5
 380 202 380 202 352 239 c 128,-1,6
 324 276 324 276 278 324 c 2,7,-1
 173 429 l 1,8,-1
 173 0 l 1,9,-1
 55 0 l 1,10,-1
 55 653 l 1,11,-1
 173 653 l 1,12,-1
 173 584 l 1,13,-1
 320 437 l 2,14,15
 355 402 355 402 378 376 c 128,-1,16
 401 350 401 350 416 324 c 1,17,-1
 416 653 l 1,18,-1
 533 653 l 1,19,-1
 533 0 l 1,0,-1
490 795 m 1,20,-1
 467 773 l 2,21,22
 452 759 452 759 433 752.5 c 128,-1,23
 414 746 414 746 398 746 c 0,24,25
 375 746 375 746 360 749 c 2,26,-1
 226 781 l 2,27,28
 209 785 209 785 195.5 786 c 128,-1,29
 182 787 182 787 170 787 c 0,30,31
 159 787 159 787 150.5 784 c 128,-1,32
 142 781 142 781 128 774 c 1,33,-1
 112 799 l 1,34,-1
 135 821 l 2,35,36
 150 835 150 835 169 841.5 c 128,-1,37
 188 848 188 848 204 848 c 0,38,39
 227 848 227 848 242 845 c 2,40,-1
 376 813 l 2,41,42
 393 809 393 809 406.5 808 c 128,-1,43
 420 807 420 807 432 807 c 0,44,45
 443 807 443 807 451.5 810 c 128,-1,46
 460 813 460 813 474 820 c 1,47,-1
 490 795 l 1,20,-1
EndSplineSet
Validated: 1
EndChar

StartChar: ograve
Encoding: 242 242 180
Width: 515
GlyphClass: 2
Flags: W
LayerCount: 2
Fore
SplineSet
283 668 m 2,0,1
 347 634 347 634 384 601.5 c 128,-1,2
 421 569 421 569 439.5 535 c 128,-1,3
 458 501 458 501 462.5 464 c 128,-1,4
 467 427 467 427 467 383 c 2,5,-1
 467 268 l 2,6,7
 467 224 467 224 462.5 187 c 128,-1,8
 458 150 458 150 439.5 116 c 128,-1,9
 421 82 421 82 384 50 c 128,-1,10
 347 18 347 18 283 -17 c 2,11,-1
 258 -31 l 1,12,-1
 232 -17 l 2,13,14
 168 18 168 18 131.5 50 c 128,-1,15
 95 82 95 82 76.5 116 c 128,-1,16
 58 150 58 150 53 187 c 128,-1,17
 48 224 48 224 48 268 c 2,18,-1
 48 383 l 2,19,20
 48 427 48 427 53 464 c 128,-1,21
 58 501 58 501 76.5 535 c 128,-1,22
 95 569 95 569 131.5 601.5 c 128,-1,23
 168 634 168 634 232 668 c 2,24,-1
 258 682 l 1,25,-1
 283 668 l 2,0,1
257 554 m 1,26,27
 229 536 229 536 211 519.5 c 128,-1,28
 193 503 193 503 183 485 c 128,-1,29
 173 467 173 467 169.5 444.5 c 128,-1,30
 166 422 166 422 166 390 c 2,31,-1
 166 260 l 2,32,33
 166 228 166 228 169.5 205.5 c 128,-1,34
 173 183 173 183 183 165 c 128,-1,35
 193 147 193 147 211 131 c 128,-1,36
 229 115 229 115 257 97 c 1,37,-1
 258 97 l 1,38,39
 286 115 286 115 304 131.5 c 128,-1,40
 322 148 322 148 332 166 c 128,-1,41
 342 184 342 184 345.5 206.5 c 128,-1,42
 349 229 349 229 349 260 c 2,43,-1
 349 390 l 2,44,45
 349 422 349 422 345.5 444.5 c 128,-1,46
 342 467 342 467 332 485 c 128,-1,47
 322 503 322 503 304 519.5 c 128,-1,48
 286 536 286 536 258 554 c 1,49,-1
 257 554 l 1,26,27
320 730 m 1,50,-1
 244 730 l 1,51,-1
 123 802 l 1,52,-1
 168 862 l 1,53,-1
 320 759 l 1,54,-1
 320 730 l 1,50,-1
EndSplineSet
Validated: 1
EndChar

StartChar: oacute
Encoding: 243 243 181
Width: 515
GlyphClass: 2
Flags: W
LayerCount: 2
Fore
SplineSet
283 668 m 2,0,1
 347 634 347 634 384 601.5 c 128,-1,2
 421 569 421 569 439.5 535 c 128,-1,3
 458 501 458 501 462.5 464 c 128,-1,4
 467 427 467 427 467 383 c 2,5,-1
 467 268 l 2,6,7
 467 224 467 224 462.5 187 c 128,-1,8
 458 150 458 150 439.5 116 c 128,-1,9
 421 82 421 82 384 50 c 128,-1,10
 347 18 347 18 283 -17 c 2,11,-1
 258 -31 l 1,12,-1
 232 -17 l 2,13,14
 168 18 168 18 131.5 50 c 128,-1,15
 95 82 95 82 76.5 116 c 128,-1,16
 58 150 58 150 53 187 c 128,-1,17
 48 224 48 224 48 268 c 2,18,-1
 48 383 l 2,19,20
 48 427 48 427 53 464 c 128,-1,21
 58 501 58 501 76.5 535 c 128,-1,22
 95 569 95 569 131.5 601.5 c 128,-1,23
 168 634 168 634 232 668 c 2,24,-1
 258 682 l 1,25,-1
 283 668 l 2,0,1
257 554 m 1,26,27
 229 536 229 536 211 519.5 c 128,-1,28
 193 503 193 503 183 485 c 128,-1,29
 173 467 173 467 169.5 444.5 c 128,-1,30
 166 422 166 422 166 390 c 2,31,-1
 166 260 l 2,32,33
 166 228 166 228 169.5 205.5 c 128,-1,34
 173 183 173 183 183 165 c 128,-1,35
 193 147 193 147 211 131 c 128,-1,36
 229 115 229 115 257 97 c 1,37,-1
 258 97 l 1,38,39
 286 115 286 115 304 131.5 c 128,-1,40
 322 148 322 148 332 166 c 128,-1,41
 342 184 342 184 345.5 206.5 c 128,-1,42
 349 229 349 229 349 260 c 2,43,-1
 349 390 l 2,44,45
 349 422 349 422 345.5 444.5 c 128,-1,46
 342 467 342 467 332 485 c 128,-1,47
 322 503 322 503 304 519.5 c 128,-1,48
 286 536 286 536 258 554 c 1,49,-1
 257 554 l 1,26,27
395 796 m 1,50,-1
 273 730 l 1,51,-1
 190 730 l 1,52,-1
 190 756 l 1,53,-1
 356 859 l 1,54,-1
 395 796 l 1,50,-1
EndSplineSet
Validated: 1
Substitution2: "'locl' Localized Forms in Latin lookup 3 subtable" oacute.loclPLK
Substitution2: "'aalt' Access All Alternates in Latin lookup 0 subtable" oacute.loclPLK
EndChar

StartChar: ocircumflex
Encoding: 244 244 182
Width: 515
GlyphClass: 2
Flags: W
LayerCount: 2
Fore
SplineSet
283 668 m 2,0,1
 347 634 347 634 384 601.5 c 128,-1,2
 421 569 421 569 439.5 535 c 128,-1,3
 458 501 458 501 462.5 464 c 128,-1,4
 467 427 467 427 467 383 c 2,5,-1
 467 268 l 2,6,7
 467 224 467 224 462.5 187 c 128,-1,8
 458 150 458 150 439.5 116 c 128,-1,9
 421 82 421 82 384 50 c 128,-1,10
 347 18 347 18 283 -17 c 2,11,-1
 258 -31 l 1,12,-1
 232 -17 l 2,13,14
 168 18 168 18 131.5 50 c 128,-1,15
 95 82 95 82 76.5 116 c 128,-1,16
 58 150 58 150 53 187 c 128,-1,17
 48 224 48 224 48 268 c 2,18,-1
 48 383 l 2,19,20
 48 427 48 427 53 464 c 128,-1,21
 58 501 58 501 76.5 535 c 128,-1,22
 95 569 95 569 131.5 601.5 c 128,-1,23
 168 634 168 634 232 668 c 2,24,-1
 258 682 l 1,25,-1
 283 668 l 2,0,1
257 554 m 1,26,27
 229 536 229 536 211 519.5 c 128,-1,28
 193 503 193 503 183 485 c 128,-1,29
 173 467 173 467 169.5 444.5 c 128,-1,30
 166 422 166 422 166 390 c 2,31,-1
 166 260 l 2,32,33
 166 228 166 228 169.5 205.5 c 128,-1,34
 173 183 173 183 183 165 c 128,-1,35
 193 147 193 147 211 131 c 128,-1,36
 229 115 229 115 257 97 c 1,37,-1
 258 97 l 1,38,39
 286 115 286 115 304 131.5 c 128,-1,40
 322 148 322 148 332 166 c 128,-1,41
 342 184 342 184 345.5 206.5 c 128,-1,42
 349 229 349 229 349 260 c 2,43,-1
 349 390 l 2,44,45
 349 422 349 422 345.5 444.5 c 128,-1,46
 342 467 342 467 332 485 c 128,-1,47
 322 503 322 503 304 519.5 c 128,-1,48
 286 536 286 536 258 554 c 1,49,-1
 257 554 l 1,26,27
400 730 m 1,50,-1
 334 730 l 1,51,-1
 261 789 l 1,52,-1
 183 730 l 1,53,-1
 110 730 l 1,54,-1
 110 760 l 1,55,-1
 260 869 l 1,56,-1
 400 763 l 1,57,-1
 400 730 l 1,50,-1
EndSplineSet
Validated: 1
EndChar

StartChar: otilde
Encoding: 245 245 183
Width: 515
GlyphClass: 2
Flags: W
LayerCount: 2
Fore
SplineSet
283 668 m 2,0,1
 347 634 347 634 384 601.5 c 128,-1,2
 421 569 421 569 439.5 535 c 128,-1,3
 458 501 458 501 462.5 464 c 128,-1,4
 467 427 467 427 467 383 c 2,5,-1
 467 268 l 2,6,7
 467 224 467 224 462.5 187 c 128,-1,8
 458 150 458 150 439.5 116 c 128,-1,9
 421 82 421 82 384 50 c 128,-1,10
 347 18 347 18 283 -17 c 2,11,-1
 258 -31 l 1,12,-1
 232 -17 l 2,13,14
 168 18 168 18 131.5 50 c 128,-1,15
 95 82 95 82 76.5 116 c 128,-1,16
 58 150 58 150 53 187 c 128,-1,17
 48 224 48 224 48 268 c 2,18,-1
 48 383 l 2,19,20
 48 427 48 427 53 464 c 128,-1,21
 58 501 58 501 76.5 535 c 128,-1,22
 95 569 95 569 131.5 601.5 c 128,-1,23
 168 634 168 634 232 668 c 2,24,-1
 258 682 l 1,25,-1
 283 668 l 2,0,1
257 554 m 1,26,27
 229 536 229 536 211 519.5 c 128,-1,28
 193 503 193 503 183 485 c 128,-1,29
 173 467 173 467 169.5 444.5 c 128,-1,30
 166 422 166 422 166 390 c 2,31,-1
 166 260 l 2,32,33
 166 228 166 228 169.5 205.5 c 128,-1,34
 173 183 173 183 183 165 c 128,-1,35
 193 147 193 147 211 131 c 128,-1,36
 229 115 229 115 257 97 c 1,37,-1
 258 97 l 1,38,39
 286 115 286 115 304 131.5 c 128,-1,40
 322 148 322 148 332 166 c 128,-1,41
 342 184 342 184 345.5 206.5 c 128,-1,42
 349 229 349 229 349 260 c 2,43,-1
 349 390 l 2,44,45
 349 422 349 422 345.5 444.5 c 128,-1,46
 342 467 342 467 332 485 c 128,-1,47
 322 503 322 503 304 519.5 c 128,-1,48
 286 536 286 536 258 554 c 1,49,-1
 257 554 l 1,26,27
455 795 m 1,50,-1
 432 773 l 2,51,52
 417 759 417 759 398 752.5 c 128,-1,53
 379 746 379 746 363 746 c 0,54,55
 340 746 340 746 325 749 c 2,56,-1
 191 781 l 2,57,58
 174 785 174 785 160.5 786 c 128,-1,59
 147 787 147 787 135 787 c 0,60,61
 124 787 124 787 115.5 784 c 128,-1,62
 107 781 107 781 93 774 c 1,63,-1
 77 799 l 1,64,-1
 100 821 l 2,65,66
 115 835 115 835 134 841.5 c 128,-1,67
 153 848 153 848 169 848 c 0,68,69
 192 848 192 848 207 845 c 2,70,-1
 341 813 l 2,71,72
 358 809 358 809 371.5 808 c 128,-1,73
 385 807 385 807 397 807 c 0,74,75
 408 807 408 807 416.5 810 c 128,-1,76
 425 813 425 813 439 820 c 1,77,-1
 455 795 l 1,50,-1
EndSplineSet
Validated: 1
EndChar

StartChar: odieresis
Encoding: 246 246 184
Width: 515
GlyphClass: 2
Flags: W
LayerCount: 2
Fore
SplineSet
283 668 m 2,0,1
 347 634 347 634 384 601.5 c 128,-1,2
 421 569 421 569 439.5 535 c 128,-1,3
 458 501 458 501 462.5 464 c 128,-1,4
 467 427 467 427 467 383 c 2,5,-1
 467 268 l 2,6,7
 467 224 467 224 462.5 187 c 128,-1,8
 458 150 458 150 439.5 116 c 128,-1,9
 421 82 421 82 384 50 c 128,-1,10
 347 18 347 18 283 -17 c 2,11,-1
 258 -31 l 1,12,-1
 232 -17 l 2,13,14
 168 18 168 18 131.5 50 c 128,-1,15
 95 82 95 82 76.5 116 c 128,-1,16
 58 150 58 150 53 187 c 128,-1,17
 48 224 48 224 48 268 c 2,18,-1
 48 383 l 2,19,20
 48 427 48 427 53 464 c 128,-1,21
 58 501 58 501 76.5 535 c 128,-1,22
 95 569 95 569 131.5 601.5 c 128,-1,23
 168 634 168 634 232 668 c 2,24,-1
 258 682 l 1,25,-1
 283 668 l 2,0,1
257 554 m 1,26,27
 229 536 229 536 211 519.5 c 128,-1,28
 193 503 193 503 183 485 c 128,-1,29
 173 467 173 467 169.5 444.5 c 128,-1,30
 166 422 166 422 166 390 c 2,31,-1
 166 260 l 2,32,33
 166 228 166 228 169.5 205.5 c 128,-1,34
 173 183 173 183 183 165 c 128,-1,35
 193 147 193 147 211 131 c 128,-1,36
 229 115 229 115 257 97 c 1,37,-1
 258 97 l 1,38,39
 286 115 286 115 304 131.5 c 128,-1,40
 322 148 322 148 332 166 c 128,-1,41
 342 184 342 184 345.5 206.5 c 128,-1,42
 349 229 349 229 349 260 c 2,43,-1
 349 390 l 2,44,45
 349 422 349 422 345.5 444.5 c 128,-1,46
 342 467 342 467 332 485 c 128,-1,47
 322 503 322 503 304 519.5 c 128,-1,48
 286 536 286 536 258 554 c 1,49,-1
 257 554 l 1,26,27
146 846 m 0,50,51
 169 846 169 846 185.5 829 c 128,-1,52
 202 812 202 812 202 789 c 256,53,54
 202 766 202 766 185.5 749 c 128,-1,55
 169 732 169 732 146 732 c 0,56,57
 122 732 122 732 105.5 749 c 128,-1,58
 89 766 89 766 89 789 c 256,59,60
 89 812 89 812 105.5 829 c 128,-1,61
 122 846 122 846 146 846 c 0,50,51
428 789 m 256,62,63
 428 766 428 766 411.5 749 c 128,-1,64
 395 732 395 732 371 732 c 0,65,66
 348 732 348 732 331.5 749 c 128,-1,67
 315 766 315 766 315 789 c 256,68,69
 315 812 315 812 331.5 829 c 128,-1,70
 348 846 348 846 371 846 c 0,71,72
 395 846 395 846 411.5 829 c 128,-1,73
 428 812 428 812 428 789 c 256,62,63
EndSplineSet
Validated: 1
EndChar

StartChar: oslash
Encoding: 248 248 186
Width: 551
GlyphClass: 2
Flags: W
LayerCount: 2
Fore
SplineSet
461 537 m 1,0,1
 485 498 485 498 491 457 c 128,-1,2
 497 416 497 416 497 368 c 2,3,-1
 497 273 l 2,4,5
 497 229 497 229 492 192 c 128,-1,6
 487 155 487 155 467.5 121 c 128,-1,7
 448 87 448 87 409 55 c 128,-1,8
 370 23 370 23 302 -12 c 2,9,-1
 276 -26 l 1,10,-1
 249 -12 l 2,11,12
 211 7 211 7 182.5 26 c 128,-1,13
 154 45 154 45 133 64 c 1,14,-1
 71 -26 l 1,15,-1
 20 10 l 1,16,-1
 90 111 l 1,17,18
 66 152 66 152 60 193.5 c 128,-1,19
 54 235 54 235 54 283 c 2,20,-1
 54 378 l 2,21,22
 54 422 54 422 59 459 c 128,-1,23
 64 496 64 496 84 530 c 128,-1,24
 104 564 104 564 143 596.5 c 128,-1,25
 182 629 182 629 249 663 c 2,26,-1
 276 677 l 1,27,-1
 302 663 l 2,28,29
 377 624 377 624 418 586 c 1,30,-1
 480 676 l 1,31,-1
 532 640 l 1,32,-1
 461 537 l 1,0,1
275 549 m 1,33,34
 242 531 242 531 221.5 514.5 c 128,-1,35
 201 498 201 498 189 480 c 128,-1,36
 177 462 177 462 173 439.5 c 128,-1,37
 169 417 169 417 169 385 c 2,38,-1
 169 265 l 2,39,40
 169 254 169 254 169 247 c 128,-1,41
 169 240 169 240 170 236 c 0,42,43
 170 231 170 231 170 229 c 2,44,-1
 172 228 l 1,45,-1
 353 492 l 1,46,47
 341 506 341 506 322 519.5 c 128,-1,48
 303 533 303 533 276 549 c 1,49,-1
 275 549 l 1,33,34
378 420 m 1,50,-1
 198 157 l 1,51,52
 210 143 210 143 229 130 c 128,-1,53
 248 117 248 117 275 102 c 1,54,-1
 276 102 l 1,55,56
 309 120 309 120 329.5 136.5 c 128,-1,57
 350 153 350 153 361.5 171 c 128,-1,58
 373 189 373 189 377 211.5 c 128,-1,59
 381 234 381 234 381 265 c 2,60,-1
 381 385 l 2,61,62
 381 394 381 394 381 400.5 c 128,-1,63
 381 407 381 407 381 411 c 0,64,65
 380 416 380 416 380 419 c 2,66,-1
 378 420 l 1,50,-1
EndSplineSet
Validated: 1
EndChar

StartChar: ugrave
Encoding: 249 249 187
Width: 537
GlyphClass: 2
Flags: W
LayerCount: 2
Fore
SplineSet
482 0 m 1,0,-1
 364 0 l 2,1,2
 298 0 298 0 237.5 16 c 128,-1,3
 177 32 177 32 131 69 c 0,4,5
 105 90 105 90 88 116.5 c 128,-1,6
 71 143 71 143 61.5 177 c 128,-1,7
 52 211 52 211 48.5 253 c 128,-1,8
 45 295 45 295 45 347 c 2,9,-1
 45 653 l 1,10,-1
 163 653 l 1,11,-1
 163 322 l 2,12,13
 163 254 163 254 173 217 c 128,-1,14
 183 180 183 180 211 156 c 0,15,16
 234 136 234 136 266 124.5 c 128,-1,17
 298 113 298 113 344 113 c 2,18,-1
 364 113 l 1,19,-1
 364 653 l 1,20,-1
 482 653 l 1,21,-1
 482 0 l 1,0,-1
340 730 m 1,22,-1
 264 730 l 1,23,-1
 143 802 l 1,24,-1
 188 862 l 1,25,-1
 340 759 l 1,26,-1
 340 730 l 1,22,-1
EndSplineSet
Validated: 1
EndChar

StartChar: uacute
Encoding: 250 250 188
Width: 537
GlyphClass: 2
Flags: W
LayerCount: 2
Fore
SplineSet
482 0 m 1,0,-1
 364 0 l 2,1,2
 298 0 298 0 237.5 16 c 128,-1,3
 177 32 177 32 131 69 c 0,4,5
 105 90 105 90 88 116.5 c 128,-1,6
 71 143 71 143 61.5 177 c 128,-1,7
 52 211 52 211 48.5 253 c 128,-1,8
 45 295 45 295 45 347 c 2,9,-1
 45 653 l 1,10,-1
 163 653 l 1,11,-1
 163 322 l 2,12,13
 163 254 163 254 173 217 c 128,-1,14
 183 180 183 180 211 156 c 0,15,16
 234 136 234 136 266 124.5 c 128,-1,17
 298 113 298 113 344 113 c 2,18,-1
 364 113 l 1,19,-1
 364 653 l 1,20,-1
 482 653 l 1,21,-1
 482 0 l 1,0,-1
425 796 m 1,22,-1
 303 730 l 1,23,-1
 220 730 l 1,24,-1
 220 756 l 1,25,-1
 386 859 l 1,26,-1
 425 796 l 1,22,-1
EndSplineSet
Validated: 1
EndChar

StartChar: ucircumflex
Encoding: 251 251 189
Width: 537
GlyphClass: 2
Flags: W
LayerCount: 2
Fore
SplineSet
482 0 m 1,0,-1
 364 0 l 2,1,2
 298 0 298 0 237.5 16 c 128,-1,3
 177 32 177 32 131 69 c 0,4,5
 105 90 105 90 88 116.5 c 128,-1,6
 71 143 71 143 61.5 177 c 128,-1,7
 52 211 52 211 48.5 253 c 128,-1,8
 45 295 45 295 45 347 c 2,9,-1
 45 653 l 1,10,-1
 163 653 l 1,11,-1
 163 322 l 2,12,13
 163 254 163 254 173 217 c 128,-1,14
 183 180 183 180 211 156 c 0,15,16
 234 136 234 136 266 124.5 c 128,-1,17
 298 113 298 113 344 113 c 2,18,-1
 364 113 l 1,19,-1
 364 653 l 1,20,-1
 482 653 l 1,21,-1
 482 0 l 1,0,-1
415 730 m 1,22,-1
 349 730 l 1,23,-1
 276 789 l 1,24,-1
 198 730 l 1,25,-1
 125 730 l 1,26,-1
 125 760 l 1,27,-1
 275 869 l 1,28,-1
 415 763 l 1,29,-1
 415 730 l 1,22,-1
EndSplineSet
Validated: 1
EndChar

StartChar: udieresis
Encoding: 252 252 190
Width: 537
GlyphClass: 2
Flags: W
LayerCount: 2
Fore
SplineSet
482 0 m 1,0,-1
 364 0 l 2,1,2
 298 0 298 0 237.5 16 c 128,-1,3
 177 32 177 32 131 69 c 0,4,5
 105 90 105 90 88 116.5 c 128,-1,6
 71 143 71 143 61.5 177 c 128,-1,7
 52 211 52 211 48.5 253 c 128,-1,8
 45 295 45 295 45 347 c 2,9,-1
 45 653 l 1,10,-1
 163 653 l 1,11,-1
 163 322 l 2,12,13
 163 254 163 254 173 217 c 128,-1,14
 183 180 183 180 211 156 c 0,15,16
 234 136 234 136 266 124.5 c 128,-1,17
 298 113 298 113 344 113 c 2,18,-1
 364 113 l 1,19,-1
 364 653 l 1,20,-1
 482 653 l 1,21,-1
 482 0 l 1,0,-1
162 846 m 0,22,23
 185 846 185 846 201.5 829 c 128,-1,24
 218 812 218 812 218 789 c 256,25,26
 218 766 218 766 201.5 749 c 128,-1,27
 185 732 185 732 162 732 c 0,28,29
 138 732 138 732 121.5 749 c 128,-1,30
 105 766 105 766 105 789 c 256,31,32
 105 812 105 812 121.5 829 c 128,-1,33
 138 846 138 846 162 846 c 0,22,23
444 789 m 256,34,35
 444 766 444 766 427.5 749 c 128,-1,36
 411 732 411 732 387 732 c 0,37,38
 364 732 364 732 347.5 749 c 128,-1,39
 331 766 331 766 331 789 c 256,40,41
 331 812 331 812 347.5 829 c 128,-1,42
 364 846 364 846 387 846 c 0,43,44
 411 846 411 846 427.5 829 c 128,-1,45
 444 812 444 812 444 789 c 256,34,35
EndSplineSet
Validated: 1
EndChar

StartChar: yacute
Encoding: 253 253 191
Width: 466
GlyphClass: 2
Flags: W
LayerCount: 2
Fore
SplineSet
444 603 m 2,0,1
 435 543 435 543 423 498.5 c 128,-1,2
 411 454 411 454 393 417.5 c 128,-1,3
 375 381 375 381 351.5 348.5 c 128,-1,4
 328 316 328 316 296 280 c 1,5,-1
 296 52 l 1,6,-1
 206 -39 l 1,7,-1
 179 -39 l 1,8,-1
 179 277 l 1,9,-1
 -5 653 l 1,10,-1
 129 653 l 1,11,-1
 248 396 l 1,12,13
 267 421 267 421 280.5 446.5 c 128,-1,14
 294 472 294 472 303.5 502 c 128,-1,15
 313 532 313 532 319.5 569 c 128,-1,16
 326 606 326 606 330 653 c 1,17,-1
 451 653 l 1,18,-1
 444 603 l 2,0,1
375 796 m 1,19,-1
 253 730 l 1,20,-1
 170 730 l 1,21,-1
 170 756 l 1,22,-1
 336 859 l 1,23,-1
 375 796 l 1,19,-1
EndSplineSet
Validated: 1
EndChar

StartChar: thorn
Encoding: 254 254 192
Width: 495
GlyphClass: 2
Flags: W
LayerCount: 2
Fore
SplineSet
455 459 m 2,0,1
 455 411 455 411 449.5 374.5 c 128,-1,2
 444 338 444 338 433 309 c 128,-1,3
 422 280 422 280 404 257.5 c 128,-1,4
 386 235 386 235 361 215 c 0,5,6
 330 190 330 190 283.5 173.5 c 128,-1,7
 237 157 237 157 171 142 c 1,8,-1
 171 0 l 1,9,-1
 55 0 l 1,10,-1
 55 653 l 1,11,-1
 171 653 l 1,12,-1
 171 506 l 1,13,-1
 229 563 l 1,14,-1
 455 563 l 1,15,-1
 455 459 l 2,0,1
171 450 m 1,16,-1
 171 251 l 1,17,18
 210 261 210 261 241 274.5 c 128,-1,19
 272 288 272 288 292 305 c 0,20,21
 321 331 321 331 330 362.5 c 128,-1,22
 339 394 339 394 339 450 c 1,23,-1
 171 450 l 1,16,-1
EndSplineSet
Validated: 1
EndChar

StartChar: ydieresis
Encoding: 255 255 193
Width: 466
GlyphClass: 2
Flags: W
LayerCount: 2
Fore
SplineSet
444 603 m 2,0,1
 435 543 435 543 423 498.5 c 128,-1,2
 411 454 411 454 393 417.5 c 128,-1,3
 375 381 375 381 351.5 348.5 c 128,-1,4
 328 316 328 316 296 280 c 1,5,-1
 296 52 l 1,6,-1
 206 -39 l 1,7,-1
 179 -39 l 1,8,-1
 179 277 l 1,9,-1
 -5 653 l 1,10,-1
 129 653 l 1,11,-1
 248 396 l 1,12,13
 267 421 267 421 280.5 446.5 c 128,-1,14
 294 472 294 472 303.5 502 c 128,-1,15
 313 532 313 532 319.5 569 c 128,-1,16
 326 606 326 606 330 653 c 1,17,-1
 451 653 l 1,18,-1
 444 603 l 2,0,1
127 846 m 0,19,20
 150 846 150 846 166.5 829 c 128,-1,21
 183 812 183 812 183 789 c 256,22,23
 183 766 183 766 166.5 749 c 128,-1,24
 150 732 150 732 127 732 c 0,25,26
 103 732 103 732 86.5 749 c 128,-1,27
 70 766 70 766 70 789 c 256,28,29
 70 812 70 812 86.5 829 c 128,-1,30
 103 846 103 846 127 846 c 0,19,20
409 789 m 256,31,32
 409 766 409 766 392.5 749 c 128,-1,33
 376 732 376 732 352 732 c 0,34,35
 329 732 329 732 312.5 749 c 128,-1,36
 296 766 296 766 296 789 c 256,37,38
 296 812 296 812 312.5 829 c 128,-1,39
 329 846 329 846 352 846 c 0,40,41
 376 846 376 846 392.5 829 c 128,-1,42
 409 812 409 812 409 789 c 256,31,32
EndSplineSet
Validated: 1
EndChar

StartChar: Amacron
Encoding: 256 256 194
Width: 594
GlyphClass: 2
Flags: W
LayerCount: 2
Fore
SplineSet
315 796 m 2,0,1
 395 747 395 747 439.5 701.5 c 128,-1,2
 484 656 484 656 505 610.5 c 128,-1,3
 526 565 526 565 530 517.5 c 128,-1,4
 534 470 534 470 534 417 c 2,5,-1
 534 0 l 1,6,-1
 409 0 l 1,7,-1
 409 307 l 1,8,-1
 184 251 l 1,9,-1
 184 0 l 1,10,-1
 60 0 l 1,11,-1
 60 420 l 2,12,13
 60 471 60 471 64 517.5 c 128,-1,14
 68 564 68 564 89 609.5 c 128,-1,15
 110 655 110 655 154 701 c 128,-1,16
 198 747 198 747 279 796 c 2,17,-1
 297 807 l 1,18,-1
 315 796 l 2,0,1
296 669 m 1,19,20
 261 644 261 644 239 618.5 c 128,-1,21
 217 593 217 593 205 563.5 c 128,-1,22
 193 534 193 534 188.5 498 c 128,-1,23
 184 462 184 462 184 415 c 2,24,-1
 184 366 l 1,25,-1
 409 422 l 1,26,-1
 409 428 l 2,27,28
 409 470 409 470 405 503 c 128,-1,29
 401 536 401 536 389 564.5 c 128,-1,30
 377 593 377 593 355 618.5 c 128,-1,31
 333 644 333 644 298 669 c 1,32,-1
 296 669 l 1,19,20
441 894 m 1,33,-1
 420 874 l 1,34,-1
 150 874 l 1,35,-1
 150 920 l 1,36,-1
 171 940 l 1,37,-1
 441 940 l 1,38,-1
 441 894 l 1,33,-1
EndSplineSet
Validated: 1
EndChar

StartChar: amacron
Encoding: 257 257 195
Width: 537
GlyphClass: 2
Flags: W
LayerCount: 2
Fore
SplineSet
287 673 m 2,0,1
 355 631 355 631 395 591.5 c 128,-1,2
 435 552 435 552 455.5 512.5 c 128,-1,3
 476 473 476 473 481.5 432.5 c 128,-1,4
 487 392 487 392 487 349 c 2,5,-1
 487 0 l 1,6,-1
 371 0 l 1,7,-1
 371 244 l 1,8,-1
 166 193 l 1,9,-1
 166 0 l 1,10,-1
 50 0 l 1,11,-1
 50 330 l 2,12,13
 50 382 50 382 55 425.5 c 128,-1,14
 60 469 60 469 80 509.5 c 128,-1,15
 100 550 100 550 140.5 590 c 128,-1,16
 181 630 181 630 251 673 c 2,17,-1
 269 684 l 1,18,-1
 287 673 l 2,0,1
268 551 m 1,19,20
 236 529 236 529 216 507.5 c 128,-1,21
 196 486 196 486 185 460.5 c 128,-1,22
 174 435 174 435 170 403.5 c 128,-1,23
 166 372 166 372 166 331 c 2,24,-1
 166 307 l 1,25,-1
 373 359 l 1,26,27
 372 391 372 391 366.5 417.5 c 128,-1,28
 361 444 361 444 349 467 c 128,-1,29
 337 490 337 490 318 510.5 c 128,-1,30
 299 531 299 531 270 551 c 1,31,-1
 268 551 l 1,19,20
412 774 m 1,32,-1
 391 754 l 1,33,-1
 131 754 l 1,34,-1
 131 798 l 1,35,-1
 152 818 l 1,36,-1
 412 818 l 1,37,-1
 412 774 l 1,32,-1
EndSplineSet
Validated: 1
EndChar

StartChar: Abreve
Encoding: 258 258 196
Width: 594
GlyphClass: 2
Flags: W
LayerCount: 2
Fore
SplineSet
315 796 m 2,0,1
 395 747 395 747 439.5 701.5 c 128,-1,2
 484 656 484 656 505 610.5 c 128,-1,3
 526 565 526 565 530 517.5 c 128,-1,4
 534 470 534 470 534 417 c 2,5,-1
 534 0 l 1,6,-1
 409 0 l 1,7,-1
 409 307 l 1,8,-1
 184 251 l 1,9,-1
 184 0 l 1,10,-1
 60 0 l 1,11,-1
 60 420 l 2,12,13
 60 471 60 471 64 517.5 c 128,-1,14
 68 564 68 564 89 609.5 c 128,-1,15
 110 655 110 655 154 701 c 128,-1,16
 198 747 198 747 279 796 c 2,17,-1
 297 807 l 1,18,-1
 315 796 l 2,0,1
296 669 m 1,19,20
 261 644 261 644 239 618.5 c 128,-1,21
 217 593 217 593 205 563.5 c 128,-1,22
 193 534 193 534 188.5 498 c 128,-1,23
 184 462 184 462 184 415 c 2,24,-1
 184 366 l 1,25,-1
 409 422 l 1,26,-1
 409 428 l 2,27,28
 409 470 409 470 405 503 c 128,-1,29
 401 536 401 536 389 564.5 c 128,-1,30
 377 593 377 593 355 618.5 c 128,-1,31
 333 644 333 644 298 669 c 1,32,-1
 296 669 l 1,19,20
468 948 m 1,33,34
 412 895 412 895 374 873 c 128,-1,35
 336 851 336 851 313 851 c 0,36,37
 287 851 287 851 245 871 c 128,-1,38
 203 891 203 891 150 952 c 1,39,-1
 150 979 l 1,40,-1
 227 979 l 1,41,42
 250 953 250 953 272 936.5 c 128,-1,43
 294 920 294 920 319 920 c 0,44,45
 342 920 342 920 367.5 932.5 c 128,-1,46
 393 945 393 945 435 982 c 1,47,-1
 468 948 l 1,33,34
EndSplineSet
Validated: 1
EndChar

StartChar: abreve
Encoding: 259 259 197
Width: 537
GlyphClass: 2
Flags: W
LayerCount: 2
Fore
SplineSet
287 673 m 2,0,1
 355 631 355 631 395 591.5 c 128,-1,2
 435 552 435 552 455.5 512.5 c 128,-1,3
 476 473 476 473 481.5 432.5 c 128,-1,4
 487 392 487 392 487 349 c 2,5,-1
 487 0 l 1,6,-1
 371 0 l 1,7,-1
 371 244 l 1,8,-1
 166 193 l 1,9,-1
 166 0 l 1,10,-1
 50 0 l 1,11,-1
 50 330 l 2,12,13
 50 382 50 382 55 425.5 c 128,-1,14
 60 469 60 469 80 509.5 c 128,-1,15
 100 550 100 550 140.5 590 c 128,-1,16
 181 630 181 630 251 673 c 2,17,-1
 269 684 l 1,18,-1
 287 673 l 2,0,1
268 551 m 1,19,20
 236 529 236 529 216 507.5 c 128,-1,21
 196 486 196 486 185 460.5 c 128,-1,22
 174 435 174 435 170 403.5 c 128,-1,23
 166 372 166 372 166 331 c 2,24,-1
 166 307 l 1,25,-1
 373 359 l 1,26,27
 372 391 372 391 366.5 417.5 c 128,-1,28
 361 444 361 444 349 467 c 128,-1,29
 337 490 337 490 318 510.5 c 128,-1,30
 299 531 299 531 270 551 c 1,31,-1
 268 551 l 1,19,20
426 826 m 1,32,33
 383 784 383 784 342.5 757.5 c 128,-1,34
 302 731 302 731 279 731 c 0,35,36
 253 731 253 731 211 751 c 128,-1,37
 169 771 169 771 116 832 c 1,38,-1
 116 859 l 1,39,-1
 193 859 l 1,40,41
 216 833 216 833 238 816.5 c 128,-1,42
 260 800 260 800 285 800 c 0,43,44
 308 800 308 800 333 811 c 128,-1,45
 358 822 358 822 398 854 c 1,46,-1
 426 826 l 1,32,33
EndSplineSet
Validated: 1
EndChar

StartChar: Aogonek
Encoding: 260 260 198
Width: 594
GlyphClass: 2
Flags: W
LayerCount: 2
Fore
SplineSet
296 669 m 1,0,1
 261 644 261 644 239 618.5 c 128,-1,2
 217 593 217 593 205 563.5 c 128,-1,3
 193 534 193 534 188.5 498 c 128,-1,4
 184 462 184 462 184 415 c 2,5,-1
 184 366 l 1,6,-1
 409 422 l 1,7,-1
 409 428 l 2,8,9
 409 470 409 470 405 503 c 128,-1,10
 401 536 401 536 389 564.5 c 128,-1,11
 377 593 377 593 355 618.5 c 128,-1,12
 333 644 333 644 298 669 c 1,13,-1
 296 669 l 1,0,1
315 796 m 2,14,15
 395 747 395 747 439.5 701.5 c 128,-1,16
 484 656 484 656 505 610.5 c 128,-1,17
 526 565 526 565 530 517.5 c 128,-1,18
 534 470 534 470 534 417 c 2,19,-1
 534 41 l 1,20,-1
 401 -83 l 1,21,-1
 401 -142 l 1,22,-1
 522 -142 l 1,23,-1
 522 -160 l 1,24,-1
 471 -211 l 1,25,-1
 316 -211 l 1,26,-1
 316 -74 l 1,27,-1
 409 0 l 1,28,-1
 409 307 l 1,29,-1
 184 251 l 1,30,-1
 184 0 l 1,31,-1
 60 0 l 1,32,-1
 60 420 l 2,33,34
 60 471 60 471 64 517.5 c 128,-1,35
 68 564 68 564 89 609.5 c 128,-1,36
 110 655 110 655 154 701 c 128,-1,37
 198 747 198 747 279 796 c 2,38,-1
 297 807 l 1,39,-1
 315 796 l 2,14,15
EndSplineSet
Validated: 1
EndChar

StartChar: aogonek
Encoding: 261 261 199
Width: 537
GlyphClass: 2
Flags: W
LayerCount: 2
Fore
SplineSet
287 673 m 2,0,1
 355 631 355 631 395 591.5 c 128,-1,2
 435 552 435 552 455.5 512.5 c 128,-1,3
 476 473 476 473 481.5 432.5 c 128,-1,4
 487 392 487 392 487 349 c 2,5,-1
 487 32 l 1,6,-1
 363 -83 l 1,7,-1
 363 -144 l 1,8,-1
 480 -144 l 1,9,-1
 480 -162 l 1,10,-1
 431 -211 l 1,11,-1
 282 -211 l 1,12,-1
 282 -70 l 1,13,-1
 371 0 l 1,14,-1
 371 244 l 1,15,-1
 166 193 l 1,16,-1
 166 0 l 1,17,-1
 50 0 l 1,18,-1
 50 330 l 2,19,20
 50 382 50 382 55 425.5 c 128,-1,21
 60 469 60 469 80 509.5 c 128,-1,22
 100 550 100 550 140.5 590 c 128,-1,23
 181 630 181 630 251 673 c 2,24,-1
 269 684 l 1,25,-1
 287 673 l 2,0,1
268 551 m 1,26,27
 236 529 236 529 216 507.5 c 128,-1,28
 196 486 196 486 185 460.5 c 128,-1,29
 174 435 174 435 170 403.5 c 128,-1,30
 166 372 166 372 166 331 c 2,31,-1
 166 307 l 1,32,-1
 373 359 l 1,33,34
 372 391 372 391 366.5 417.5 c 128,-1,35
 361 444 361 444 349 467 c 128,-1,36
 337 490 337 490 318 510.5 c 128,-1,37
 299 531 299 531 270 551 c 1,38,-1
 268 551 l 1,26,27
EndSplineSet
Validated: 1
EndChar

StartChar: Cacute
Encoding: 262 262 200
Width: 497
GlyphClass: 2
Flags: W
LayerCount: 2
Fore
SplineSet
334 600 m 1,0,-1
 334 664 l 1,1,-1
 181 664 l 1,2,-1
 181 309 l 2,3,4
 181 274 181 274 187.5 248 c 128,-1,5
 194 222 194 222 208 202 c 0,6,7
 223 179 223 179 256.5 158.5 c 128,-1,8
 290 138 290 138 335 126 c 2,9,-1
 455 93 l 1,10,-1
 455 -28 l 1,11,-1
 328 9 l 2,12,13
 240 34 240 34 188 67 c 128,-1,14
 136 100 136 100 107 135 c 0,15,16
 78 171 78 171 66.5 217 c 128,-1,17
 55 263 55 263 55 328 c 2,18,-1
 55 707 l 1,19,-1
 125 776 l 1,20,-1
 512 776 l 1,21,-1
 334 600 l 1,0,-1
415 916 m 1,22,-1
 293 850 l 1,23,-1
 200 850 l 1,24,-1
 200 876 l 1,25,-1
 366 979 l 1,26,-1
 415 916 l 1,22,-1
EndSplineSet
Validated: 1
Substitution2: "'locl' Localized Forms in Latin lookup 3 subtable" Cacute.loclPLK
Substitution2: "'aalt' Access All Alternates in Latin lookup 0 subtable" Cacute.loclPLK
EndChar

StartChar: cacute
Encoding: 263 263 201
Width: 457
GlyphClass: 2
Flags: W
LayerCount: 2
Fore
SplineSet
317 493 m 1,0,-1
 317 543 l 1,1,-1
 168 543 l 1,2,-1
 168 280 l 2,3,4
 168 242 168 242 172.5 219.5 c 128,-1,5
 177 197 177 197 190 181 c 0,6,7
 222 142 222 142 311 118 c 2,8,-1
 419 88 l 1,9,-1
 419 -28 l 1,10,-1
 315 1 l 2,11,12
 227 25 227 25 177.5 54.5 c 128,-1,13
 128 84 128 84 99 117 c 0,14,15
 71 149 71 149 60.5 189 c 128,-1,16
 50 229 50 229 50 283 c 2,17,-1
 50 594 l 1,18,-1
 109 653 l 1,19,-1
 477 653 l 1,20,-1
 317 493 l 1,0,-1
395 796 m 1,21,-1
 273 730 l 1,22,-1
 190 730 l 1,23,-1
 190 756 l 1,24,-1
 356 859 l 1,25,-1
 395 796 l 1,21,-1
EndSplineSet
Validated: 1
Substitution2: "'locl' Localized Forms in Latin lookup 3 subtable" cacute.loclPLK
Substitution2: "'aalt' Access All Alternates in Latin lookup 0 subtable" cacute.loclPLK
EndChar

StartChar: Ccircumflex
Encoding: 264 264 202
Width: 497
GlyphClass: 2
Flags: W
LayerCount: 2
Fore
SplineSet
334 600 m 1,0,-1
 334 664 l 1,1,-1
 181 664 l 1,2,-1
 181 309 l 2,3,4
 181 274 181 274 187.5 248 c 128,-1,5
 194 222 194 222 208 202 c 0,6,7
 223 179 223 179 256.5 158.5 c 128,-1,8
 290 138 290 138 335 126 c 2,9,-1
 455 93 l 1,10,-1
 455 -28 l 1,11,-1
 328 9 l 2,12,13
 240 34 240 34 188 67 c 128,-1,14
 136 100 136 100 107 135 c 0,15,16
 78 171 78 171 66.5 217 c 128,-1,17
 55 263 55 263 55 328 c 2,18,-1
 55 707 l 1,19,-1
 125 776 l 1,20,-1
 512 776 l 1,21,-1
 334 600 l 1,0,-1
430 850 m 1,22,-1
 364 850 l 1,23,-1
 291 909 l 1,24,-1
 213 850 l 1,25,-1
 140 850 l 1,26,-1
 130 877 l 1,27,-1
 290 989 l 1,28,-1
 440 880 l 1,29,-1
 430 850 l 1,22,-1
EndSplineSet
Validated: 1
EndChar

StartChar: ccircumflex
Encoding: 265 265 203
Width: 457
GlyphClass: 2
Flags: W
LayerCount: 2
Fore
SplineSet
317 493 m 1,0,-1
 317 543 l 1,1,-1
 168 543 l 1,2,-1
 168 280 l 2,3,4
 168 242 168 242 172.5 219.5 c 128,-1,5
 177 197 177 197 190 181 c 0,6,7
 222 142 222 142 311 118 c 2,8,-1
 419 88 l 1,9,-1
 419 -28 l 1,10,-1
 315 1 l 2,11,12
 227 25 227 25 177.5 54.5 c 128,-1,13
 128 84 128 84 99 117 c 0,14,15
 71 149 71 149 60.5 189 c 128,-1,16
 50 229 50 229 50 283 c 2,17,-1
 50 594 l 1,18,-1
 109 653 l 1,19,-1
 477 653 l 1,20,-1
 317 493 l 1,0,-1
410 730 m 1,21,-1
 344 730 l 1,22,-1
 271 789 l 1,23,-1
 193 730 l 1,24,-1
 120 730 l 1,25,-1
 120 760 l 1,26,-1
 270 869 l 1,27,-1
 410 763 l 1,28,-1
 410 730 l 1,21,-1
EndSplineSet
Validated: 1
EndChar

StartChar: Cdotaccent
Encoding: 266 266 204
Width: 497
GlyphClass: 2
Flags: W
LayerCount: 2
Fore
SplineSet
334 600 m 1,0,-1
 334 664 l 1,1,-1
 181 664 l 1,2,-1
 181 309 l 2,3,4
 181 274 181 274 187.5 248 c 128,-1,5
 194 222 194 222 208 202 c 0,6,7
 223 179 223 179 256.5 158.5 c 128,-1,8
 290 138 290 138 335 126 c 2,9,-1
 455 93 l 1,10,-1
 455 -28 l 1,11,-1
 328 9 l 2,12,13
 240 34 240 34 188 67 c 128,-1,14
 136 100 136 100 107 135 c 0,15,16
 78 171 78 171 66.5 217 c 128,-1,17
 55 263 55 263 55 328 c 2,18,-1
 55 707 l 1,19,-1
 125 776 l 1,20,-1
 512 776 l 1,21,-1
 334 600 l 1,0,-1
316 970 m 0,22,23
 342 970 342 970 359 952.5 c 128,-1,24
 376 935 376 935 376 909 c 256,25,26
 376 883 376 883 359 865 c 128,-1,27
 342 847 342 847 316 847 c 0,28,29
 289 847 289 847 271.5 865 c 128,-1,30
 254 883 254 883 254 909 c 256,31,32
 254 935 254 935 271.5 952.5 c 128,-1,33
 289 970 289 970 316 970 c 0,22,23
EndSplineSet
Validated: 1
EndChar

StartChar: cdotaccent
Encoding: 267 267 205
Width: 457
GlyphClass: 2
Flags: W
LayerCount: 2
Fore
SplineSet
317 493 m 1,0,-1
 317 543 l 1,1,-1
 168 543 l 1,2,-1
 168 280 l 2,3,4
 168 242 168 242 172.5 219.5 c 128,-1,5
 177 197 177 197 190 181 c 0,6,7
 222 142 222 142 311 118 c 2,8,-1
 419 88 l 1,9,-1
 419 -28 l 1,10,-1
 315 1 l 2,11,12
 227 25 227 25 177.5 54.5 c 128,-1,13
 128 84 128 84 99 117 c 0,14,15
 71 149 71 149 60.5 189 c 128,-1,16
 50 229 50 229 50 283 c 2,17,-1
 50 594 l 1,18,-1
 109 653 l 1,19,-1
 477 653 l 1,20,-1
 317 493 l 1,0,-1
296 847 m 0,21,22
 320 847 320 847 336.5 830 c 128,-1,23
 353 813 353 813 353 789 c 0,24,25
 353 764 353 764 336.5 747 c 128,-1,26
 320 730 320 730 296 730 c 0,27,28
 270 730 270 730 253.5 747 c 128,-1,29
 237 764 237 764 237 789 c 0,30,31
 237 813 237 813 253.5 830 c 128,-1,32
 270 847 270 847 296 847 c 0,21,22
EndSplineSet
Validated: 1
EndChar

StartChar: Ccaron
Encoding: 268 268 206
Width: 497
GlyphClass: 2
Flags: W
LayerCount: 2
Fore
SplineSet
334 600 m 1,0,-1
 334 664 l 1,1,-1
 181 664 l 1,2,-1
 181 309 l 2,3,4
 181 274 181 274 187.5 248 c 128,-1,5
 194 222 194 222 208 202 c 0,6,7
 223 179 223 179 256.5 158.5 c 128,-1,8
 290 138 290 138 335 126 c 2,9,-1
 455 93 l 1,10,-1
 455 -28 l 1,11,-1
 328 9 l 2,12,13
 240 34 240 34 188 67 c 128,-1,14
 136 100 136 100 107 135 c 0,15,16
 78 171 78 171 66.5 217 c 128,-1,17
 55 263 55 263 55 328 c 2,18,-1
 55 707 l 1,19,-1
 125 776 l 1,20,-1
 512 776 l 1,21,-1
 334 600 l 1,0,-1
430 946 m 1,22,-1
 290 840 l 1,23,-1
 140 949 l 1,24,-1
 139 979 l 1,25,-1
 217 979 l 1,26,-1
 291 920 l 1,27,-1
 359 979 l 1,28,-1
 430 979 l 1,29,-1
 430 946 l 1,22,-1
EndSplineSet
Validated: 1
EndChar

StartChar: ccaron
Encoding: 269 269 207
Width: 457
GlyphClass: 2
Flags: W
LayerCount: 2
Fore
SplineSet
317 493 m 1,0,-1
 317 543 l 1,1,-1
 168 543 l 1,2,-1
 168 280 l 2,3,4
 168 242 168 242 172.5 219.5 c 128,-1,5
 177 197 177 197 190 181 c 0,6,7
 222 142 222 142 311 118 c 2,8,-1
 419 88 l 1,9,-1
 419 -28 l 1,10,-1
 315 1 l 2,11,12
 227 25 227 25 177.5 54.5 c 128,-1,13
 128 84 128 84 99 117 c 0,14,15
 71 149 71 149 60.5 189 c 128,-1,16
 50 229 50 229 50 283 c 2,17,-1
 50 594 l 1,18,-1
 109 653 l 1,19,-1
 477 653 l 1,20,-1
 317 493 l 1,0,-1
410 826 m 1,21,-1
 270 720 l 1,22,-1
 120 829 l 1,23,-1
 141 859 l 1,24,-1
 197 859 l 1,25,-1
 271 800 l 1,26,-1
 339 859 l 1,27,-1
 392 859 l 1,28,-1
 410 826 l 1,21,-1
EndSplineSet
Validated: 1
EndChar

StartChar: Dcaron
Encoding: 270 270 208
Width: 590
GlyphClass: 2
Flags: W
LayerCount: 2
Fore
SplineSet
535 426 m 2,0,1
 535 363 535 363 531.5 312 c 128,-1,2
 528 261 528 261 518 220.5 c 128,-1,3
 508 180 508 180 491 148.5 c 128,-1,4
 474 117 474 117 447 93 c 0,5,6
 423 72 423 72 396 56.5 c 128,-1,7
 369 41 369 41 335.5 29.5 c 128,-1,8
 302 18 302 18 260 10 c 128,-1,9
 218 2 218 2 164 -6 c 2,10,-1
 60 -20 l 1,11,-1
 60 776 l 1,12,-1
 469 776 l 1,13,-1
 535 711 l 1,14,-1
 535 426 l 2,0,1
186 661 m 1,15,-1
 186 114 l 1,16,-1
 207 117 l 2,17,18
 259 125 259 125 297 139.5 c 128,-1,19
 335 154 335 154 359 178 c 0,20,21
 374 193 374 193 384 212 c 128,-1,22
 394 231 394 231 399.5 255.5 c 128,-1,23
 405 280 405 280 407 312.5 c 128,-1,24
 409 345 409 345 409 387 c 2,25,-1
 409 661 l 1,26,-1
 186 661 l 1,15,-1
420 946 m 1,27,-1
 280 840 l 1,28,-1
 130 949 l 1,29,-1
 129 979 l 1,30,-1
 207 979 l 1,31,-1
 281 920 l 1,32,-1
 349 979 l 1,33,-1
 420 979 l 1,34,-1
 420 946 l 1,27,-1
EndSplineSet
Validated: 1
EndChar

StartChar: dcaron
Encoding: 271 271 209
Width: 542
GlyphClass: 2
Flags: W
LayerCount: 2
Fore
SplineSet
492 358 m 2,0,1
 492 304 492 304 488 260.5 c 128,-1,2
 484 217 484 217 474 182.5 c 128,-1,3
 464 148 464 148 447 121 c 128,-1,4
 430 94 430 94 403 72 c 0,5,6
 357 34 357 34 298.5 17 c 128,-1,7
 240 0 240 0 173 0 c 2,8,-1
 55 0 l 1,9,-1
 55 596 l 1,10,-1
 113 653 l 1,11,-1
 492 653 l 1,12,-1
 492 358 l 2,0,1
172 540 m 1,13,-1
 172 112 l 1,14,-1
 193 112 l 2,15,16
 238 112 238 112 270 123 c 128,-1,17
 302 134 302 134 325 155 c 0,18,19
 353 180 353 180 364 221 c 128,-1,20
 375 262 375 262 375 337 c 2,21,-1
 375 540 l 1,22,-1
 172 540 l 1,13,-1
415 826 m 1,23,-1
 275 720 l 1,24,-1
 125 829 l 1,25,-1
 146 859 l 1,26,-1
 202 859 l 1,27,-1
 276 800 l 1,28,-1
 344 859 l 1,29,-1
 397 859 l 1,30,-1
 415 826 l 1,23,-1
EndSplineSet
Validated: 1
EndChar

StartChar: Dcroat
Encoding: 272 272 210
Width: 669
GlyphClass: 2
Flags: W
LayerCount: 2
Fore
SplineSet
614 426 m 2,0,1
 614 363 614 363 610.5 312 c 128,-1,2
 607 261 607 261 597 220.5 c 128,-1,3
 587 180 587 180 570 148.5 c 128,-1,4
 553 117 553 117 526 93 c 0,5,6
 502 72 502 72 475 56.5 c 128,-1,7
 448 41 448 41 414.5 29.5 c 128,-1,8
 381 18 381 18 339 10 c 128,-1,9
 297 2 297 2 243 -6 c 2,10,-1
 139 -20 l 1,11,-1
 139 353 l 1,12,-1
 94 353 l 1,13,-1
 -5 451 l 1,14,-1
 -5 462 l 1,15,-1
 139 462 l 1,16,-1
 139 776 l 1,17,-1
 548 776 l 1,18,-1
 614 711 l 1,19,-1
 614 426 l 2,0,1
263 661 m 1,20,-1
 263 462 l 1,21,-1
 390 462 l 1,22,-1
 390 353 l 1,23,-1
 263 353 l 1,24,-1
 263 114 l 1,25,-1
 284 117 l 2,26,27
 336 125 336 125 375 139.5 c 128,-1,28
 414 154 414 154 438 178 c 0,29,30
 453 193 453 193 463 212 c 128,-1,31
 473 231 473 231 478.5 255.5 c 128,-1,32
 484 280 484 280 486 312.5 c 128,-1,33
 488 345 488 345 488 387 c 2,34,-1
 488 661 l 1,35,-1
 263 661 l 1,20,-1
EndSplineSet
Validated: 1
EndChar

StartChar: dcroat
Encoding: 273 273 211
Width: 616
GlyphClass: 2
Flags: W
LayerCount: 2
Fore
SplineSet
566 358 m 2,0,1
 566 304 566 304 562 260.5 c 128,-1,2
 558 217 558 217 548 182.5 c 128,-1,3
 538 148 538 148 521 121 c 128,-1,4
 504 94 504 94 477 72 c 0,5,6
 431 34 431 34 372.5 17 c 128,-1,7
 314 0 314 0 247 0 c 2,8,-1
 129 0 l 1,9,-1
 129 294 l 1,10,-1
 86 294 l 1,11,-1
 -5 384 l 1,12,-1
 -5 395 l 1,13,-1
 129 395 l 1,14,-1
 129 596 l 1,15,-1
 187 653 l 1,16,-1
 566 653 l 1,17,-1
 566 358 l 2,0,1
244 540 m 1,18,-1
 244 395 l 1,19,-1
 353 395 l 1,20,-1
 353 294 l 1,21,-1
 244 294 l 1,22,-1
 244 112 l 1,23,-1
 267 112 l 2,24,25
 312 112 312 112 344 123 c 128,-1,26
 376 134 376 134 399 155 c 0,27,28
 427 180 427 180 438 221 c 128,-1,29
 449 262 449 262 449 337 c 2,30,-1
 449 540 l 1,31,-1
 244 540 l 1,18,-1
EndSplineSet
Validated: 1
EndChar

StartChar: Emacron
Encoding: 274 274 212
Width: 513
GlyphClass: 2
Flags: W
LayerCount: 2
Fore
SplineSet
473 660 m 1,0,-1
 179 660 l 1,1,-1
 179 472 l 1,2,-1
 417 472 l 1,3,-1
 417 358 l 1,4,-1
 179 358 l 1,5,-1
 179 308 l 2,6,7
 179 240 179 240 208 202 c 0,8,9
 224 179 224 179 253 159.5 c 128,-1,10
 282 140 282 140 330 128 c 2,11,-1
 471 92 l 1,12,-1
 471 -28 l 1,13,-1
 311 13 l 2,14,15
 243 31 243 31 192.5 61 c 128,-1,16
 142 91 142 91 109 129 c 0,17,18
 78 164 78 164 66.5 209.5 c 128,-1,19
 55 255 55 255 55 318 c 2,20,-1
 55 707 l 1,21,-1
 125 776 l 1,22,-1
 473 776 l 1,23,-1
 473 660 l 1,0,-1
441 894 m 1,24,-1
 420 874 l 1,25,-1
 150 874 l 1,26,-1
 150 920 l 1,27,-1
 171 940 l 1,28,-1
 441 940 l 1,29,-1
 441 894 l 1,24,-1
EndSplineSet
Validated: 1
EndChar

StartChar: emacron
Encoding: 275 275 213
Width: 470
GlyphClass: 2
Flags: W
LayerCount: 2
Fore
SplineSet
435 540 m 1,0,-1
 166 540 l 1,1,-1
 166 401 l 1,2,-1
 386 401 l 1,3,-1
 386 289 l 1,4,-1
 166 289 l 1,5,-1
 166 270 l 2,6,7
 166 265 166 265 166.5 255 c 128,-1,8
 167 245 167 245 168.5 234 c 128,-1,9
 170 223 170 223 173 212 c 128,-1,10
 176 201 176 201 181 193 c 0,11,12
 194 172 194 172 225.5 155.5 c 128,-1,13
 257 139 257 139 319 122 c 2,14,-1
 434 90 l 1,15,-1
 434 -27 l 1,16,-1
 311 7 l 2,17,18
 264 20 264 20 230.5 31.5 c 128,-1,19
 197 43 197 43 172 56 c 128,-1,20
 147 69 147 69 128.5 84 c 128,-1,21
 110 99 110 99 93 118 c 0,22,23
 69 144 69 144 59.5 190 c 128,-1,24
 50 236 50 236 50 283 c 2,25,-1
 50 597 l 1,26,-1
 108 653 l 1,27,-1
 435 653 l 1,28,-1
 435 540 l 1,0,-1
401 774 m 1,29,-1
 380 754 l 1,30,-1
 120 754 l 1,31,-1
 120 798 l 1,32,-1
 141 818 l 1,33,-1
 401 818 l 1,34,-1
 401 774 l 1,29,-1
EndSplineSet
Validated: 1
EndChar

StartChar: Ebreve
Encoding: 276 276 214
Width: 513
GlyphClass: 2
Flags: W
LayerCount: 2
Fore
SplineSet
473 660 m 1,0,-1
 179 660 l 1,1,-1
 179 472 l 1,2,-1
 417 472 l 1,3,-1
 417 358 l 1,4,-1
 179 358 l 1,5,-1
 179 308 l 2,6,7
 179 240 179 240 208 202 c 0,8,9
 224 179 224 179 253 159.5 c 128,-1,10
 282 140 282 140 330 128 c 2,11,-1
 471 92 l 1,12,-1
 471 -28 l 1,13,-1
 311 13 l 2,14,15
 243 31 243 31 192.5 61 c 128,-1,16
 142 91 142 91 109 129 c 0,17,18
 78 164 78 164 66.5 209.5 c 128,-1,19
 55 255 55 255 55 318 c 2,20,-1
 55 707 l 1,21,-1
 125 776 l 1,22,-1
 473 776 l 1,23,-1
 473 660 l 1,0,-1
458 948 m 1,24,25
 402 895 402 895 364 873 c 128,-1,26
 326 851 326 851 303 851 c 0,27,28
 277 851 277 851 235 871 c 128,-1,29
 193 891 193 891 140 952 c 1,30,-1
 140 979 l 1,31,-1
 217 979 l 1,32,33
 240 953 240 953 262 936.5 c 128,-1,34
 284 920 284 920 309 920 c 0,35,36
 332 920 332 920 357.5 932.5 c 128,-1,37
 383 945 383 945 425 982 c 1,38,-1
 458 948 l 1,24,25
EndSplineSet
Validated: 1
EndChar

StartChar: ebreve
Encoding: 277 277 215
Width: 470
GlyphClass: 2
Flags: W
LayerCount: 2
Fore
SplineSet
435 540 m 1,0,-1
 166 540 l 1,1,-1
 166 401 l 1,2,-1
 386 401 l 1,3,-1
 386 289 l 1,4,-1
 166 289 l 1,5,-1
 166 270 l 2,6,7
 166 265 166 265 166.5 255 c 128,-1,8
 167 245 167 245 168.5 234 c 128,-1,9
 170 223 170 223 173 212 c 128,-1,10
 176 201 176 201 181 193 c 0,11,12
 194 172 194 172 225.5 155.5 c 128,-1,13
 257 139 257 139 319 122 c 2,14,-1
 434 90 l 1,15,-1
 434 -27 l 1,16,-1
 311 7 l 2,17,18
 264 20 264 20 230.5 31.5 c 128,-1,19
 197 43 197 43 172 56 c 128,-1,20
 147 69 147 69 128.5 84 c 128,-1,21
 110 99 110 99 93 118 c 0,22,23
 69 144 69 144 59.5 190 c 128,-1,24
 50 236 50 236 50 283 c 2,25,-1
 50 597 l 1,26,-1
 108 653 l 1,27,-1
 435 653 l 1,28,-1
 435 540 l 1,0,-1
430 826 m 1,29,30
 387 784 387 784 346.5 757.5 c 128,-1,31
 306 731 306 731 283 731 c 0,32,33
 257 731 257 731 215 751 c 128,-1,34
 173 771 173 771 120 832 c 1,35,-1
 120 859 l 1,36,-1
 197 859 l 1,37,38
 220 833 220 833 242 816.5 c 128,-1,39
 264 800 264 800 289 800 c 0,40,41
 312 800 312 800 337 811 c 128,-1,42
 362 822 362 822 402 854 c 1,43,-1
 430 826 l 1,29,30
EndSplineSet
Validated: 1
EndChar

StartChar: Edotaccent
Encoding: 278 278 216
Width: 513
GlyphClass: 2
Flags: W
LayerCount: 2
Fore
SplineSet
473 660 m 1,0,-1
 179 660 l 1,1,-1
 179 472 l 1,2,-1
 417 472 l 1,3,-1
 417 358 l 1,4,-1
 179 358 l 1,5,-1
 179 308 l 2,6,7
 179 240 179 240 208 202 c 0,8,9
 224 179 224 179 253 159.5 c 128,-1,10
 282 140 282 140 330 128 c 2,11,-1
 471 92 l 1,12,-1
 471 -28 l 1,13,-1
 311 13 l 2,14,15
 243 31 243 31 192.5 61 c 128,-1,16
 142 91 142 91 109 129 c 0,17,18
 78 164 78 164 66.5 209.5 c 128,-1,19
 55 255 55 255 55 318 c 2,20,-1
 55 707 l 1,21,-1
 125 776 l 1,22,-1
 473 776 l 1,23,-1
 473 660 l 1,0,-1
306 970 m 0,24,25
 332 970 332 970 349 952.5 c 128,-1,26
 366 935 366 935 366 909 c 256,27,28
 366 883 366 883 349 865 c 128,-1,29
 332 847 332 847 306 847 c 0,30,31
 279 847 279 847 261.5 865 c 128,-1,32
 244 883 244 883 244 909 c 256,33,34
 244 935 244 935 261.5 952.5 c 128,-1,35
 279 970 279 970 306 970 c 0,24,25
EndSplineSet
Validated: 1
EndChar

StartChar: edotaccent
Encoding: 279 279 217
Width: 470
GlyphClass: 2
Flags: W
LayerCount: 2
Fore
SplineSet
435 540 m 1,0,-1
 166 540 l 1,1,-1
 166 401 l 1,2,-1
 386 401 l 1,3,-1
 386 289 l 1,4,-1
 166 289 l 1,5,-1
 166 270 l 2,6,7
 166 265 166 265 166.5 255 c 128,-1,8
 167 245 167 245 168.5 234 c 128,-1,9
 170 223 170 223 173 212 c 128,-1,10
 176 201 176 201 181 193 c 0,11,12
 194 172 194 172 225.5 155.5 c 128,-1,13
 257 139 257 139 319 122 c 2,14,-1
 434 90 l 1,15,-1
 434 -27 l 1,16,-1
 311 7 l 2,17,18
 264 20 264 20 230.5 31.5 c 128,-1,19
 197 43 197 43 172 56 c 128,-1,20
 147 69 147 69 128.5 84 c 128,-1,21
 110 99 110 99 93 118 c 0,22,23
 69 144 69 144 59.5 190 c 128,-1,24
 50 236 50 236 50 283 c 2,25,-1
 50 597 l 1,26,-1
 108 653 l 1,27,-1
 435 653 l 1,28,-1
 435 540 l 1,0,-1
276 847 m 0,29,30
 300 847 300 847 316.5 830 c 128,-1,31
 333 813 333 813 333 789 c 0,32,33
 333 764 333 764 316.5 747 c 128,-1,34
 300 730 300 730 276 730 c 0,35,36
 250 730 250 730 233.5 747 c 128,-1,37
 217 764 217 764 217 789 c 0,38,39
 217 813 217 813 233.5 830 c 128,-1,40
 250 847 250 847 276 847 c 0,29,30
EndSplineSet
Validated: 1
EndChar

StartChar: Eogonek
Encoding: 280 280 218
Width: 513
GlyphClass: 2
Flags: W
LayerCount: 2
Fore
SplineSet
473 660 m 1,0,-1
 179 660 l 1,1,-1
 179 472 l 1,2,-1
 417 472 l 1,3,-1
 417 358 l 1,4,-1
 179 358 l 1,5,-1
 179 308 l 2,6,7
 179 240 179 240 208 202 c 0,8,9
 224 179 224 179 253 159.5 c 128,-1,10
 282 140 282 140 330 128 c 2,11,-1
 471 92 l 1,12,-1
 471 -27 l 1,13,14
 456 -23 456 -23 440 -19 c 0,15,16
 425 -15 425 -15 409 -11 c 128,-1,17
 393 -7 393 -7 378 -3 c 1,18,-1
 308 -73 l 1,19,-1
 308 -132 l 1,20,-1
 429 -132 l 1,21,-1
 429 -150 l 1,22,-1
 378 -201 l 1,23,-1
 223 -201 l 1,24,-1
 223 -64 l 1,25,-1
 318 12 l 1,26,-1
 318 13 l 1,27,28
 251 29 251 29 196.5 60 c 128,-1,29
 142 91 142 91 109 129 c 0,30,31
 78 164 78 164 66.5 209.5 c 128,-1,32
 55 255 55 255 55 318 c 2,33,-1
 55 707 l 1,34,-1
 125 776 l 1,35,-1
 473 776 l 1,36,-1
 473 660 l 1,0,-1
EndSplineSet
Validated: 1
EndChar

StartChar: eogonek
Encoding: 281 281 219
Width: 470
GlyphClass: 2
Flags: W
LayerCount: 2
Fore
SplineSet
435 540 m 1,0,-1
 166 540 l 1,1,-1
 166 401 l 1,2,-1
 386 401 l 1,3,-1
 386 289 l 1,4,-1
 166 289 l 1,5,-1
 166 270 l 2,6,7
 166 265 166 265 166.5 255 c 128,-1,8
 167 245 167 245 168.5 234 c 128,-1,9
 170 223 170 223 173 212 c 128,-1,10
 176 201 176 201 181 193 c 0,11,12
 194 172 194 172 225.5 155.5 c 128,-1,13
 257 139 257 139 319 122 c 2,14,-1
 434 90 l 1,15,-1
 434 -25 l 1,16,-1
 387 -12 l 1,17,-1
 347 -1 l 1,18,-1
 272 -67 l 1,19,-1
 272 -128 l 1,20,-1
 389 -128 l 1,21,-1
 389 -146 l 1,22,-1
 340 -195 l 1,23,-1
 191 -195 l 1,24,-1
 191 -54 l 1,25,-1
 287 15 l 1,26,-1
 287 16 l 1,27,28
 246 27 246 27 215.5 38.5 c 128,-1,29
 185 50 185 50 162.5 62.5 c 128,-1,30
 140 75 140 75 123.5 89 c 128,-1,31
 107 103 107 103 93 118 c 0,32,33
 70 145 70 145 60 190.5 c 128,-1,34
 50 236 50 236 50 283 c 2,35,-1
 50 597 l 1,36,-1
 108 653 l 1,37,-1
 435 653 l 1,38,-1
 435 540 l 1,0,-1
EndSplineSet
Validated: 1
EndChar

StartChar: Ecaron
Encoding: 282 282 220
Width: 513
GlyphClass: 2
Flags: W
LayerCount: 2
Fore
SplineSet
473 660 m 1,0,-1
 179 660 l 1,1,-1
 179 472 l 1,2,-1
 417 472 l 1,3,-1
 417 358 l 1,4,-1
 179 358 l 1,5,-1
 179 308 l 2,6,7
 179 240 179 240 208 202 c 0,8,9
 224 179 224 179 253 159.5 c 128,-1,10
 282 140 282 140 330 128 c 2,11,-1
 471 92 l 1,12,-1
 471 -28 l 1,13,-1
 311 13 l 2,14,15
 243 31 243 31 192.5 61 c 128,-1,16
 142 91 142 91 109 129 c 0,17,18
 78 164 78 164 66.5 209.5 c 128,-1,19
 55 255 55 255 55 318 c 2,20,-1
 55 707 l 1,21,-1
 125 776 l 1,22,-1
 473 776 l 1,23,-1
 473 660 l 1,0,-1
418 946 m 1,24,-1
 278 840 l 1,25,-1
 128 949 l 1,26,-1
 127 979 l 1,27,-1
 205 979 l 1,28,-1
 279 920 l 1,29,-1
 347 979 l 1,30,-1
 418 979 l 1,31,-1
 418 946 l 1,24,-1
EndSplineSet
Validated: 1
EndChar

StartChar: ecaron
Encoding: 283 283 221
Width: 470
GlyphClass: 2
Flags: W
LayerCount: 2
Fore
SplineSet
435 540 m 1,0,-1
 166 540 l 1,1,-1
 166 401 l 1,2,-1
 386 401 l 1,3,-1
 386 289 l 1,4,-1
 166 289 l 1,5,-1
 166 270 l 2,6,7
 166 265 166 265 166.5 255 c 128,-1,8
 167 245 167 245 168.5 234 c 128,-1,9
 170 223 170 223 173 212 c 128,-1,10
 176 201 176 201 181 193 c 0,11,12
 194 172 194 172 225.5 155.5 c 128,-1,13
 257 139 257 139 319 122 c 2,14,-1
 434 90 l 1,15,-1
 434 -27 l 1,16,-1
 311 7 l 2,17,18
 264 20 264 20 230.5 31.5 c 128,-1,19
 197 43 197 43 172 56 c 128,-1,20
 147 69 147 69 128.5 84 c 128,-1,21
 110 99 110 99 93 118 c 0,22,23
 69 144 69 144 59.5 190 c 128,-1,24
 50 236 50 236 50 283 c 2,25,-1
 50 597 l 1,26,-1
 108 653 l 1,27,-1
 435 653 l 1,28,-1
 435 540 l 1,0,-1
405 826 m 1,29,-1
 265 720 l 1,30,-1
 115 829 l 1,31,-1
 136 859 l 1,32,-1
 192 859 l 1,33,-1
 266 800 l 1,34,-1
 334 859 l 1,35,-1
 387 859 l 1,36,-1
 405 826 l 1,29,-1
EndSplineSet
Validated: 1
EndChar

